<?xml version="1.0" standalone="no"?>
<!DOCTYPE svg PUBLIC "-//W3C//DTD SVG 1.1//EN" "http://www.w3.org/Graphics/SVG/1.1/DTD/svg11.dtd" >
<svg xmlns="http://www.w3.org/2000/svg" xmlns:xlink="http://www.w3.org/1999/xlink" version="1.1">
<metadata>
Created by FontForge 20170731 at Thu Aug  1 21:20:17 2013
 By Aleksey,,,
Copyright (c) 2013 Schick Toikka. All rights reserved. Noe Display is a trademark of Schick Toikka. Unauthorised copying or modification of any of its data is illegal.
</metadata>
<defs>
<font id="NoeDisplay-Medium" horiz-adv-x="295" >
  <font-face 
    font-family="Noe Display Medium"
    font-weight="500"
    font-stretch="normal"
    units-per-em="1000"
    panose-1="2 10 6 0 9 4 0 0 0 2"
    ascent="750"
    descent="-250"
    x-height="490"
    cap-height="703"
    bbox="-226 -252 1199 979"
    underline-thickness="18"
    underline-position="-136"
    unicode-range="U+0020-FB02"
  />
<missing-glyph horiz-adv-x="600" 
d="M544 -250h-488v1000h488v-1000zM291 250l-216 467v-933zM310 250l215 -462v925zM87 732l214 -462l214 462h-428zM301 229l-215 -461h428z" />
    <glyph glyph-name="fi" unicode="fi" horiz-adv-x="613" 
d="M534 490v-423q0 -14 10 -22l59 -43v-2h-265v2l59 43q11 8 11 22v389q0 10 -2.5 13t-10.5 3h-181v-402q0 -14 13 -22l75 -46v-2h-283v2l59 43q10 7 10 22v405h-62v18h62q4 109 66 166t170 57q86 0 174 -29l-57 -135h-2l-61 132q-6 13 -20 14q-9 1 -29 1q-115 0 -115 -165
v-41h320z" />
    <glyph glyph-name="fl" unicode="fl" horiz-adv-x="614" 
d="M536 67q0 -14 11 -22l59 -43v-2h-265v2l59 43q10 7 10 22v583q0 13 -11 20q-38 24 -82 24q-103 0 -103 -153v-51h135v-18h-135v-400q0 -9 3 -13t12 -9l83 -48v-2h-293v2l59 43q10 7 10 22v405h-62v18h62q2 112 60.5 167.5t156.5 55.5q56 0 108 -28l123 41v-659z" />
    <glyph glyph-name="f_b" unicode="fb" horiz-adv-x="882" 
d="M395 -8v656q0 15 -11 22q-38 24 -75 24q-48 0 -71.5 -36.5t-23.5 -116.5v-51h135v-18h-135v-400q0 -9 2.5 -12.5t12.5 -9.5l83 -48v-2h-293v2l59 43q10 7 10 22v405h-62v18h62q2 112 58.5 167.5t151.5 55.5q50 0 100 -28l123 41v-336q51 108 152 108q84 0 132 -66.5
t48 -177.5q0 -115 -56.5 -188.5t-152.5 -73.5q-86 0 -125 59l-122 -59h-2zM614 435q-53 0 -93 -56v-317q27 -30 75 -30q123 0 123 212q0 95 -28 143t-77 48z" />
    <glyph glyph-name="f_h" unicode="fh" horiz-adv-x="904" 
d="M834 294q0 -67 -2 -227q0 -13 11 -22l59 -43v-2h-265v2l56 43q12 8 12 21q0 1 1.5 87.5t1.5 112.5q0 83 -19 123t-63 40q-56 0 -91 -59v-303q0 -14 11 -22l59 -43v-2h-265v2l59 43q10 8 10 22v581q0 15 -11 22q-38 24 -80 24q-104 0 -104 -153v-51h135v-18h-135v-400
q0 -9 2.5 -12.5t12.5 -9.5l83 -48v-2h-293v2l59 43q10 7 10 22v405h-62v18h62q2 112 60.5 167.5t155.5 55.5q58 0 109 -28l122 41v-347q38 119 153 119q146 0 146 -204z" />
    <glyph glyph-name="f_j" unicode="fj" horiz-adv-x="590" 
d="M388 472h-174v-402q0 -14 13 -22l75 -46v-2h-283v2l59 43q10 7 10 22v405h-62v18h62q4 109 64.5 166t168.5 57q84 0 174 -29l-57 -135h-2l-62 132q-5 11 -17 13q-20 2 -32 2q-111 0 -111 -165v-41h313v-462q0 -112 -54.5 -179t-158.5 -68q-13 0 -31 2v2q59 8 88.5 56.5
t29.5 147.5v467q0 10 -2.5 13t-10.5 3z" />
    <glyph glyph-name="f_k" unicode="fk" horiz-adv-x="867" 
d="M805 70q9 -18 23 -29l50 -39v-2h-181l-121 242q-7 14 -23 14q-9 0 -18 -6v-183q0 -14 11 -22l59 -43v-2h-265v2l59 43q10 8 10 22v583q0 13 -11 20q-35 24 -80 24q-104 0 -104 -153v-51h135v-18h-135v-400q0 -9 2.5 -12.5t12.5 -9.5l83 -48v-2h-293v2l59 43q10 7 10 22
v405h-62v18h62q2 113 60.5 168t156.5 55q58 0 107 -28l123 41v-467l179 136q9 8 2 17l-72 76v2h220v-2l-189 -143q-11 -8 -6 -17z" />
    <glyph glyph-name=".notdef" horiz-adv-x="600" 
d="M544 -250h-488v1000h488v-1000zM291 250l-216 467v-933zM310 250l215 -462v925zM87 732l214 -462l214 462h-428zM301 229l-215 -461h428z" />
    <glyph glyph-name=".null" horiz-adv-x="0" 
 />
    <glyph glyph-name="nonmarkingreturn" horiz-adv-x="333" 
 />
    <glyph glyph-name="space" unicode=" " horiz-adv-x="199" 
 />
    <glyph glyph-name="exclam" unicode="!" horiz-adv-x="272" 
d="M225 703l-90 -487h-2l-86 487h178zM65 60q0 30 20.5 50.5t49.5 20.5q30 0 50.5 -20t20.5 -51q0 -29 -20.5 -48.5t-50.5 -19.5q-29 0 -49.5 19.5t-20.5 48.5z" />
    <glyph glyph-name="quotedbl" unicode="&#x22;" horiz-adv-x="355" 
d="M143 623l-48 -154h-2l-47 154q-5 17 -5 33q0 25 13.5 41t39.5 16q27 0 40.5 -16t13.5 -41q0 -16 -5 -33zM308 623l-47 -154h-2l-47 154q-5 17 -5 33q0 25 13.5 41t39.5 16q27 0 40.5 -16t13.5 -41q0 -13 -6 -33z" />
    <glyph glyph-name="numbersign" unicode="#" horiz-adv-x="588" 
d="M491 216h-137l-55 -190l-17 5l53 185h-154l-55 -190l-17 5l53 185h-127v18h132l58 203h-127v18h132l57 198l19 -5l-56 -193h153l57 198l19 -5l-56 -193h130v-18h-135l-59 -203h132v-18zM245 437l-59 -203h154l58 203h-153z" />
    <glyph glyph-name="dollar" unicode="$" horiz-adv-x="544" 
d="M254 -10q-102 0 -194 27v223h2l109 -211q9 -16 22 -18q34 -4 51 -4h20v269q-16 9 -62 30q-159 74 -159 208q0 85 60.5 139.5t160.5 59.5v80h18v-80q80 0 178 -23v-215h-2l-113 202q-9 17 -25 18q-12 1 -32 1h-6v-265l57 -27q86 -41 129 -84t43 -114q0 -89 -62 -148.5
t-167 -66.5v-95h-18v94h-10zM395 134q0 45 -27 74t-86 59v-258q51 9 82 40.5t31 84.5zM153 570q0 -46 28.5 -76t82.5 -55v255q-51 -6 -81 -38.5t-30 -85.5z" />
    <glyph glyph-name="percent" unicode="%" horiz-adv-x="659" 
d="M192 699q-30 0 -39.5 -30.5t-9.5 -104.5q0 -73 9.5 -103.5t39.5 -30.5t39.5 30t9.5 104t-9.5 104.5t-39.5 30.5zM192 713q66 0 99.5 -40t33.5 -109q0 -68 -33.5 -108t-99.5 -40q-65 0 -98.5 40t-33.5 108t33.5 108.5t98.5 40.5zM463 274q-30 0 -39.5 -30.5t-9.5 -104.5
q0 -73 9.5 -103.5t39.5 -30.5t39.5 30t9.5 104t-9.5 104.5t-39.5 30.5zM463 288q66 0 99.5 -40t33.5 -109q0 -68 -33.5 -108t-99.5 -40q-65 0 -98.5 40t-33.5 108t33.5 108.5t98.5 40.5zM588 701l-503 -711l-16 13l503 710z" />
    <glyph glyph-name="ampersand" unicode="&#x26;" horiz-adv-x="757" 
d="M659 94q33 0 60.5 24.5t33.5 70.5h2q2 -12 2 -31q0 -77 -42.5 -122.5t-108.5 -45.5q-46 0 -86 22.5t-86 70.5q-95 -93 -203 -93q-91 0 -144 46t-53 119q0 122 170 194q-45 52 -66.5 95.5t-21.5 93.5q0 78 53 126.5t142 48.5q79 0 127.5 -35t48.5 -100q0 -62 -45.5 -100
t-128.5 -68l171 -196q12 -15 24 -27q46 60 69 112q6 13 -10 34l-80 89v2h238v-2l-104 -96q-15 -14 -28 -37q-31 -56 -73 -114q46 -47 76.5 -64t62.5 -17zM377 145l-168 197q-65 -58 -65 -138q0 -71 45.5 -116t104.5 -45q44 0 72 12t57 39q-19 19 -46 51zM221 591
q0 -44 20 -84t66 -90q83 66 83 160q0 60 -23 90.5t-59 30.5q-40 0 -63.5 -29t-23.5 -78z" />
    <glyph glyph-name="quotesingle" unicode="'" horiz-adv-x="189" 
d="M148 656q0 -16 -5 -33l-48 -154h-2l-47 154q-5 17 -5 33q0 25 13.5 41t39.5 16q27 0 40.5 -16t13.5 -41z" />
    <glyph glyph-name="parenleft" unicode="(" horiz-adv-x="328" 
d="M54 292q0 250 146 378q49 45 116 68l2 -2q-50 -42 -81 -100q-76 -138 -76 -344t76 -344q31 -58 81 -100l-2 -2q-67 23 -116 68q-146 128 -146 378z" />
    <glyph glyph-name="parenright" unicode=")" horiz-adv-x="328" 
d="M275 292q0 -249 -147 -378q-49 -45 -116 -68l-2 2q49 41 82 100q75 139 75 344t-75 344q-33 59 -82 100l2 2q67 -23 116 -68q147 -129 147 -378z" />
    <glyph glyph-name="asterisk" unicode="*" horiz-adv-x="381" 
d="M353 545l-160 4l129 -92l-88 -64l-45 154l-47 -153l-88 64l131 91l-157 -4l34 104l125 -96l-51 150h109l-54 -150l128 94z" />
    <glyph glyph-name="plus" unicode="+" horiz-adv-x="540" 
d="M50 314v18h211v211h19v-211h210v-18h-210v-211h-19v211h-211z" />
    <glyph glyph-name="comma" unicode="," horiz-adv-x="235" 
d="M187 50q0 -60 -41.5 -114t-102.5 -69l-1 2q36 19 55.5 54.5t19.5 67.5q0 12 -12 13q-24 3 -40 21.5t-16 44.5q0 28 18.5 47t47.5 19q32 0 52 -22t20 -64z" />
    <glyph glyph-name="hyphen" unicode="-" horiz-adv-x="351" 
d="M46 235v19h260v-19h-260z" />
    <glyph glyph-name="period" unicode="." horiz-adv-x="235" 
d="M47 60q0 30 20.5 50.5t49.5 20.5q30 0 50.5 -20t20.5 -51q0 -29 -20.5 -48.5t-50.5 -19.5q-29 0 -49.5 19.5t-20.5 48.5z" />
    <glyph glyph-name="slash" unicode="/" horiz-adv-x="380" 
d="M348 732l-297 -885l-19 6l298 885z" />
    <glyph glyph-name="zero" unicode="0" horiz-adv-x="651" 
d="M325 9q43 0 72.5 29t48 107t18.5 206q0 129 -18.5 207.5t-48 107t-72.5 28.5q-66 0 -102 -77t-36 -265t36 -265.5t102 -77.5zM325 713q135 0 208.5 -90.5t73.5 -271.5q0 -179 -73.5 -270t-208.5 -91q-134 0 -207 91.5t-73 271.5q0 179 73 269.5t207 90.5z" />
    <glyph glyph-name="one" unicode="1" horiz-adv-x="399" 
d="M276 717v-633q0 -13 13 -22l91 -60v-2h-334v2l92 60q12 9 12 22v496q0 17 -12 21l-104 30v2z" />
    <glyph glyph-name="two" unicode="2" horiz-adv-x="544" 
d="M471 0h-452v2l118 134q47 53 96 117q62 81 87.5 141.5t25.5 130.5q0 170 -115 170q-22 0 -32 -2q-15 -3 -21 -18l-74 -176h-2l-65 163q104 51 220 51q109 0 170.5 -52t61.5 -141q0 -51 -21.5 -98.5t-69.5 -97t-94 -87t-126 -96.5l-46 -34h249q22 0 28 2.5t17 15.5l69 83
h2z" />
    <glyph glyph-name="three" unicode="3" horiz-adv-x="552" 
d="M513 198q0 -94 -75 -151t-210 -57q-107 0 -201 34l71 182h2l60 -178q5 -15 17 -17q26 -4 42 -4q71 0 111.5 51.5t40.5 128.5t-43 122.5t-132 49.5v2q150 32 150 186q0 67 -31 107.5t-86 40.5q-20 0 -32 -2t-19 -18l-74 -175h-2l-64 163q100 50 218 50q102 0 165 -45
t63 -123q0 -131 -160 -171v-2q85 -8 137 -55t52 -119z" />
    <glyph glyph-name="four" unicode="4" horiz-adv-x="582" 
d="M414 84q0 -14 12 -23l76 -59v-2h-306v2l80 59q12 10 12 23v95h-281v2l302 522h105v-505h29q16 0 25 14l98 168h2l-16 -201h-138v-95zM40 198h248v427z" />
    <glyph glyph-name="five" unicode="5" horiz-adv-x="559" 
d="M524 216q0 -108 -76 -167t-207 -59q-113 0 -201 34l69 181h2l61 -177q4 -10 8 -13t18 -5q27 -3 36 -3q69 0 108.5 53t39.5 140q0 80 -43 126.5t-123 46.5q-61 0 -124 -38l-2 1l12 368l185 -6q27 -1 70 -1q72 0 99 26l29 28h2l-12 -86q-7 -48 -32.5 -64.5t-87.5 -16.5
q-29 0 -75 2l-164 6l-6 -229q91 62 194 62q101 0 160.5 -58.5t59.5 -150.5z" />
    <glyph glyph-name="six" unicode="6" horiz-adv-x="602" 
d="M564 229q0 -107 -69.5 -173t-179.5 -66q-130 0 -200 95t-70 265q0 175 76.5 269t230.5 94q85 0 186 -32l-63 -162h-2l-81 162q-6 12 -23 14q-9 1 -23 1q-86 0 -124 -83t-38 -262q71 88 184 88q88 0 142 -55t54 -155zM311 400q-68 0 -127 -62q1 -169 36 -250t94 -81
q49 0 84 53t35 152q0 88 -30.5 138t-91.5 50z" />
    <glyph glyph-name="seven" unicode="7" horiz-adv-x="502" 
d="M280 0h-162q64 164 151.5 336.5t143.5 258.5h-297q-13 0 -18.5 -2.5t-14.5 -12.5l-57 -70h-2l22 193h462v-2l-63 -87q-13 -18 -21 -38q-25 -64 -51 -161t-41.5 -168.5t-42.5 -202.5q-6 -29 -9 -44z" />
    <glyph glyph-name="eight" unicode="8" horiz-adv-x="578" 
d="M287 -10q-110 0 -178 49.5t-68 121.5q0 67 43.5 105t127.5 60l-20 11q-129 71 -129 187q0 85 63.5 137t162.5 52q90 0 153 -45t63 -117q0 -61 -41.5 -98.5t-110.5 -52.5l47 -25q76 -40 111 -83t35 -106q0 -81 -70.5 -138.5t-188.5 -57.5zM323 264l-103 57
q-78 -48 -78 -156q0 -66 44.5 -111.5t109.5 -45.5q59 0 98 33t39 91q0 42 -26.5 71.5t-83.5 60.5zM169 583q0 -44 26 -76.5t84 -65.5l65 -37q63 48 63 142q0 69 -33.5 109t-86.5 40q-51 0 -84.5 -31t-33.5 -81z" />
    <glyph glyph-name="nine" unicode="9" horiz-adv-x="602" 
d="M241 266q-83 0 -142.5 56.5t-59.5 156.5q0 104 69.5 169t180.5 65q132 0 200.5 -93t68.5 -270q0 -166 -78 -263t-222 -97q-99 0 -194 34l66 171h2l74 -173q5 -12 23 -13q9 -2 29 -2q84 0 122 83.5t38 259.5v2q-71 -86 -177 -86zM299 303q60 0 119 62q-3 331 -130 331
q-49 0 -83.5 -52.5t-34.5 -154.5q0 -87 31.5 -136.5t97.5 -49.5z" />
    <glyph glyph-name="colon" unicode=":" horiz-adv-x="235" 
d="M47 60q0 30 20.5 50.5t49.5 20.5q30 0 50.5 -20t20.5 -51q0 -29 -20.5 -48.5t-50.5 -19.5q-29 0 -49.5 19.5t-20.5 48.5zM47 389q0 31 20.5 51t49.5 20q30 0 50.5 -20t20.5 -51q0 -29 -20.5 -48.5t-50.5 -19.5q-29 0 -49.5 19.5t-20.5 48.5z" />
    <glyph glyph-name="semicolon" unicode=";" horiz-adv-x="235" 
d="M43 -133l-1 2q36 19 55.5 54.5t19.5 67.5q0 12 -12 13q-24 3 -40 21.5t-16 44.5q0 28 18.5 47t47.5 19q32 0 52 -22t20 -64q0 -60 -41.5 -114t-102.5 -69zM47 389q0 31 20.5 51t49.5 20q30 0 50.5 -20t20.5 -51q0 -29 -20.5 -48.5t-50.5 -19.5q-29 0 -49.5 19.5
t-20.5 48.5z" />
    <glyph glyph-name="less" unicode="&#x3c;" horiz-adv-x="540" 
d="M65 324l390 179l7 -17l-355 -163l355 -163l-7 -17l-390 179v2z" />
    <glyph glyph-name="equal" unicode="=" horiz-adv-x="540" 
d="M490 404h-440v18h440v-18zM490 225h-440v18h440v-18z" />
    <glyph glyph-name="greater" unicode="&#x3e;" horiz-adv-x="540" 
d="M475 324v-2l-390 -179l-7 17l355 163l-355 163l7 17z" />
    <glyph glyph-name="question" unicode="?" horiz-adv-x="443" 
d="M264 339q-52 -42 -52 -95q0 -7 2 -23l-1 -1q-72 30 -72 92q0 44 61 107q42 42 57 60q48 54 48 110q0 47 -29 76.5t-73 29.5q-15 0 -29 -2q-19 -3 -25 -17l-75 -177h-2l-64 163q104 51 218 51q95 0 151.5 -41t56.5 -112q0 -76 -75 -138zM131 60q0 30 20.5 50.5t49.5 20.5
q30 0 50.5 -20t20.5 -51q0 -29 -20.5 -48.5t-50.5 -19.5q-29 0 -49.5 19.5t-20.5 48.5z" />
    <glyph glyph-name="at" unicode="@" horiz-adv-x="1006" 
d="M671 207q-15 -59 -15 -99q0 -92 69 -92q80 0 146 89.5t66 223.5q0 157 -108.5 257t-281.5 100q-206 0 -342 -139.5t-136 -354.5q0 -189 122 -295.5t303 -106.5q118 0 250 77l8 -16q-127 -79 -259 -79q-121 0 -219.5 45.5t-161 142.5t-62.5 232q0 223 142 367.5t357 144.5
q180 0 293.5 -106t113.5 -268q0 -145 -75 -241.5t-183 -96.5q-68 0 -111 35.5t-43 103.5q0 27 5 48h-2q-65 -187 -164 -187q-47 0 -77.5 38.5t-30.5 112.5q0 134 77.5 244.5t177.5 110.5q69 0 90 -51l125 52l2 -2zM534 175q11 27 42 127.5t39 137.5q-12 23 -47 23
q-57 0 -101 -74q-30 -49 -49.5 -119.5t-19.5 -133.5q0 -77 42 -77q45 0 94 116z" />
    <glyph glyph-name="A" unicode="A" horiz-adv-x="637" 
d="M575 95q8 -24 22 -40l42 -53v-2h-270v2l60 60q9 9 4 26l-52 158h-229l-38 -115q-3 -11 -2 -16t10 -14l91 -99v-2h-230v2l87 95q19 21 25 39l154 465q5 15 3.5 20.5t-10.5 15.5l-57 64v2h191zM268 594l-110 -329h217z" />
    <glyph glyph-name="B" unicode="B" horiz-adv-x="641" 
d="M17 703h318q117 0 181 -42.5t64 -124.5q0 -68 -51.5 -112t-133.5 -52v-3q94 -4 152.5 -49.5t58.5 -120.5q0 -94 -70 -146.5t-188 -52.5h-331v2l77 54q11 8 11 22v547q0 14 -11 22l-77 54v2zM300 356h-56v-315q0 -15 5 -18.5t25 -3.5h27q156 0 156 170q0 83 -37.5 125
t-119.5 42zM244 663v-289h55q62 0 98 40.5t36 118.5q0 74 -34.5 112.5t-95.5 38.5h-41q-11 0 -14.5 -4t-3.5 -17z" />
    <glyph glyph-name="C" unicode="C" horiz-adv-x="612" 
d="M31 349q0 166 87.5 265t244.5 99q103 0 198 -21v-226h-2l-124 210q-7 11 -12.5 14t-19.5 5q-10 1 -29 1q-184 0 -184 -345q0 -344 188 -344q18 0 25 1q21 2 31 17l125 217h2v-235q-85 -17 -188 -17q-172 0 -257 96t-85 263z" />
    <glyph glyph-name="D" unicode="D" horiz-adv-x="694" 
d="M17 0v2l77 54q11 8 11 22v547q0 14 -11 22l-77 54v2h310q165 0 251 -90t86 -249q0 -170 -90 -267t-256 -97h-301zM268 19h21q108 0 162.5 80.5t54.5 255.5q0 329 -202 329h-44q-9 0 -12.5 -3.5t-3.5 -15.5v-624q0 -15 4 -18.5t20 -3.5z" />
    <glyph glyph-name="E" unicode="E" horiz-adv-x="599" 
d="M549 0h-532v2l77 54q11 8 11 22v547q0 14 -11 22l-77 54v2h523v-228h-2l-105 192q-9 17 -28 17h-145q-10 0 -13 -4t-3 -17v-298h98q15 1 27 17l76 96h2v-244h-2l-76 97q-13 16 -28 16h-97v-307q0 -13 3 -17t13 -4h150q24 0 32 13l105 196h2v-228z" />
    <glyph glyph-name="F" unicode="F" horiz-adv-x="567" 
d="M361 0h-344v2l77 54q11 8 11 22v547q0 14 -11 22l-77 54v2h523v-228h-2l-105 192q-9 17 -28 17h-144q-10 0 -13.5 -4t-3.5 -17v-298h98q15 1 27 17l76 96h2v-244h-2l-76 97q-13 16 -28 16h-97v-263q0 -13 12 -21l105 -61v-2z" />
    <glyph glyph-name="G" unicode="G" horiz-adv-x="666" 
d="M342 -10q-151 0 -231 96.5t-80 263.5q0 164 88.5 263.5t244.5 99.5q112 0 209 -22v-227h-2l-125 211q-7 12 -11.5 15.5t-17.5 4.5q-14 1 -35 1q-191 0 -191 -340q0 -178 41.5 -262.5t129.5 -84.5q33 0 66 12q12 5 12 19v188q0 16 -10 25l-68 56v2h296v-2l-68 -55
q-11 -9 -11 -26v-238l-121 23q-60 -23 -116 -23z" />
    <glyph glyph-name="H" unicode="H" horiz-adv-x="757" 
d="M652 625v-547q0 -14 12 -22l77 -54v-2h-316v2l77 54q11 9 11 22v273h-269v-273q0 -14 12 -22l77 -54v-2h-316v2l77 54q11 8 11 22v547q0 14 -11 22l-77 54v2h316v-2l-77 -54q-12 -9 -12 -22v-255h269v255q0 14 -11 22l-77 54v2h316v-2l-77 -54q-12 -9 -12 -22z" />
    <glyph glyph-name="I" unicode="I" horiz-adv-x="350" 
d="M244 625v-547q0 -14 12 -22l77 -54v-2h-316v2l77 54q11 8 11 22v547q0 14 -11 22l-77 54v2h316v-2l-77 -54q-12 -9 -12 -22z" />
    <glyph glyph-name="J" unicode="J" horiz-adv-x="320" 
d="M91 40v585q0 14 -12 22l-77 54v2h316v-2l-77 -54q-12 -9 -12 -22v-557q0 -124 -70 -196t-193 -83l-1 2q126 63 126 249z" />
    <glyph glyph-name="K" unicode="K" horiz-adv-x="675" 
d="M244 625v-547q0 -14 12 -22l77 -54v-2h-316v2l77 54q11 8 11 22v547q0 14 -11 22l-77 54v2h316v-2l-77 -54q-12 -9 -12 -22zM507 587l-147 -153l233 -342q15 -22 30 -34l65 -56v-2h-198l-237 348l236 248q8 10 7 14t-10 13l-81 78v2h283v-2l-135 -80q-29 -17 -46 -34z
" />
    <glyph glyph-name="L" unicode="L" horiz-adv-x="567" 
d="M537 0h-520v2l77 54q11 8 11 22v547q0 14 -11 22l-77 54v2h316v-2l-77 -54q-12 -9 -12 -22v-585q0 -13 3 -17t13 -4h129q25 0 32 13l114 208h2v-240z" />
    <glyph glyph-name="M" unicode="M" horiz-adv-x="871" 
d="M765 78q0 -14 12 -22l77 -54v-2h-316v2l77 54q12 8 12 22v445q0 34 3 64l-235 -593h-2l-233 536q-9 19 -22 56v-455q0 -12 2.5 -16.5t12.5 -14.5l97 -98v-2h-244v2l98 98q14 15 14 31v465q0 18 -10 27l-84 78v2h212l218 -505l201 505h199v-2l-77 -59q-12 -8 -12 -22v-542
z" />
    <glyph glyph-name="N" unicode="N" horiz-adv-x="693" 
d="M18 703h202l350 -560v429q0 17 -14 31l-98 98v2h244v-2l-97 -98q-15 -16 -15 -31v-572h-93l-357 570v-439q0 -17 15 -31l98 -98v-2h-245v2l98 98q14 14 14 31v449q0 21 -11 33l-91 88v2z" />
    <glyph glyph-name="O" unicode="O" horiz-adv-x="708" 
d="M355 7q163 0 163 345q0 344 -163 344q-164 0 -164 -344q0 -343 164 -345zM355 713q153 0 237 -94.5t84 -266.5q0 -173 -84 -267.5t-237 -94.5t-238 94.5t-85 267.5q0 172 85 266.5t238 94.5z" />
    <glyph glyph-name="P" unicode="P" horiz-adv-x="617" 
d="M320 268h-76v-180q0 -21 11 -28l111 -58v-2h-349v2l77 54q11 8 11 22v547q0 14 -11 22l-77 54v2h322q114 0 185 -52t71 -161q0 -107 -76.5 -164.5t-198.5 -57.5zM244 664v-377h58q64 0 104.5 50.5t40.5 150.5q0 96 -38 146t-102 50h-44q-11 0 -15 -4t-4 -16z" />
    <glyph glyph-name="Q" unicode="Q" horiz-adv-x="709" 
d="M518 -236q-67 0 -137 25l-205 71q-35 12 -63 12q-17 0 -31 -2l-1 1l157 136q-100 32 -153 120t-53 225q0 172 85 266.5t238 94.5t237 -94.5t84 -266.5q0 -173 -84 -267.5t-237 -94.5q-47 0 -98 12l-50 -45l222 -70q63 -20 129 -20q71 0 119 35l36 27l2 -1l-46 -80
q-48 -84 -151 -84zM355 7q163 0 163 345q0 344 -163 344q-164 0 -164 -344q0 -343 164 -345z" />
    <glyph glyph-name="R" unicode="R" horiz-adv-x="664" 
d="M287 323h-43v-246q0 -14 12 -22l79 -53v-2h-318v2l77 54q11 8 11 22v547q0 14 -11 22l-77 54v2h340q102 0 167 -46.5t65 -139.5q0 -71 -50.5 -120t-137.5 -63v-2l74 -39l123 -212q11 -20 30 -37l48 -42v-2h-192l-171 308q-9 15 -26 15zM244 664v-322h50q144 0 144 167
q0 94 -35 134.5t-101 40.5h-39q-11 0 -15 -4t-4 -16z" />
    <glyph glyph-name="S" unicode="S" horiz-adv-x="538" 
d="M254 -10q-102 0 -194 27v223h2l109 -211q9 -16 22 -18q34 -4 51 -4q67 0 109 32.5t42 94.5q0 48 -31 78.5t-101 64.5l-61 29q-159 74 -159 208q0 89 65 144t171 55q88 0 181 -23v-215h-2l-113 202q-9 17 -22 18q-12 1 -35 1q-61 0 -98 -34t-37 -92q0 -46 28.5 -75.5
t83.5 -55.5l74 -35q86 -41 129 -84t43 -114q0 -94 -70.5 -155t-186.5 -61z" />
    <glyph glyph-name="T" unicode="T" horiz-adv-x="617" 
d="M378 81q0 -14 11 -22l84 -57v-2h-329v2l83 57q12 8 12 22v603h-88q-12 0 -16.5 -3t-9.5 -15l-104 -210h-2v247h578v-247h-2l-103 210q-5 12 -9.5 15t-16.5 3h-88v-603z" />
    <glyph glyph-name="U" unicode="U" horiz-adv-x="662" 
d="M342 -10q-135 0 -194.5 57.5t-59.5 172.5v403q0 13 -12 22l-70 56v2h307v-2l-75 -56q-11 -8 -11 -22v-386q0 -215 161 -215q76 0 118 58.5t42 169.5v322q0 18 -15 31l-97 98v2h243v-2l-97 -98q-14 -13 -14 -31v-321q0 -261 -226 -261z" />
    <glyph glyph-name="V" unicode="V" horiz-adv-x="612" 
d="M354 0h-96l-204 608q-8 24 -22 40l-42 53v2h271v-2l-61 -60q-8 -9 -3 -25l170 -509l147 461q3 13 1.5 19t-11.5 17l-89 97v2h231v-2l-85 -93q-20 -21 -26 -41z" />
    <glyph glyph-name="W" unicode="W" horiz-adv-x="985" 
d="M728 0h-96l-141 443l-142 -443h-96l-199 608q-8 24 -22 40l-42 53v2h270v-2l-60 -60q-9 -9 -4 -25l166 -510l119 369l-42 133q-5 18 -20 39l-38 54v2h265v-2l-60 -60q-9 -9 -4 -24l159 -508l147 459q3 14 1 19t-12 17l-88 97v2h230v-2l-84 -93q-20 -21 -26 -41z" />
    <glyph glyph-name="X" unicode="X" horiz-adv-x="680" 
d="M627 57l60 -55v-2h-301v2l53 50q13 12 3 26l-142 223l-129 -184q-13 -17 -2 -28l86 -87v-2h-261v2l113 81q29 20 45 42l136 194l-186 293q-10 15 -31 34l-61 55v2h302v-2l-54 -50q-8 -7 -8 -12t6 -14l124 -196l110 157q13 17 2 28l-86 87v2h261v-2l-113 -81
q-29 -20 -45 -42l-117 -167l204 -320q10 -15 31 -34z" />
    <glyph glyph-name="Y" unicode="Y" horiz-adv-x="616" 
d="M382 278v-197q0 -10 2 -13.5t10 -8.5l83 -57v-2h-329v2l84 57q11 8 11 22v183q0 16 -7 28l-171 317q-9 17 -27 37l-51 55v2h294v-2l-62 -59q-10 -10 -4 -21l157 -298l131 256q8 15 -3 27l-86 95v2h238v-2l-100 -93q-19 -17 -31 -38l-131 -255q-8 -15 -8 -37z" />
    <glyph glyph-name="Z" unicode="Z" horiz-adv-x="599" 
d="M551 246v-246h-538v2l399 682h-204q-23 0 -31 -13l-119 -217h-2v249h520v-2l-400 -682h220q24 0 31 13l122 214h2z" />
    <glyph glyph-name="bracketleft" unicode="[" horiz-adv-x="351" 
d="M172 645v-705q0 -15 12 -19l157 -47v-2l-261 -14v869l261 -14v-2l-157 -47q-12 -3 -12 -19z" />
    <glyph glyph-name="backslash" unicode="\" horiz-adv-x="380" 
d="M329 -153l-297 885l18 6l298 -885z" />
    <glyph glyph-name="bracketright" unicode="]" horiz-adv-x="351" 
d="M179 -60v705q0 15 -12 19l-157 47v2l261 14v-869l-261 14v2l157 47q12 4 12 19z" />
    <glyph glyph-name="asciicircum" unicode="^" horiz-adv-x="540" 
d="M270 713l179 -390l-16 -8l-164 356l-163 -356l-17 8l179 390h2z" />
    <glyph glyph-name="underscore" unicode="_" horiz-adv-x="500" 
d="M495 -91h-490v18h490v-18z" />
    <glyph glyph-name="grave" unicode="`" horiz-adv-x="323" 
d="M50 703h139l84 -163l-2 -2l-221 163v2z" />
    <glyph glyph-name="a" unicode="a" horiz-adv-x="487" 
d="M297 246l2 107v4q0 57 -23 90.5t-69 33.5q-16 0 -20.5 -2t-9.5 -11l-70 -141h-2l-53 136q89 35 183 35q98 0 140 -41q47 -49 47 -161v-18l-6 -159q-3 -63 33 -63q22 0 30 24h2q1 -16 -7 -34q-10 -24 -32.5 -39t-53.5 -15q-40 0 -65.5 26t-26.5 76q-15 -47 -51.5 -74.5
t-84.5 -27.5q-56 0 -94.5 36t-38.5 99q0 70 49.5 109.5t115.5 39.5q65 0 105 -30zM248 247q-45 0 -71 -30t-26 -75q0 -40 19.5 -63t49.5 -23q46 0 75 47l2 136q-21 8 -49 8z" />
    <glyph glyph-name="b" unicode="b" horiz-adv-x="543" 
d="M182 726v-336q49 108 152 108q83 0 131 -66.5t48 -177.5q0 -115 -56.5 -188.5t-151.5 -73.5q-88 0 -125 59l-122 -59h-2v643q0 15 -11 23l-59 43v2zM274 435q-54 0 -92 -56v-317q27 -30 74 -30q123 0 123 212q0 95 -28 143t-77 48z" />
    <glyph glyph-name="c" unicode="c" horiz-adv-x="454" 
d="M242 -8q-90 0 -153 63.5t-63 184.5q0 132 72.5 195t175.5 63q77 0 156 -28l-54 -158h-2l-67 157q-7 13 -19 13h-10q-59 0 -89.5 -52t-30.5 -151q0 -110 39.5 -161.5t100.5 -51.5q88 0 133 99h2q-14 -80 -62 -126.5t-129 -46.5z" />
    <glyph glyph-name="d" unicode="d" horiz-adv-x="564" 
d="M486 726v-651q0 -15 10 -23l60 -50v-2h-196v98q-42 -106 -145 -106q-83 0 -135 68t-52 182q0 115 58 185.5t145 70.5q90 0 129 -84v221q0 15 -10 23l-59 43v2zM275 53q46 0 85 54v297q-33 46 -82 46q-50 0 -82.5 -49t-32.5 -150q0 -100 31.5 -149t80.5 -49z" />
    <glyph glyph-name="e" unicode="e" horiz-adv-x="486" 
d="M456 278h-300v-16q0 -96 40.5 -146.5t103.5 -50.5q108 0 155 109h2q-34 -182 -206 -182q-95 0 -159.5 63.5t-64.5 185.5q0 68 19.5 119t53 80.5t73 43.5t83.5 14q85 0 143.5 -48t58.5 -147q0 -9 -2 -25zM254 482q-90 0 -98 -186h179q1 8 1 19q0 167 -82 167z" />
    <glyph glyph-name="f" unicode="f" horiz-adv-x="332" 
d="M26 472v18h62v20q0 108 43.5 155.5t132.5 47.5q70 0 140 -24l-56 -135h-2l-58 130q-5 9 -8 11t-13 2q-53 0 -53 -106v-101h135v-18h-135v-400q0 -10 2.5 -13.5t12.5 -8.5l83 -48v-2h-293v2l59 43q10 6 10 22v405h-62z" />
    <glyph glyph-name="g" unicode="g" horiz-adv-x="501" 
d="M40 335q0 78 56 120.5t142 42.5q74 0 124 -30q10 -6 19 4l100 121h2v-151h-93q54 -43 54 -112q0 -76 -57.5 -116.5t-145.5 -40.5q-38 0 -67 7q-47 -13 -47 -46q0 -21 24 -33.5t69 -12.5h86q86 0 132.5 -35t46.5 -102q0 -86 -74.5 -136.5t-182.5 -50.5q-82 0 -143 29
t-61 82q0 36 29.5 62.5t86.5 37.5q-45 10 -69.5 36t-24.5 62q0 39 30.5 68.5t83.5 42.5q-55 16 -87.5 54t-32.5 97zM176 -29l-25 2q-51 -25 -51 -78t46 -82.5t109 -29.5q61 0 104.5 27.5t43.5 77.5q0 75 -111 79zM165 336q0 -147 77 -147t77 147t-77 147t-77 -147z" />
    <glyph glyph-name="h" unicode="h" horiz-adv-x="573" 
d="M500 67q0 -13 11 -22l60 -43v-2h-266v2l57 43q11 9 11 21q0 1 1.5 87.5t1.5 112.5q0 84 -18.5 123.5t-63.5 39.5q-55 0 -91 -61v-301q0 -13 11 -22l59 -43v-2h-265v2l59 43q10 8 10 22v568q0 15 -10 23l-59 43v2l195 23v-350q37 122 153 122q146 0 146 -204
q0 -67 -2 -227z" />
    <glyph glyph-name="i" unicode="i" horiz-adv-x="296" 
d="M149 556q-29 0 -49 19t-20 47q0 30 20 49.5t49 19.5q30 0 50 -19.5t20 -49.5q0 -28 -20.5 -47t-49.5 -19zM22 490h195v-423q0 -13 11 -22l59 -43v-2h-265v2l59 43q10 8 10 22v348q0 15 -10 23l-59 50v2z" />
    <glyph glyph-name="j" unicode="j" horiz-adv-x="273" 
d="M15 490h195v-462q0 -112 -55.5 -179.5t-161.5 -67.5q-9 0 -27 2v2q59 8 88.5 56.5t29.5 147.5v426q0 15 -10 23l-59 50v2zM73 622q0 30 20 49.5t49 19.5q30 0 49.5 -19.5t19.5 -49.5q0 -28 -20 -47t-49 -19t-49 19t-20 47z" />
    <glyph glyph-name="k" unicode="k" horiz-adv-x="535" 
d="M473 70q9 -18 23 -29l50 -39v-2h-181l-121 242q-8 15 -21 15q-10 0 -20 -7v-183q0 -13 11 -22l59 -43v-2h-265v2l59 43q10 8 10 22v568q0 15 -10 23l-59 43v2l195 23v-467l180 136q10 7 1 17l-72 76v2h221v-2l-190 -143q-11 -8 -6 -17z" />
    <glyph glyph-name="l" unicode="l" horiz-adv-x="281" 
d="M203 726v-659q0 -13 11 -22l59 -43v-2h-265v2l59 43q10 8 10 22v568q0 15 -10 23l-59 43v2z" />
    <glyph glyph-name="m" unicode="m" horiz-adv-x="884" 
d="M516 294q0 -67 -2 -227q0 -13 11 -22l59 -43v-2h-265v2l56 43q12 8 12 21q0 1 1.5 87.5t1.5 112.5q0 84 -18.5 123.5t-63.5 39.5q-55 0 -91 -61v-301q0 -13 11 -22l59 -43v-2h-265v2l59 43q10 8 10 22v348q0 15 -10 23l-59 50v2h195v-114q37 122 153 122q111 0 138 -121
q18 56 60 88.5t101 32.5q69 0 106.5 -51t37.5 -153q0 -67 -2 -227q0 -13 11 -22l59 -43v-2h-265v2l56 43q12 8 12 21q0 2 1.5 87.5t1.5 110.5q0 84 -18.5 124.5t-63.5 40.5q-57 0 -96 -58q7 -32 7 -77z" />
    <glyph glyph-name="n" unicode="n" horiz-adv-x="587" 
d="M390 266q0 84 -18.5 123.5t-63.5 39.5q-55 0 -91 -61v-301q0 -13 11 -22l59 -43v-2h-265v2l59 43q10 8 10 22v348q0 15 -10 23l-59 50v2h195v-114q37 122 153 122q146 0 146 -204q0 -67 -2 -227q0 -13 11 -22l59 -43v-2h-265v2l56 43q12 8 12 21q0 1 1.5 87.5t1.5 112.5z
" />
    <glyph glyph-name="o" unicode="o" horiz-adv-x="536" 
d="M268 482q-48 0 -73 -53t-25 -183q0 -131 25 -184.5t73 -53.5t73.5 53.5t25.5 183.5t-25.5 183.5t-73.5 53.5zM268 -8q-111 0 -176 66t-65 188q0 121 65 186.5t176 65.5q112 0 176.5 -65.5t64.5 -187.5q0 -121 -65 -187t-176 -66z" />
    <glyph glyph-name="p" unicode="p" horiz-adv-x="564" 
d="M77 -161v576q0 15 -10 23l-59 50v2h195v-109q49 117 153 117q82 0 130.5 -65.5t48.5 -174.5q0 -121 -55.5 -193.5t-144.5 -72.5q-98 0 -132 78v-225q0 -15 15 -23l83 -48v-2h-293v2l59 43q10 8 10 22zM296 435q-56 0 -93 -64v-294q31 -37 83 -37t83 53.5t31 157.5
q0 87 -28 135.5t-76 48.5z" />
    <glyph glyph-name="q" unicode="q" horiz-adv-x="542" 
d="M361 -155v257q-44 -110 -150 -110q-75 0 -128.5 68t-53.5 179q0 120 58 189.5t148 69.5q83 0 126 -64l126 64v-659q0 -14 10 -22l52 -43v-2h-285v2l83 48q14 8 14 23zM275 55q48 0 86 56v314q-38 31 -78 31q-52 0 -86 -51t-34 -155q0 -90 30.5 -142.5t81.5 -52.5z" />
    <glyph glyph-name="r" unicode="r" horiz-adv-x="412" 
d="M217 338v-263q0 -15 14 -23l103 -50v-2h-312v2l59 43q10 8 10 22v348q0 15 -10 23l-59 50v2h195v-141q13 60 50.5 104.5t94.5 44.5q34 0 58 -21l-53 -152h-2l-63 103q-5 6 -13 3q-17 -7 -32 -25t-20 -28z" />
    <glyph glyph-name="s" unicode="s" horiz-adv-x="434" 
d="M405 150q0 -75 -57.5 -116.5t-146.5 -41.5t-170 31l48 146h2l67 -146q5 -10 18 -12q17 -3 34 -3q46 0 72 24t26 60q0 33 -21.5 51.5t-72.5 41.5l-64 29q-96 44 -96 137q0 67 52.5 107t131.5 40q84 0 162 -25l-46 -136h-2l-70 130q-8 15 -31 15h-12q-37 0 -61.5 -21
t-24.5 -59q0 -32 21 -51.5t63 -37.5l66 -28q54 -23 83 -53t29 -82z" />
    <glyph glyph-name="t" unicode="t" horiz-adv-x="322" 
d="M194 472v-345q0 -34 14.5 -52.5t40.5 -18.5q23 0 41.5 14t27.5 35l2 -1q-8 -48 -41.5 -80t-93.5 -32q-117 0 -117 124v356h-63v18h51q16 0 27 13l109 152h2v-165h133v-18h-133z" />
    <glyph glyph-name="u" unicode="u" horiz-adv-x="565" 
d="M487 490v-415q0 -15 10 -23l59 -50v-2h-196v111q-42 -119 -148 -119q-143 0 -143 203q0 60 2 220q0 15 -10 24l-60 49v2h196q0 -1 -0.5 -62t-1 -126t-0.5 -77q0 -83 18 -123.5t61 -40.5q50 0 86 61v293q0 15 -10 23l-59 50v2h196z" />
    <glyph glyph-name="v" unicode="v" horiz-adv-x="452" 
d="M388 361l-127 -361h-76l-147 401q-8 23 -18 39l-31 48v2h223v-2l-41 -50q-8 -11 -4 -25l111 -309l92 259q6 16 -5 34l-58 91v2h163v-2l-63 -90q-11 -16 -19 -37z" />
    <glyph glyph-name="w" unicode="w" horiz-adv-x="734" 
d="M752 488l-63 -90q-12 -18 -19 -37l-127 -361h-77l-104 291l-105 -291h-77l-143 401q-7 22 -17 39l-31 48v2h222v-2l-42 -50q-8 -9 -3 -25l108 -311l78 216l-29 83q-8 25 -17 39l-31 48v2h221v-2l-41 -50q-9 -12 -4 -25l109 -310l91 260q7 18 -4 34l-58 91v2h163v-2z" />
    <glyph glyph-name="x" unicode="x" horiz-adv-x="489" 
d="M199 210l-138 203q-14 21 -32 38l-40 37v2h255v-2l-50 -41q-10 -8 0 -23l84 -124l73 95q7 10 7.5 14t-6.5 13l-54 66v2h192v-2l-93 -73q-19 -14 -36 -36l-73 -94l142 -208q12 -17 31 -36l40 -39v-2h-255v2l51 42q10 8 -1 23l-87 128l-76 -99q-8 -10 -8 -14.5t7 -13.5
l54 -66v-2h-192v2l93 73q16 13 36 37z" />
    <glyph glyph-name="y" unicode="y" horiz-adv-x="454" 
d="M56 -236q-23 0 -45 10l36 162h2l76 -99q7 -10 13 -10q5 0 12 10q27 37 63 119l-180 459q-5 13 -18 34l-25 39v2h225v-2l-44 -49q-9 -10 -3 -24l111 -296l95 242q7 18 -2 32l-60 95v2h162v-2l-60 -88q-12 -18 -22 -42l-150 -385q-28 -71 -67 -132q-48 -77 -119 -77z" />
    <glyph glyph-name="z" unicode="z" horiz-adv-x="452" 
d="M310 33l110 167h3l-15 -200h-394v2l278 471h-121q-13 0 -16.5 -2t-10.5 -13l-103 -158h-3v190h398v-2l-275 -470h121q13 0 17 2t11 13z" />
    <glyph glyph-name="braceleft" unicode="{" horiz-adv-x="352" 
d="M217 186l-16 -174q-5 -55 30 -101.5t111 -42.5v-2q-34 -8 -65 -8q-74 0 -128.5 48.5t-46.5 130.5l17 175q3 31 -20.5 53.5t-63.5 26.5v2q41 5 64 27t20 53l-17 175q-8 82 47 130.5t128 48.5q31 0 65 -8v-2q-76 4 -111 -43t-30 -102l16 -173q4 -40 -21 -68.5t-65 -37.5v-2
q40 -9 65 -38t21 -68z" />
    <glyph glyph-name="bar" unicode="|" horiz-adv-x="219" 
d="M119 -250h-19v1000h19v-1000z" />
    <glyph glyph-name="braceright" unicode="}" horiz-adv-x="352" 
d="M250 549l-17 -175q-3 -31 20 -53t64 -27v-2q-40 -4 -63.5 -26.5t-20.5 -53.5l17 -175q8 -82 -47 -130.5t-129 -48.5q-30 0 -64 8v2q76 -4 111 42.5t30 101.5l-16 174q-4 39 21 68t65 38v2q-41 9 -65.5 37.5t-20.5 68.5l16 173q5 55 -30 102t-111 43v2q34 8 64 8
q74 0 129 -49t47 -130z" />
    <glyph glyph-name="asciitilde" unicode="~" horiz-adv-x="502" 
d="M364 277q-46 0 -116.5 33t-110.5 33q-60 0 -96 -59l-16 10q40 67 112 67q46 0 116.5 -33t110.5 -33q62 0 98 58l15 -9q-40 -67 -113 -67z" />
    <glyph glyph-name="uni00A0" unicode="&#xa0;" horiz-adv-x="0" 
 />
    <glyph glyph-name="exclamdown" unicode="&#xa1;" horiz-adv-x="272" 
d="M47 -214l86 487h2l90 -487h-178zM65 429q0 29 20.5 48.5t49.5 19.5q30 0 50.5 -19.5t20.5 -48.5q0 -31 -20.5 -51t-50.5 -20q-29 0 -49.5 20.5t-20.5 50.5z" />
    <glyph glyph-name="cent" unicode="&#xa2;" horiz-adv-x="459" 
d="M272 -105h-17v97h-13q-94 0 -155 63.5t-61 185.5q0 127 65.5 190t163.5 67v107h17v-107q86 -2 161 -25v-2l-61 -160h-2l-65 159q-3 7 -8.5 9t-24.5 2v-412q14 -3 28 -3q91 0 131 99h2q-11 -72 -51 -118t-110 -54v-98zM150 277q0 -87 29 -137.5t76 -66.5v407
q-48 -7 -76.5 -60t-28.5 -143z" />
    <glyph glyph-name="sterling" unicode="&#xa3;" horiz-adv-x="553" 
d="M419 296h-170q6 -27 6 -54q0 -105 -112 -134v-1h247q26 0 34.5 3t20.5 17l67 81h2l-23 -208h-466v2l83 94q47 51 47 115q0 28 -22 85h-100v18h92q-2 5 -11 25t-12.5 28t-10.5 25.5t-10 28.5t-7.5 26.5t-6 29.5t-1.5 28q0 97 59 152.5t172 55.5q106 0 196 -27l-35 -181h-2
l-95 174q-7 15 -26 15h-28q-61 0 -88 -44t-27 -114q0 -38 9 -75.5t23.5 -80.5t20.5 -66h174v-18z" />
    <glyph glyph-name="currency" unicode="&#xa4;" horiz-adv-x="664" 
d="M332 120q-96 0 -161 57l-113 -112l-12 12l111 112q-62 64 -62 163q0 98 63 163l-112 113l12 13l113 -113q67 57 161 57q93 0 161 -57l113 113l13 -13l-113 -113q64 -64 64 -163q0 -97 -64 -163l112 -111l-12 -13l-112 112q-66 -57 -162 -57zM332 138q93 0 156 58.5
t63 155.5q0 96 -63 155.5t-156 59.5t-155.5 -59.5t-62.5 -155.5q0 -97 62.5 -155.5t155.5 -58.5z" />
    <glyph glyph-name="yen" unicode="&#xa5;" horiz-adv-x="624" 
d="M384 163v-82q0 -10 2 -13.5t10 -8.5l83 -57v-2h-329v2l84 57q11 8 11 22v82h-147v18h147v86h-147v18h144l-2 3l-2 4l-171 317q-9 17 -27 37l-51 55v2h294v-2l-62 -59q-10 -10 -4 -21l157 -298l131 256q8 15 -3 27l-86 95v2h238v-2l-100 -93q-19 -17 -31 -38l-131 -255
q-8 -15 -8 -30h150v-18h-150v-86h150v-18h-150z" />
    <glyph glyph-name="brokenbar" unicode="&#xa6;" horiz-adv-x="219" 
d="M119 -250h-19v438h19v-438zM119 322h-19v428h19v-428z" />
    <glyph glyph-name="section" unicode="&#xa7;" horiz-adv-x="510" 
d="M461 268q0 -53 -37 -87.5t-85 -50.5q86 -65 86 -150q0 -70 -54 -110t-128 -40q-85 0 -153 17l36 193h2l78 -177q9 -18 27 -18h13q42 0 67.5 26.5t25.5 62.5q0 64 -107 133l-46 30q-75 49 -105 87t-30 90t37.5 87.5t84.5 50.5q-86 67 -86 151q0 70 54 110t129 40
q80 0 152 -17l-36 -193h-2l-78 176q-5 11 -9.5 15t-15.5 4h-15q-42 0 -67.5 -26.5t-25.5 -63.5q0 -64 107 -133l46 -30q75 -49 105 -87t30 -90zM295 327l-114 79q-17 -8 -30 -31.5t-13 -46.5q0 -57 79 -112l114 -80q16 9 30 32.5t14 45.5q0 58 -80 113z" />
    <glyph glyph-name="dieresis" unicode="&#xa8;" horiz-adv-x="399" 
d="M50 622q0 25 17.5 42.5t42.5 17.5q24 0 41.5 -17.5t17.5 -42.5q0 -24 -17.5 -41t-41.5 -17q-25 0 -42.5 17t-17.5 41zM230 622q0 25 17 42.5t41 17.5q26 0 43.5 -17.5t17.5 -42.5q0 -24 -18 -41t-43 -17q-24 0 -41 17t-17 41z" />
    <glyph glyph-name="copyright" unicode="&#xa9;" horiz-adv-x="813" 
d="M45 351q0 161 104 261.5t257 100.5t257.5 -100.5t104.5 -261.5q0 -162 -104.5 -261.5t-257.5 -99.5t-257 99.5t-104 261.5zM64 351q0 -154 98.5 -248.5t243.5 -94.5q146 0 244.5 94.5t98.5 248.5q0 153 -99 248.5t-244 95.5t-243.5 -95.5t-98.5 -248.5zM330 352
q0 -92 27 -142t74 -50q21 0 27 10l83 117h1v-133q-46 -10 -115 -10q-100 0 -153.5 56.5t-53.5 150.5q0 93 55.5 151t145.5 58q69 0 121 -12v-128h-1l-85 114q-7 11 -31 11q-44 0 -69.5 -53t-25.5 -140z" />
    <glyph glyph-name="ordfeminine" unicode="&#xaa;" horiz-adv-x="402" 
d="M318 562l-4 -110q-2 -43 23 -43q13 0 20 17h2q0 -14 -5 -25q-16 -36 -59 -36q-26 0 -44 16.5t-20 48.5q-11 -30 -36 -47.5t-56 -17.5q-38 0 -64.5 25t-26.5 68q0 48 34 75.5t79 27.5q43 0 71 -21l2 74q2 82 -68 82q-13 0 -18 -9l-46 -95h-1l-36 97q63 24 126 24
q66 0 95 -29q35 -35 32 -122zM231 441l1 91q-15 6 -33 6q-31 0 -48.5 -20t-17.5 -50q0 -27 13 -42t34 -15q28 0 51 30z" />
    <glyph glyph-name="guillemotleft" unicode="&#xab;" horiz-adv-x="449" 
d="M29 252l212 213l1 -1l-96 -213l96 -213l-1 -1l-212 213v2zM206 252l212 213l1 -1l-96 -213l96 -213l-1 -1l-212 213v2z" />
    <glyph glyph-name="logicalnot" unicode="&#xac;" horiz-adv-x="540" 
d="M500 109h-19v207h-442v18h461v-225z" />
    <glyph glyph-name="uni00AD" unicode="&#xad;" horiz-adv-x="351" 
d="M46 235v19h260v-19h-260z" />
    <glyph glyph-name="registered" unicode="&#xae;" horiz-adv-x="813" 
d="M45 351q0 161 104 261.5t257 100.5t257.5 -100.5t104.5 -261.5q0 -162 -104.5 -261.5t-257.5 -99.5t-257 99.5t-104 261.5zM64 351q0 -154 98.5 -248.5t243.5 -94.5q146 0 244.5 94.5t98.5 248.5q0 153 -99 248.5t-244 95.5t-243.5 -95.5t-98.5 -248.5zM231 165l43 28
q7 5 7 13v297q0 8 -7 13l-43 28v2h208q56 0 91 -25t35 -76q0 -39 -27.5 -66t-76.5 -34v-2l42 -21l68 -114q10 -16 17 -21l28 -22v-2h-120l-89 166q-5 8 -15 8h-22v-131q0 -8 7 -13l42 -28v-2h-188v2zM370 518v-164h28q71 0 71 86q0 89 -65 89h-22q-12 0 -12 -11z" />
    <glyph glyph-name="macron" unicode="&#xaf;" horiz-adv-x="362" 
d="M312 592h-262v18h262v-18z" />
    <glyph glyph-name="degree" unicode="&#xb0;" horiz-adv-x="324" 
d="M35 589q0 54 37 88t90 34t90 -34t37 -88q0 -53 -37 -86t-90 -33t-90 33t-37 86zM54 589q0 -44 32.5 -72.5t75.5 -28.5q44 0 76 28.5t32 72.5q0 45 -32 74.5t-76 29.5q-43 0 -75.5 -29.5t-32.5 -74.5z" />
    <glyph glyph-name="plusminus" unicode="&#xb1;" horiz-adv-x="540" 
d="M50 365v18h211v161h19v-161h210v-18h-210v-162h-19v162h-211zM50 105v18h440v-18h-440z" />
    <glyph glyph-name="twosuperior" unicode="&#xb2;" 
d="M268 522l-14 -102h-240v2q54 48 96 90q73 71 73 123q0 63 -54 63h-12q-9 0 -12 -8l-41 -92h-2l-40 93q59 22 118 22t92 -21.5t33 -60.5q0 -45 -38.5 -76t-130.5 -73v-2h105q21 0 29 8l36 34h2z" />
    <glyph glyph-name="threesuperior" unicode="&#xb3;" 
d="M273 502q0 -37 -36.5 -61.5t-101.5 -24.5q-67 0 -117 18l50 97h2l28 -91q3 -7 10 -8t23 -1q27 0 44.5 18.5t17.5 51.5q0 63 -82 67v2q73 12 73 75q0 53 -46 53h-18q-9 0 -12 -8l-41 -90h-2l-40 91q56 22 120 22q117 0 117 -70q0 -53 -79 -69v-2q43 -2 66.5 -20.5
t23.5 -49.5z" />
    <glyph glyph-name="acute" unicode="&#xb4;" horiz-adv-x="323" 
d="M135 703h138v-2l-221 -163l-2 2z" />
    <glyph glyph-name="mu" unicode="&#xb5;" horiz-adv-x="571" 
d="M493 72q0 -16 10 -24l59 -46v-2h-196v112q-16 -52 -52 -83t-82 -31q-15 0 -31 4v-154q0 -16 14 -24l83 -50v-2h-293v2l61 43q10 7 10 22v580q0 15 -10 23l-59 46v2h194v-285q0 -81 18 -113.5t60 -32.5q52 0 87 63v296q0 15 -10 24l-59 46v2h196v-418z" />
    <glyph glyph-name="paragraph" unicode="&#xb6;" horiz-adv-x="605" 
d="M441 -250h-19v250h-69q-58 0 -106.5 17t-90 55t-65 107.5t-23.5 165.5t23.5 167.5t65 111.5t90.5 59.5t106 19.5h177v-18h-89v-669h89v-16h-89v-250zM350 16h72v669h-72v-669z" />
    <glyph glyph-name="periodcentered" unicode="&#xb7;" horiz-adv-x="235" 
d="M47 424q0 30 20.5 50.5t49.5 20.5q30 0 50.5 -20t20.5 -51q0 -29 -20.5 -49t-50.5 -20q-29 0 -49.5 20t-20.5 49z" />
    <glyph glyph-name="cedilla" unicode="&#xb8;" horiz-adv-x="363" 
d="M288 -142q0 -41 -30 -67.5t-82 -26.5q-48 0 -81 25.5t-36 63.5l2 1q8 -27 31.5 -41.5t48.5 -14.5q27 0 46 15.5t19 41.5q0 27 -18.5 42.5t-47.5 15.5q-21 0 -37 -6l-1 2l70 90h2l-9 -61q50 10 86.5 -14.5t36.5 -65.5z" />
    <glyph glyph-name="onesuperior" unicode="&#xb9;" horiz-adv-x="252" 
d="M172 716v-252q0 -8 7 -11l65 -32v-1h-221v1l65 32q7 3 7 11v186q0 7 -7 9l-71 22v2z" />
    <glyph glyph-name="ordmasculine" unicode="&#xba;" horiz-adv-x="410" 
d="M205 697q-33 0 -50.5 -35t-17.5 -122q0 -88 17.5 -123t50.5 -35t50.5 35t17.5 122q0 88 -17.5 123t-50.5 35zM205 365q-76 0 -120.5 45.5t-44.5 129.5q0 83 44.5 128t120.5 45q77 0 121 -45t44 -129q0 -83 -44.5 -128.5t-120.5 -45.5z" />
    <glyph glyph-name="guillemotright" unicode="&#xbb;" horiz-adv-x="449" 
d="M242 250l-212 -213l-1 1l95 213l-95 213l1 1l212 -213v-2zM419 250l-212 -213l-1 1l95 213l-95 213l1 1l212 -213v-2z" />
    <glyph glyph-name="onequarter" unicode="&#xbc;" horiz-adv-x="485" 
d="M60 360h365v-18h-365v18zM184 0v1l45 27q6 4 6 11v33h-143v2l158 215h58v-202h15q10 0 15 8l47 82h2l-7 -105h-72v-33q0 -6 7 -11l42 -27v-1h-173zM122 87h113v154zM292 453l65 -32v-1h-221v1l65 32q7 3 7 11v186q0 7 -7 9l-71 22v2l155 33v-252q0 -8 7 -11z" />
    <glyph glyph-name="onehalf" unicode="&#xbd;" horiz-adv-x="485" 
d="M425 360v-18h-365v18h365zM357 421v-1h-221v1l65 32q7 3 7 11v186q0 7 -7 9l-71 22v2l155 33v-252q0 -8 7 -11zM366 102l-14 -102h-240v2q54 48 96 90q73 71 73 123q0 63 -54 63h-12q-9 0 -12 -8l-41 -92h-2l-40 93q59 22 118 22t92 -21.5t33 -60.5q0 -45 -38.5 -76
t-130.5 -73v-2h105q21 0 29 8l36 34h2z" />
    <glyph glyph-name="threequarters" unicode="&#xbe;" horiz-adv-x="485" 
d="M60 342v18h365v-18h-365zM308 39q0 -6 7 -11l42 -27v-1h-173v1l45 27q6 4 6 11v33h-143v2l158 215h58v-202h15q10 0 15 8l47 82h2l-7 -105h-72v-33zM122 87h113v154zM370 502q0 -37 -36.5 -61.5t-101.5 -24.5q-68 0 -117 18l50 97h2l28 -91q2 -6 10 -7q6 -2 23 -2
q27 0 44.5 18.5t17.5 51.5q0 63 -82 67v2q73 12 73 75q0 53 -46 53h-18q-8 -1 -12 -8l-41 -90h-2l-40 91q56 22 120 22q117 0 117 -70q0 -53 -79 -69v-2q43 -2 66.5 -20.5t23.5 -49.5z" />
    <glyph glyph-name="questiondown" unicode="&#xbf;" horiz-adv-x="409" 
d="M230 269q72 -30 72 -92q0 -19 -10 -39t-20.5 -33t-30.5 -35q-42 -42 -57 -60q-48 -51 -48 -110q0 -47 29 -76.5t73 -29.5q15 0 29 2t17.5 4.5t7.5 12.5l75 177h2l64 -163q-104 -51 -218 -51q-95 0 -151.5 41t-56.5 112q0 69 75 138q6 5 49 42t48 41q28 27 40 47t12 48
q0 7 -2 23zM312 429q0 -30 -20.5 -50.5t-49.5 -20.5q-30 0 -50.5 20t-20.5 51q0 29 20.5 48.5t50.5 19.5q29 0 49.5 -19.5t20.5 -48.5z" />
    <glyph glyph-name="Agrave" unicode="&#xc0;" horiz-adv-x="637" 
d="M575 95q8 -24 22 -40l42 -53v-2h-270v2l60 60q9 9 4 26l-52 158h-229l-38 -115q-3 -11 -2 -16t10 -14l91 -99v-2h-230v2l87 95q19 21 25 39l154 465q5 15 3.5 20.5t-10.5 15.5l-57 64v2h191zM268 594l-110 -329h217zM145 915h139l84 -163l-2 -2l-221 163v2z" />
    <glyph glyph-name="Aacute" unicode="&#xc1;" horiz-adv-x="637" 
d="M575 95q8 -24 22 -40l42 -53v-2h-270v2l60 60q9 9 4 26l-52 158h-229l-38 -115q-3 -11 -2 -16t10 -14l91 -99v-2h-230v2l87 95q19 21 25 39l154 465q5 15 3.5 20.5t-10.5 15.5l-57 64v2h191zM268 594l-110 -329h217zM325 915h138v-2l-221 -163l-2 2z" />
    <glyph glyph-name="Acircumflex" unicode="&#xc2;" horiz-adv-x="637" 
d="M575 95q8 -24 22 -40l42 -53v-2h-270v2l60 60q9 9 4 26l-52 158h-229l-38 -115q-3 -11 -2 -16t10 -14l91 -99v-2h-230v2l87 95q19 21 25 39l154 465q5 15 3.5 20.5t-10.5 15.5l-57 64v2h191zM268 594l-110 -329h217zM455 750l-1 -2l-151 72l-151 -72l-1 2l151 173h2z" />
    <glyph glyph-name="Atilde" unicode="&#xc3;" horiz-adv-x="637" 
d="M575 95q8 -24 22 -40l42 -53v-2h-270v2l60 60q9 9 4 26l-52 158h-229l-38 -115q-3 -11 -2 -16t10 -14l91 -99v-2h-230v2l87 95q19 21 25 39l154 465q5 15 3.5 20.5t-10.5 15.5l-57 64v2h191zM268 594l-110 -329h217zM365 774q-24 0 -69.5 23.5t-66.5 23.5q-43 0 -62 -48
h-2q0 10 2 30q5 41 25 64.5t52 23.5q24 0 69 -24t66 -24q45 0 63 48h2q0 -12 -2 -32q-5 -39 -25 -62t-52 -23z" />
    <glyph glyph-name="Adieresis" unicode="&#xc4;" horiz-adv-x="637" 
d="M575 95q8 -24 22 -40l42 -53v-2h-270v2l60 60q9 9 4 26l-52 158h-229l-38 -115q-3 -11 -2 -16t10 -14l91 -99v-2h-230v2l87 95q19 21 25 39l154 465q5 15 3.5 20.5t-10.5 15.5l-57 64v2h191zM268 594l-110 -329h217zM154 834q0 25 17.5 42.5t42.5 17.5q24 0 41.5 -17.5
t17.5 -42.5q0 -24 -17.5 -41t-41.5 -17q-25 0 -42.5 17t-17.5 41zM334 834q0 25 17 42.5t41 17.5q26 0 43.5 -17.5t17.5 -42.5q0 -24 -18 -41t-43 -17q-24 0 -41 17t-17 41z" />
    <glyph glyph-name="Aring" unicode="&#xc5;" horiz-adv-x="637" 
d="M575 95q8 -24 22 -40l42 -53v-2h-270v2l60 60q9 9 4 26l-52 158h-229l-38 -115q-3 -11 -2 -16t10 -14l91 -99v-2h-230v2l87 95q19 21 25 39l154 465q5 15 3.5 20.5t-10.5 15.5l-57 64v2h191zM268 594l-110 -329h217zM392 838q0 -37 -25.5 -61.5t-62.5 -24.5
q-36 0 -61.5 25t-25.5 61q0 37 25 62t62 25t62.5 -25t25.5 -62zM372 838q0 29 -19.5 48.5t-48.5 19.5t-48 -19.5t-19 -48.5q0 -28 19.5 -47.5t47.5 -19.5q29 0 48.5 19t19.5 48z" />
    <glyph glyph-name="AE" unicode="&#xc6;" horiz-adv-x="927" 
d="M669 365q15 1 27 17l77 96h2v-244h-2l-77 97q-13 16 -27 16h-98v-307q0 -13 3 -17t14 -4h149q24 0 32 13l105 196h3v-228h-533v2l77 54q12 8 12 22v167h-235l-66 -109q-10 -16 -10 -23t10 -19l77 -92v-2h-235v2l92 86q33 31 40 42l288 472q8 15 7.5 19.5t-8.5 13.5
l-65 66v2h539v-228h-2l-105 192q-9 17 -28 17h-144q-11 0 -14 -4t-3 -17v-298h98zM433 264v365l-223 -365h223z" />
    <glyph glyph-name="Ccedilla" unicode="&#xc7;" horiz-adv-x="612" 
d="M469 -142q0 -41 -30 -67.5t-82 -26.5q-48 0 -81 25.5t-36 63.5l2 1q8 -27 31.5 -41.5t48.5 -14.5q27 0 46 15.5t19 41.5q0 27 -18.5 42.5t-47.5 15.5q-21 0 -37 -6l-1 2l63 82q-159 7 -237 102.5t-78 255.5q0 166 87.5 265t244.5 99q103 0 198 -21v-226h-2l-124 210
q-7 11 -12.5 14t-19.5 5q-10 1 -29 1q-184 0 -184 -345q0 -344 188 -344q18 0 25 1q21 2 31 17l125 217h2v-235q-85 -17 -188 -17q-4 0 -10 0.5t-9 0.5l-8 -53q50 10 86.5 -14.5t36.5 -65.5z" />
    <glyph glyph-name="Egrave" unicode="&#xc8;" horiz-adv-x="599" 
d="M549 0h-532v2l77 54q11 8 11 22v547q0 14 -11 22l-77 54v2h523v-228h-2l-105 192q-9 17 -28 17h-145q-10 0 -13 -4t-3 -17v-298h98q15 1 27 17l76 96h2v-244h-2l-76 97q-13 16 -28 16h-97v-307q0 -13 3 -17t13 -4h150q24 0 32 13l105 196h2v-228zM155 915h139l84 -163
l-2 -2l-221 163v2z" />
    <glyph glyph-name="Eacute" unicode="&#xc9;" horiz-adv-x="599" 
d="M335 915h138v-2l-221 -163l-2 2zM549 0h-532v2l77 54q11 8 11 22v547q0 14 -11 22l-77 54v2h523v-228h-2l-105 192q-9 17 -28 17h-145q-10 0 -13 -4t-3 -17v-298h98q15 1 27 17l76 96h2v-244h-2l-76 97q-13 16 -28 16h-97v-307q0 -13 3 -17t13 -4h150q24 0 32 13l105 196
h2v-228z" />
    <glyph glyph-name="Ecircumflex" unicode="&#xca;" horiz-adv-x="599" 
d="M465 750l-1 -2l-151 72l-151 -72l-1 2l151 173h2zM549 0h-532v2l77 54q11 8 11 22v547q0 14 -11 22l-77 54v2h523v-228h-2l-105 192q-9 17 -28 17h-145q-10 0 -13 -4t-3 -17v-298h98q15 1 27 17l76 96h2v-244h-2l-76 97q-13 16 -28 16h-97v-307q0 -13 3 -17t13 -4h150
q24 0 32 13l105 196h2v-228z" />
    <glyph glyph-name="Edieresis" unicode="&#xcb;" horiz-adv-x="599" 
d="M163 834q0 25 17.5 42.5t42.5 17.5q24 0 41.5 -17.5t17.5 -42.5q0 -24 -17.5 -41t-41.5 -17q-25 0 -42.5 17t-17.5 41zM343 834q0 25 17 42.5t41 17.5q26 0 43.5 -17.5t17.5 -42.5q0 -24 -18 -41t-43 -17q-24 0 -41 17t-17 41zM549 0h-532v2l77 54q11 8 11 22v547
q0 14 -11 22l-77 54v2h523v-228h-2l-105 192q-9 17 -28 17h-145q-10 0 -13 -4t-3 -17v-298h98q15 1 27 17l76 96h2v-244h-2l-76 97q-13 16 -28 16h-97v-307q0 -13 3 -17t13 -4h150q24 0 32 13l105 196h2v-228z" />
    <glyph glyph-name="Igrave" unicode="&#xcc;" horiz-adv-x="350" 
d="M244 625v-547q0 -14 12 -22l77 -54v-2h-316v2l77 54q11 8 11 22v547q0 14 -11 22l-77 54v2h316v-2l-77 -54q-12 -9 -12 -22zM17 915h139l84 -163l-2 -2l-221 163v2z" />
    <glyph glyph-name="Iacute" unicode="&#xcd;" horiz-adv-x="350" 
d="M244 625v-547q0 -14 12 -22l77 -54v-2h-316v2l77 54q11 8 11 22v547q0 14 -11 22l-77 54v2h316v-2l-77 -54q-12 -9 -12 -22zM196 915h138v-2l-221 -163l-2 2z" />
    <glyph glyph-name="Icircumflex" unicode="&#xce;" horiz-adv-x="350" 
d="M244 625v-547q0 -14 12 -22l77 -54v-2h-316v2l77 54q11 8 11 22v547q0 14 -11 22l-77 54v2h316v-2l-77 -54q-12 -9 -12 -22zM327 750l-1 -2l-151 72l-151 -72l-1 2l151 173h2z" />
    <glyph glyph-name="Idieresis" unicode="&#xcf;" horiz-adv-x="350" 
d="M244 625v-547q0 -14 12 -22l77 -54v-2h-316v2l77 54q11 8 11 22v547q0 14 -11 22l-77 54v2h316v-2l-77 -54q-12 -9 -12 -22zM25 834q0 25 17.5 42.5t42.5 17.5q24 0 41.5 -17.5t17.5 -42.5q0 -24 -17.5 -41t-41.5 -17q-25 0 -42.5 17t-17.5 41zM205 834q0 25 17 42.5
t41 17.5q26 0 43.5 -17.5t17.5 -42.5q0 -24 -18 -41t-43 -17q-24 0 -41 17t-17 41z" />
    <glyph glyph-name="Eth" unicode="&#xd0;" horiz-adv-x="702" 
d="M24 348v18h89v256q0 18 -11 26l-79 53v2h312q166 0 251.5 -89.5t85.5 -248.5q0 -168 -90 -266.5t-256 -98.5h-303v2l79 53q11 8 11 27v266h-89zM311 684h-41q-10 0 -14 -3.5t-4 -15.5v-299h117v-18h-117v-307q0 -15 4 -18.5t20 -3.5h21q216 0 216 336q0 329 -202 329z
" />
    <glyph glyph-name="Ntilde" unicode="&#xd1;" horiz-adv-x="693" 
d="M18 703h202l350 -560v429q0 17 -14 31l-98 98v2h244v-2l-97 -98q-15 -16 -15 -31v-572h-93l-357 570v-439q0 -17 15 -31l98 -98v-2h-245v2l98 98q14 14 14 31v449q0 21 -11 33l-91 88v2zM412 774q-24 0 -69.5 23.5t-66.5 23.5q-43 0 -62 -48h-2q0 10 2 30q5 41 25 64.5
t52 23.5q24 0 69 -24t66 -24q45 0 63 48h2q0 -12 -2 -32q-5 -39 -25 -62t-52 -23z" />
    <glyph glyph-name="Ograve" unicode="&#xd2;" horiz-adv-x="708" 
d="M355 7q163 0 163 345q0 344 -163 344q-164 0 -164 -344q0 -343 164 -345zM355 713q153 0 237 -94.5t84 -266.5q0 -173 -84 -267.5t-237 -94.5t-238 94.5t-85 267.5q0 172 85 266.5t238 94.5zM196 915h139l84 -163l-2 -2l-221 163v2z" />
    <glyph glyph-name="Oacute" unicode="&#xd3;" horiz-adv-x="708" 
d="M375 915h138v-2l-221 -163l-2 2zM355 7q163 0 163 345q0 344 -163 344q-164 0 -164 -344q0 -343 164 -345zM355 713q153 0 237 -94.5t84 -266.5q0 -173 -84 -267.5t-237 -94.5t-238 94.5t-85 267.5q0 172 85 266.5t238 94.5z" />
    <glyph glyph-name="Ocircumflex" unicode="&#xd4;" horiz-adv-x="708" 
d="M506 750l-1 -2l-151 72l-151 -72l-1 2l151 173h2zM355 7q163 0 163 345q0 344 -163 344q-164 0 -164 -344q0 -343 164 -345zM355 713q153 0 237 -94.5t84 -266.5q0 -173 -84 -267.5t-237 -94.5t-238 94.5t-85 267.5q0 172 85 266.5t238 94.5z" />
    <glyph glyph-name="Otilde" unicode="&#xd5;" horiz-adv-x="708" 
d="M355 7q163 0 163 345q0 344 -163 344q-164 0 -164 -344q0 -343 164 -345zM355 713q153 0 237 -94.5t84 -266.5q0 -173 -84 -267.5t-237 -94.5t-238 94.5t-85 267.5q0 172 85 266.5t238 94.5zM415 774q-24 0 -69.5 23.5t-66.5 23.5q-43 0 -62 -48h-2q0 10 2 30
q5 41 25 64.5t52 23.5q24 0 69 -24t66 -24q45 0 63 48h2q0 -12 -2 -32q-5 -39 -25 -62t-52 -23z" />
    <glyph glyph-name="Odieresis" unicode="&#xd6;" horiz-adv-x="708" 
d="M204 834q0 25 17.5 42.5t42.5 17.5q24 0 41.5 -17.5t17.5 -42.5q0 -24 -17.5 -41t-41.5 -17q-25 0 -42.5 17t-17.5 41zM384 834q0 25 17 42.5t41 17.5q26 0 43.5 -17.5t17.5 -42.5q0 -24 -18 -41t-43 -17q-24 0 -41 17t-17 41zM355 7q163 0 163 345q0 344 -163 344
q-164 0 -164 -344q0 -343 164 -345zM355 713q153 0 237 -94.5t84 -266.5q0 -173 -84 -267.5t-237 -94.5t-238 94.5t-85 267.5q0 172 85 266.5t238 94.5z" />
    <glyph glyph-name="multiply" unicode="&#xd7;" horiz-adv-x="540" 
d="M121 161l-13 13l149 149l-149 149l13 13l149 -149l149 149l13 -13l-149 -149l149 -149l-13 -13l-149 149z" />
    <glyph glyph-name="Oslash" unicode="&#xd8;" horiz-adv-x="708" 
d="M355 713q81 0 143 -27l42 94l17 -8l-42 -94q161 -84 161 -326q0 -173 -84 -267.5t-237 -94.5q-73 0 -133 23l-42 -95l-17 8l41 94q-172 79 -172 332q0 172 85 266.5t238 94.5zM191 352q0 -177 44 -263l235 533q-42 74 -115 74q-164 0 -164 -344zM355 7q163 0 163 345
q0 160 -37 248l-235 -531q40 -62 109 -62z" />
    <glyph glyph-name="Ugrave" unicode="&#xd9;" horiz-adv-x="662" 
d="M342 -10q-135 0 -194.5 57.5t-59.5 172.5v403q0 13 -12 22l-70 56v2h307v-2l-75 -56q-11 -8 -11 -22v-386q0 -215 161 -215q76 0 118 58.5t42 169.5v322q0 18 -15 31l-97 98v2h243v-2l-97 -98q-14 -13 -14 -31v-321q0 -261 -226 -261zM210 915h139l84 -163l-2 -2
l-221 163v2z" />
    <glyph glyph-name="Uacute" unicode="&#xda;" horiz-adv-x="662" 
d="M389 915h138v-2l-221 -163l-2 2zM342 -10q-135 0 -194.5 57.5t-59.5 172.5v403q0 13 -12 22l-70 56v2h307v-2l-75 -56q-11 -8 -11 -22v-386q0 -215 161 -215q76 0 118 58.5t42 169.5v322q0 18 -15 31l-97 98v2h243v-2l-97 -98q-14 -13 -14 -31v-321q0 -261 -226 -261z
" />
    <glyph glyph-name="Ucircumflex" unicode="&#xdb;" horiz-adv-x="662" 
d="M520 750l-1 -2l-151 72l-151 -72l-1 2l151 173h2zM342 -10q-135 0 -194.5 57.5t-59.5 172.5v403q0 13 -12 22l-70 56v2h307v-2l-75 -56q-11 -8 -11 -22v-386q0 -215 161 -215q76 0 118 58.5t42 169.5v322q0 18 -15 31l-97 98v2h243v-2l-97 -98q-14 -13 -14 -31v-321
q0 -261 -226 -261z" />
    <glyph glyph-name="Udieresis" unicode="&#xdc;" horiz-adv-x="662" 
d="M218 834q0 25 17.5 42.5t42.5 17.5q24 0 41.5 -17.5t17.5 -42.5q0 -24 -17.5 -41t-41.5 -17q-25 0 -42.5 17t-17.5 41zM398 834q0 25 17 42.5t41 17.5q26 0 43.5 -17.5t17.5 -42.5q0 -24 -18 -41t-43 -17q-24 0 -41 17t-17 41zM342 -10q-135 0 -194.5 57.5t-59.5 172.5
v403q0 13 -12 22l-70 56v2h307v-2l-75 -56q-11 -8 -11 -22v-386q0 -215 161 -215q76 0 118 58.5t42 169.5v322q0 18 -15 31l-97 98v2h243v-2l-97 -98q-14 -13 -14 -31v-321q0 -261 -226 -261z" />
    <glyph glyph-name="Yacute" unicode="&#xdd;" horiz-adv-x="616" 
d="M382 278v-197q0 -10 2 -13.5t10 -8.5l83 -57v-2h-329v2l84 57q11 8 11 22v183q0 16 -7 28l-171 317q-9 17 -27 37l-51 55v2h294v-2l-62 -59q-10 -10 -4 -21l157 -298l131 256q8 15 -3 27l-86 95v2h238v-2l-100 -93q-19 -17 -31 -38l-131 -255q-8 -15 -8 -37zM360 915h138
v-2l-221 -163l-2 2z" />
    <glyph glyph-name="Thorn" unicode="&#xde;" horiz-adv-x="616" 
d="M595 372q0 -105 -76.5 -162.5t-197.5 -57.5h-77v-69q0 -15 12 -23l100 -58v-2h-339v2l77 54q11 8 11 23v546q0 14 -11 22l-77 54v2h227v-118h95q114 0 185 -52t71 -161zM244 171h60q63 0 104 50t41 149q0 96 -39 146t-105 50h-61v-395z" />
    <glyph glyph-name="germandbls" unicode="&#xdf;" horiz-adv-x="608" 
d="M596 149q0 -74 -55 -115.5t-136 -41.5q-89 0 -166 34l55 140h2l59 -143q4 -10 19 -13q10 -2 33 -2q39 0 61 25.5t22 61.5q0 29 -18.5 48.5t-53.5 38.5l-74 38q-86 44 -86 108q0 31 15 52.5t51 50.5l39 33q50 41 50 126q0 47 -27.5 77t-73.5 30q-98 0 -98 -153v-544h-195
v2l59 43q10 7 10 22v405h-65v18h65q1 123 56.5 173t165.5 50q79 0 135.5 -32.5t56.5 -89.5q0 -55 -73 -102q-15 -8 -53 -36q-32 -25 -32 -54q0 -42 74 -78l77 -38q49 -23 75 -54.5t26 -79.5z" />
    <glyph glyph-name="agrave" unicode="&#xe0;" horiz-adv-x="487" 
d="M297 246l2 107v4q0 57 -23 90.5t-69 33.5q-16 0 -20.5 -2t-9.5 -11l-70 -141h-2l-53 136q89 35 183 35q98 0 140 -41q47 -49 47 -161v-18l-6 -159q-3 -63 33 -63q22 0 30 24h2q1 -16 -7 -34q-10 -24 -32.5 -39t-53.5 -15q-40 0 -65.5 26t-26.5 76q-15 -47 -51.5 -74.5
t-84.5 -27.5q-56 0 -94.5 36t-38.5 99q0 70 49.5 109.5t115.5 39.5q65 0 105 -30zM248 247q-45 0 -71 -30t-26 -75q0 -40 19.5 -63t49.5 -23q46 0 75 47l2 136q-21 8 -49 8zM79 703h139l84 -163l-2 -2l-221 163v2z" />
    <glyph glyph-name="aacute" unicode="&#xe1;" horiz-adv-x="487" 
d="M297 246l2 107v4q0 57 -23 90.5t-69 33.5q-16 0 -20.5 -2t-9.5 -11l-70 -141h-2l-53 136q89 35 183 35q98 0 140 -41q47 -49 47 -161v-18l-6 -159q-3 -63 33 -63q22 0 30 24h2q1 -16 -7 -34q-10 -24 -32.5 -39t-53.5 -15q-40 0 -65.5 26t-26.5 76q-15 -47 -51.5 -74.5
t-84.5 -27.5q-56 0 -94.5 36t-38.5 99q0 70 49.5 109.5t115.5 39.5q65 0 105 -30zM248 247q-45 0 -71 -30t-26 -75q0 -40 19.5 -63t49.5 -23q46 0 75 47l2 136q-21 8 -49 8zM259 703h138v-2l-221 -163l-2 2z" />
    <glyph glyph-name="acircumflex" unicode="&#xe2;" horiz-adv-x="487" 
d="M297 246l2 107v4q0 57 -23 90.5t-69 33.5q-16 0 -20.5 -2t-9.5 -11l-70 -141h-2l-53 136q89 35 183 35q98 0 140 -41q47 -49 47 -161v-18l-6 -159q-3 -63 33 -63q22 0 30 24h2q1 -16 -7 -34q-10 -24 -32.5 -39t-53.5 -15q-40 0 -65.5 26t-26.5 76q-15 -47 -51.5 -74.5
t-84.5 -27.5q-56 0 -94.5 36t-38.5 99q0 70 49.5 109.5t115.5 39.5q65 0 105 -30zM248 247q-45 0 -71 -30t-26 -75q0 -40 19.5 -63t49.5 -23q46 0 75 47l2 136q-21 8 -49 8zM389 538l-1 -2l-151 72l-151 -72l-1 2l151 173h2z" />
    <glyph glyph-name="atilde" unicode="&#xe3;" horiz-adv-x="487" 
d="M297 246l2 107v4q0 57 -23 90.5t-69 33.5q-16 0 -20.5 -2t-9.5 -11l-70 -141h-2l-53 136q89 35 183 35q98 0 140 -41q47 -49 47 -161v-18l-6 -159q-3 -63 33 -63q22 0 30 24h2q1 -16 -7 -34q-10 -24 -32.5 -39t-53.5 -15q-40 0 -65.5 26t-26.5 76q-15 -47 -51.5 -74.5
t-84.5 -27.5q-56 0 -94.5 36t-38.5 99q0 70 49.5 109.5t115.5 39.5q65 0 105 -30zM248 247q-45 0 -71 -30t-26 -75q0 -40 19.5 -63t49.5 -23q46 0 75 47l2 136q-21 8 -49 8zM299 562q-24 0 -69.5 23.5t-66.5 23.5q-43 0 -62 -48h-2q0 10 2 30q5 41 25 64.5t52 23.5
q24 0 69 -24t66 -24q45 0 63 48h2q0 -12 -2 -32q-5 -39 -25 -62t-52 -23z" />
    <glyph glyph-name="adieresis" unicode="&#xe4;" horiz-adv-x="487" 
d="M297 246l2 107v4q0 57 -23 90.5t-69 33.5q-16 0 -20.5 -2t-9.5 -11l-70 -141h-2l-53 136q89 35 183 35q98 0 140 -41q47 -49 47 -161v-18l-6 -159q-3 -63 33 -63q22 0 30 24h2q1 -16 -7 -34q-10 -24 -32.5 -39t-53.5 -15q-40 0 -65.5 26t-26.5 76q-15 -47 -51.5 -74.5
t-84.5 -27.5q-56 0 -94.5 36t-38.5 99q0 70 49.5 109.5t115.5 39.5q65 0 105 -30zM248 247q-45 0 -71 -30t-26 -75q0 -40 19.5 -63t49.5 -23q46 0 75 47l2 136q-21 8 -49 8zM87 622q0 25 17.5 42.5t42.5 17.5q24 0 41.5 -17.5t17.5 -42.5q0 -24 -17.5 -41t-41.5 -17
q-25 0 -42.5 17t-17.5 41zM267 622q0 25 17 42.5t41 17.5q26 0 43.5 -17.5t17.5 -42.5q0 -24 -18 -41t-43 -17q-24 0 -41 17t-17 41z" />
    <glyph glyph-name="aring" unicode="&#xe5;" horiz-adv-x="487" 
d="M297 246l2 107v4q0 57 -23 90.5t-69 33.5q-16 0 -20.5 -2t-9.5 -11l-70 -141h-2l-53 136q89 35 183 35q98 0 140 -41q47 -49 47 -161v-18l-6 -159q-3 -63 33 -63q22 0 30 24h2q1 -16 -7 -34q-10 -24 -32.5 -39t-53.5 -15q-40 0 -65.5 26t-26.5 76q-15 -47 -51.5 -74.5
t-84.5 -27.5q-56 0 -94.5 36t-38.5 99q0 70 49.5 109.5t115.5 39.5q65 0 105 -30zM248 247q-45 0 -71 -30t-26 -75q0 -40 19.5 -63t49.5 -23q46 0 75 47l2 136q-21 8 -49 8zM325 626q0 -37 -25.5 -61.5t-62.5 -24.5q-36 0 -61.5 25t-25.5 61q0 37 25 62t62 25t62.5 -25
t25.5 -62zM305 626q0 29 -19.5 48.5t-48.5 19.5t-48 -19.5t-19 -48.5q0 -28 19.5 -47.5t47.5 -19.5q29 0 48.5 19t19.5 48z" />
    <glyph glyph-name="ae" unicode="&#xe6;" horiz-adv-x="756" 
d="M188 276q65 0 109 -30q0 3 1 54t1 55q0 58 -23.5 91.5t-69.5 33.5q-15 0 -20 -2.5t-9 -10.5l-70 -139h-2l-56 139q90 31 186 31q85 0 127 -41l15 -19q60 60 149 60q85 0 143.5 -48t58.5 -147q0 -15 -1 -25h-302v-17q0 -95 41 -145.5t104 -50.5q108 0 155 109h2
q-34 -182 -206 -182q-61 0 -112 27.5t-81 81.5q-14 -46 -56 -77.5t-103 -31.5t-101.5 37t-40.5 102q0 68 49.5 106.5t111.5 38.5zM524 482q-92 0 -99 -186h180q1 98 -18.5 142t-62.5 44zM230 55q59 0 95 52q-28 54 -28 132q-26 8 -48 8q-46 0 -72 -29t-26 -73
q0 -41 21.5 -65.5t57.5 -24.5z" />
    <glyph glyph-name="ccedilla" unicode="&#xe7;" horiz-adv-x="454" 
d="M298 66q88 0 133 99h2q-14 -80 -62 -126.5t-129 -46.5h-2l-8 -54q50 10 86.5 -14.5t36.5 -65.5t-30 -67.5t-82 -26.5q-48 0 -81 25.5t-36 63.5l2 1q8 -27 31.5 -41.5t48.5 -14.5q27 0 46 15.5t19 41.5q0 27 -18.5 42.5t-47.5 15.5q-21 0 -37 -6l-1 2l64 83
q-88 3 -147.5 66t-59.5 182q0 132 72.5 195t175.5 63q77 0 156 -28l-54 -158h-2l-67 157q-7 13 -19 13h-10q-59 0 -89.5 -52t-30.5 -151q0 -110 39.5 -161.5t100.5 -51.5z" />
    <glyph glyph-name="egrave" unicode="&#xe8;" horiz-adv-x="486" 
d="M456 278h-300v-16q0 -96 40.5 -146.5t103.5 -50.5q108 0 155 109h2q-34 -182 -206 -182q-95 0 -159.5 63.5t-64.5 185.5q0 68 19.5 119t53 80.5t73 43.5t83.5 14q85 0 143.5 -48t58.5 -147q0 -9 -2 -25zM254 482q-90 0 -98 -186h179q1 8 1 19q0 167 -82 167zM99 703h139
l84 -163l-2 -2l-221 163v2z" />
    <glyph glyph-name="eacute" unicode="&#xe9;" horiz-adv-x="486" 
d="M279 703h138v-2l-221 -163l-2 2zM456 278h-300v-16q0 -96 40.5 -146.5t103.5 -50.5q108 0 155 109h2q-34 -182 -206 -182q-95 0 -159.5 63.5t-64.5 185.5q0 68 19.5 119t53 80.5t73 43.5t83.5 14q85 0 143.5 -48t58.5 -147q0 -9 -2 -25zM254 482q-90 0 -98 -186h179
q1 8 1 19q0 167 -82 167z" />
    <glyph glyph-name="ecircumflex" unicode="&#xea;" horiz-adv-x="486" 
d="M409 538l-1 -2l-151 72l-151 -72l-1 2l151 173h2zM456 278h-300v-16q0 -96 40.5 -146.5t103.5 -50.5q108 0 155 109h2q-34 -182 -206 -182q-95 0 -159.5 63.5t-64.5 185.5q0 68 19.5 119t53 80.5t73 43.5t83.5 14q85 0 143.5 -48t58.5 -147q0 -9 -2 -25zM254 482
q-90 0 -98 -186h179q1 8 1 19q0 167 -82 167z" />
    <glyph glyph-name="edieresis" unicode="&#xeb;" horiz-adv-x="486" 
d="M107 622q0 25 17.5 42.5t42.5 17.5q24 0 41.5 -17.5t17.5 -42.5q0 -24 -17.5 -41t-41.5 -17q-25 0 -42.5 17t-17.5 41zM287 622q0 25 17 42.5t41 17.5q26 0 43.5 -17.5t17.5 -42.5q0 -24 -18 -41t-43 -17q-24 0 -41 17t-17 41zM456 278h-300v-16q0 -96 40.5 -146.5
t103.5 -50.5q108 0 155 109h2q-34 -182 -206 -182q-95 0 -159.5 63.5t-64.5 185.5q0 68 19.5 119t53 80.5t73 43.5t83.5 14q85 0 143.5 -48t58.5 -147q0 -9 -2 -25zM254 482q-90 0 -98 -186h179q1 8 1 19q0 167 -82 167z" />
    <glyph glyph-name="igrave" unicode="&#xec;" horiz-adv-x="297" 
d="M218 490v-423q0 -14 11 -22l59 -43v-2h-265v2l59 43q10 7 10 22v348q0 15 -10 23l-59 50v2h195zM-8 703h139l84 -163l-2 -2l-221 163v2z" />
    <glyph glyph-name="iacute" unicode="&#xed;" horiz-adv-x="297" 
d="M171 703h138v-2l-221 -163l-2 2zM218 490v-423q0 -14 11 -22l59 -43v-2h-265v2l59 43q10 7 10 22v348q0 15 -10 23l-59 50v2h195z" />
    <glyph glyph-name="icircumflex" unicode="&#xee;" horiz-adv-x="297" 
d="M292 538l-1 -2l-151 72l-151 -72l-1 2l151 173h2zM218 490v-423q0 -14 11 -22l59 -43v-2h-265v2l59 43q10 7 10 22v348q0 15 -10 23l-59 50v2h195z" />
    <glyph glyph-name="idieresis" unicode="&#xef;" horiz-adv-x="297" 
d="M-9 622q0 25 17.5 42.5t42.5 17.5q24 0 41.5 -17.5t17.5 -42.5q0 -24 -17.5 -41t-41.5 -17q-25 0 -42.5 17t-17.5 41zM171 622q0 25 17 42.5t41 17.5q26 0 43.5 -17.5t17.5 -42.5q0 -24 -18 -41t-43 -17q-24 0 -41 17t-17 41zM218 490v-423q0 -14 11 -22l59 -43v-2h-265
v2l59 43q10 7 10 22v348q0 15 -10 23l-59 50v2h195z" />
    <glyph glyph-name="eth" unicode="&#xf0;" horiz-adv-x="528" 
d="M126 711v2q4 0 18 -2q100 -13 176 -62l118 67l8 -16l-109 -62q80 -58 121 -152t41 -205q0 -289 -241 -289q-99 0 -164.5 66.5t-65.5 180.5q0 115 59.5 183.5t144.5 68.5q81 0 120 -63q-22 106 -76 176l-123 -70l-8 16l120 68q-54 62 -139 93zM367 266q0 79 -12 145
q-34 43 -82 43q-52 0 -78.5 -63.5t-26.5 -157.5q0 -101 24.5 -162.5t68.5 -61.5q106 0 106 257z" />
    <glyph glyph-name="ntilde" unicode="&#xf1;" horiz-adv-x="587" 
d="M390 266q0 84 -18.5 123.5t-63.5 39.5q-55 0 -91 -61v-301q0 -13 11 -22l59 -43v-2h-265v2l59 43q10 8 10 22v348q0 15 -10 23l-59 50v2h195v-114q37 122 153 122q146 0 146 -204q0 -67 -2 -227q0 -13 11 -22l59 -43v-2h-265v2l56 43q12 8 12 21q0 1 1.5 87.5t1.5 112.5z
M359 562q-24 0 -69.5 23.5t-66.5 23.5q-43 0 -62 -48h-2q0 10 2 30q5 41 25 64.5t52 23.5q24 0 69 -24t66 -24q45 0 63 48h2q0 -12 -2 -32q-5 -39 -25 -62t-52 -23z" />
    <glyph glyph-name="ograve" unicode="&#xf2;" horiz-adv-x="536" 
d="M268 482q-48 0 -73 -53t-25 -183q0 -131 25 -184.5t73 -53.5t73.5 53.5t25.5 183.5t-25.5 183.5t-73.5 53.5zM268 -8q-111 0 -176 66t-65 188q0 121 65 186.5t176 65.5q112 0 176.5 -65.5t64.5 -187.5q0 -121 -65 -187t-176 -66zM109 703h139l84 -163l-2 -2l-221 163v2z
" />
    <glyph glyph-name="oacute" unicode="&#xf3;" horiz-adv-x="536" 
d="M289 703h138v-2l-221 -163l-2 2zM268 482q-48 0 -73 -53t-25 -183q0 -131 25 -184.5t73 -53.5t73.5 53.5t25.5 183.5t-25.5 183.5t-73.5 53.5zM268 -8q-111 0 -176 66t-65 188q0 121 65 186.5t176 65.5q112 0 176.5 -65.5t64.5 -187.5q0 -121 -65 -187t-176 -66z" />
    <glyph glyph-name="ocircumflex" unicode="&#xf4;" horiz-adv-x="536" 
d="M419 538l-1 -2l-151 72l-151 -72l-1 2l151 173h2zM268 482q-48 0 -73 -53t-25 -183q0 -131 25 -184.5t73 -53.5t73.5 53.5t25.5 183.5t-25.5 183.5t-73.5 53.5zM268 -8q-111 0 -176 66t-65 188q0 121 65 186.5t176 65.5q112 0 176.5 -65.5t64.5 -187.5q0 -121 -65 -187
t-176 -66z" />
    <glyph glyph-name="otilde" unicode="&#xf5;" horiz-adv-x="536" 
d="M268 482q-48 0 -73 -53t-25 -183q0 -131 25 -184.5t73 -53.5t73.5 53.5t25.5 183.5t-25.5 183.5t-73.5 53.5zM268 -8q-111 0 -176 66t-65 188q0 121 65 186.5t176 65.5q112 0 176.5 -65.5t64.5 -187.5q0 -121 -65 -187t-176 -66zM329 562q-24 0 -69.5 23.5t-66.5 23.5
q-43 0 -62 -48h-2q0 10 2 30q5 41 25 64.5t52 23.5q24 0 69 -24t66 -24q45 0 63 48h2q0 -12 -2 -32q-5 -39 -25 -62t-52 -23z" />
    <glyph glyph-name="odieresis" unicode="&#xf6;" horiz-adv-x="536" 
d="M118 622q0 25 17.5 42.5t42.5 17.5q24 0 41.5 -17.5t17.5 -42.5q0 -24 -17.5 -41t-41.5 -17q-25 0 -42.5 17t-17.5 41zM298 622q0 25 17 42.5t41 17.5q26 0 43.5 -17.5t17.5 -42.5q0 -24 -18 -41t-43 -17q-24 0 -41 17t-17 41zM268 482q-48 0 -73 -53t-25 -183
q0 -131 25 -184.5t73 -53.5t73.5 53.5t25.5 183.5t-25.5 183.5t-73.5 53.5zM268 -8q-111 0 -176 66t-65 188q0 121 65 186.5t176 65.5q112 0 176.5 -65.5t64.5 -187.5q0 -121 -65 -187t-176 -66z" />
    <glyph glyph-name="divide" unicode="&#xf7;" horiz-adv-x="540" 
d="M50 307v18h440v-18h-440zM202 473q0 29 19.5 47.5t47.5 18.5q29 0 48 -18.5t19 -47.5q0 -28 -19 -46.5t-48 -18.5q-28 0 -47.5 18.5t-19.5 46.5zM202 153q0 29 19.5 47.5t47.5 18.5q29 0 48 -18.5t19 -47.5q0 -28 -19 -46.5t-48 -18.5q-28 0 -47.5 18.5t-19.5 46.5z" />
    <glyph glyph-name="oslash" unicode="&#xf8;" horiz-adv-x="536" 
d="M416 555l-35 -78q129 -55 129 -232q0 -125 -64.5 -189t-177.5 -64q-50 0 -94 14l-39 -88l-18 9l38 86q-128 54 -128 233q0 125 64.5 188.5t176.5 63.5q51 0 95 -14l35 78zM268 482q-49 0 -73.5 -52.5t-24.5 -183.5q0 -110 16 -162l154 348q-24 50 -72 50zM366 245
q0 102 -16 160l-154 -348q23 -48 72 -48t73.5 52.5t24.5 183.5z" />
    <glyph glyph-name="ugrave" unicode="&#xf9;" horiz-adv-x="565" 
d="M487 490v-415q0 -15 10 -23l59 -50v-2h-196v111q-42 -119 -148 -119q-143 0 -143 203q0 60 2 220q0 15 -10 24l-60 49v2h196q0 -1 -0.5 -62t-1 -126t-0.5 -77q0 -83 18 -123.5t61 -40.5q50 0 86 61v293q0 15 -10 23l-59 50v2h196zM109 703h139l84 -163l-2 -2l-221 163v2z
" />
    <glyph glyph-name="uacute" unicode="&#xfa;" horiz-adv-x="565" 
d="M289 703h138v-2l-221 -163l-2 2zM487 490v-415q0 -15 10 -23l59 -50v-2h-196v111q-42 -119 -148 -119q-143 0 -143 203q0 60 2 220q0 15 -10 24l-60 49v2h196q0 -1 -0.5 -62t-1 -126t-0.5 -77q0 -83 18 -123.5t61 -40.5q50 0 86 61v293q0 15 -10 23l-59 50v2h196z" />
    <glyph glyph-name="ucircumflex" unicode="&#xfb;" horiz-adv-x="565" 
d="M419 538l-1 -2l-151 72l-151 -72l-1 2l151 173h2zM487 490v-415q0 -15 10 -23l59 -50v-2h-196v111q-42 -119 -148 -119q-143 0 -143 203q0 60 2 220q0 15 -10 24l-60 49v2h196q0 -1 -0.5 -62t-1 -126t-0.5 -77q0 -83 18 -123.5t61 -40.5q50 0 86 61v293q0 15 -10 23
l-59 50v2h196z" />
    <glyph glyph-name="udieresis" unicode="&#xfc;" horiz-adv-x="565" 
d="M117 622q0 25 17.5 42.5t42.5 17.5q24 0 41.5 -17.5t17.5 -42.5q0 -24 -17.5 -41t-41.5 -17q-25 0 -42.5 17t-17.5 41zM297 622q0 25 17 42.5t41 17.5q26 0 43.5 -17.5t17.5 -42.5q0 -24 -18 -41t-43 -17q-24 0 -41 17t-17 41zM487 490v-415q0 -15 10 -23l59 -50v-2h-196
v111q-42 -119 -148 -119q-143 0 -143 203q0 60 2 220q0 15 -10 24l-60 49v2h196q0 -1 -0.5 -62t-1 -126t-0.5 -77q0 -83 18 -123.5t61 -40.5q50 0 86 61v293q0 15 -10 23l-59 50v2h196z" />
    <glyph glyph-name="yacute" unicode="&#xfd;" horiz-adv-x="454" 
d="M56 -236q-23 0 -45 10l36 162h2l76 -99q7 -10 13 -10q5 0 12 10q27 37 63 119l-180 459q-5 13 -18 34l-25 39v2h225v-2l-44 -49q-9 -10 -3 -24l111 -296l95 242q7 18 -2 32l-60 95v2h162v-2l-60 -88q-12 -18 -22 -42l-150 -385q-28 -71 -67 -132q-48 -77 -119 -77z
M274 703h138v-2l-221 -163l-2 2z" />
    <glyph glyph-name="thorn" unicode="&#xfe;" horiz-adv-x="551" 
d="M342 498q83 0 131 -64t48 -176q0 -120 -53 -193t-144 -73q-101 0 -134 85v-229q0 -16 14 -24l83 -50v-2h-293v2l59 43q11 7 11 22v789q0 14 -11 23l-59 50v2l196 9v-333q44 119 152 119zM282 429q-57 0 -92 -60v-282q28 -46 82 -46q53 0 83.5 53.5t30.5 156.5
q0 96 -26 137t-78 41z" />
    <glyph glyph-name="ydieresis" unicode="&#xff;" horiz-adv-x="454" 
d="M56 -236q-23 0 -45 10l36 162h2l76 -99q7 -10 13 -10q5 0 12 10q27 37 63 119l-180 459q-5 13 -18 34l-25 39v2h225v-2l-44 -49q-9 -10 -3 -24l111 -296l95 242q7 18 -2 32l-60 95v2h162v-2l-60 -88q-12 -18 -22 -42l-150 -385q-28 -71 -67 -132q-48 -77 -119 -77z
M103 622q0 25 17.5 42.5t42.5 17.5q24 0 41.5 -17.5t17.5 -42.5q0 -24 -17.5 -41t-41.5 -17q-25 0 -42.5 17t-17.5 41zM283 622q0 25 17 42.5t41 17.5q26 0 43.5 -17.5t17.5 -42.5q0 -24 -18 -41t-43 -17q-24 0 -41 17t-17 41z" />
    <glyph glyph-name="Amacron" unicode="&#x100;" horiz-adv-x="637" 
d="M575 95q8 -24 22 -40l42 -53v-2h-270v2l60 60q9 9 4 26l-52 158h-229l-38 -115q-3 -11 -2 -16t10 -14l91 -99v-2h-230v2l87 95q19 21 25 39l154 465q5 15 3.5 20.5t-10.5 15.5l-57 64v2h191zM268 594l-110 -329h217zM432 804h-262v18h262v-18z" />
    <glyph glyph-name="amacron" unicode="&#x101;" horiz-adv-x="487" 
d="M297 246l2 107v4q0 57 -23 90.5t-69 33.5q-16 0 -20.5 -2t-9.5 -11l-70 -141h-2l-53 136q89 35 183 35q98 0 140 -41q47 -49 47 -161v-18l-6 -159q-3 -63 33 -63q22 0 30 24h2q1 -16 -7 -34q-10 -24 -32.5 -39t-53.5 -15q-40 0 -65.5 26t-26.5 76q-15 -47 -51.5 -74.5
t-84.5 -27.5q-56 0 -94.5 36t-38.5 99q0 70 49.5 109.5t115.5 39.5q65 0 105 -30zM248 247q-45 0 -71 -30t-26 -75q0 -40 19.5 -63t49.5 -23q46 0 75 47l2 136q-21 8 -49 8zM366 592h-262v18h262v-18z" />
    <glyph glyph-name="Abreve" unicode="&#x102;" horiz-adv-x="637" 
d="M575 95q8 -24 22 -40l42 -53v-2h-270v2l60 60q9 9 4 26l-52 158h-229l-38 -115q-3 -11 -2 -16t10 -14l91 -99v-2h-230v2l87 95q19 21 25 39l154 465q5 15 3.5 20.5t-10.5 15.5l-57 64v2h191zM268 594l-110 -329h217zM424 878q0 -62 -36.5 -93.5t-88.5 -31.5
q-51 0 -87.5 31.5t-36.5 93.5q0 20 4 40h2q2 -46 34.5 -71.5t83.5 -25.5t84 25.5t35 71.5h2q4 -20 4 -40z" />
    <glyph glyph-name="abreve" unicode="&#x103;" horiz-adv-x="487" 
d="M297 246l2 107v4q0 57 -23 90.5t-69 33.5q-16 0 -20.5 -2t-9.5 -11l-70 -141h-2l-53 136q89 35 183 35q98 0 140 -41q47 -49 47 -161v-18l-6 -159q-3 -63 33 -63q22 0 30 24h2q1 -16 -7 -34q-10 -24 -32.5 -39t-53.5 -15q-40 0 -65.5 26t-26.5 76q-15 -47 -51.5 -74.5
t-84.5 -27.5q-56 0 -94.5 36t-38.5 99q0 70 49.5 109.5t115.5 39.5q65 0 105 -30zM248 247q-45 0 -71 -30t-26 -75q0 -40 19.5 -63t49.5 -23q46 0 75 47l2 136q-21 8 -49 8zM358 666q0 -62 -36.5 -93.5t-88.5 -31.5q-51 0 -87.5 31.5t-36.5 93.5q0 20 4 40h2
q2 -46 34.5 -71.5t83.5 -25.5t84 25.5t35 71.5h2q4 -20 4 -40z" />
    <glyph glyph-name="Aogonek" unicode="&#x104;" horiz-adv-x="637" 
d="M575 95q8 -24 22 -40l42 -53v-2h-257q-68 -36 -68 -106q0 -37 21 -57t53 -20q47 0 76 40l2 -1q-35 -92 -118 -92q-41 0 -72.5 27.5t-31.5 74.5q0 42 34 80t91 56l60 60q9 9 4 26l-52 158h-229l-38 -115q-5 -16 8 -30l91 -99v-2h-230v2l87 95q19 21 25 39l154 465
q5 15 3.5 20.5t-10.5 15.5l-57 64v2h191zM268 594l-110 -329h217z" />
    <glyph glyph-name="aogonek" unicode="&#x105;" horiz-adv-x="487" 
d="M404 -7q-66 -32 -66 -99q0 -37 21 -57t53 -20q48 0 75 40l2 -1q-33 -92 -117 -92q-41 0 -72.5 27.5t-31.5 74.5q0 42 33.5 75.5t91.5 50.5h-5q-40 0 -65.5 26t-26.5 76q-15 -47 -51.5 -74.5t-84.5 -27.5q-56 0 -94.5 36t-38.5 99q0 70 49.5 109.5t115.5 39.5
q65 0 105 -30l2 107v4q0 57 -23 90.5t-69 33.5q-16 0 -20.5 -2t-9.5 -11l-70 -141h-2l-53 136q89 35 183 35q98 0 140 -41q47 -49 47 -161v-18l-6 -159q-3 -63 33 -63q22 0 30 24h2q1 -16 -7 -34q-19 -46 -70 -53zM248 247q-45 0 -71 -30t-26 -75q0 -40 19.5 -63t49.5 -23
q46 0 75 47l2 136q-21 8 -49 8z" />
    <glyph glyph-name="Cacute" unicode="&#x106;" horiz-adv-x="612" 
d="M383 915h138v-2l-221 -163l-2 2zM31 349q0 166 87.5 265t244.5 99q103 0 198 -21v-226h-2l-124 210q-7 11 -12.5 14t-19.5 5q-10 1 -29 1q-184 0 -184 -345q0 -344 188 -344q18 0 25 1q21 2 31 17l125 217h2v-235q-85 -17 -188 -17q-172 0 -257 96t-85 263z" />
    <glyph glyph-name="cacute" unicode="&#x107;" horiz-adv-x="454" 
d="M287 703h138v-2l-221 -163l-2 2zM242 -8q-90 0 -153 63.5t-63 184.5q0 132 72.5 195t175.5 63q77 0 156 -28l-54 -158h-2l-67 157q-7 13 -19 13h-10q-59 0 -89.5 -52t-30.5 -151q0 -110 39.5 -161.5t100.5 -51.5q88 0 133 99h2q-14 -80 -62 -126.5t-129 -46.5z" />
    <glyph glyph-name="Ccircumflex" unicode="&#x108;" horiz-adv-x="612" 
d="M513 750l-1 -2l-151 72l-151 -72l-1 2l151 173h2zM31 349q0 166 87.5 265t244.5 99q103 0 198 -21v-226h-2l-124 210q-7 11 -12.5 14t-19.5 5q-10 1 -29 1q-184 0 -184 -345q0 -344 188 -344q18 0 25 1q21 2 31 17l125 217h2v-235q-85 -17 -188 -17q-172 0 -257 96
t-85 263z" />
    <glyph glyph-name="ccircumflex" unicode="&#x109;" horiz-adv-x="454" 
d="M418 538l-1 -2l-151 72l-151 -72l-1 2l151 173h2zM242 -8q-90 0 -153 63.5t-63 184.5q0 132 72.5 195t175.5 63q77 0 156 -28l-54 -158h-2l-67 157q-7 13 -19 13h-10q-59 0 -89.5 -52t-30.5 -151q0 -110 39.5 -161.5t100.5 -51.5q88 0 133 99h2q-14 -80 -62 -126.5
t-129 -46.5z" />
    <glyph glyph-name="Cdotaccent" unicode="&#x10a;" horiz-adv-x="612" 
d="M31 349q0 166 87.5 265t244.5 99q103 0 198 -21v-226h-2l-124 210q-7 11 -12.5 14t-19.5 5q-10 1 -29 1q-184 0 -184 -345q0 -344 188 -344q18 0 25 1q21 2 31 17l125 217h2v-235q-85 -17 -188 -17q-172 0 -257 96t-85 263zM294 831q0 29 19.5 47.5t47.5 18.5
q29 0 48 -18.5t19 -47.5q0 -28 -19 -46.5t-48 -18.5q-28 0 -47.5 18.5t-19.5 46.5z" />
    <glyph glyph-name="cdotaccent" unicode="&#x10b;" horiz-adv-x="454" 
d="M242 -8q-90 0 -153 63.5t-63 184.5q0 132 72.5 195t175.5 63q77 0 156 -28l-54 -158h-2l-67 157q-7 13 -19 13h-10q-59 0 -89.5 -52t-30.5 -151q0 -110 39.5 -161.5t100.5 -51.5q88 0 133 99h2q-14 -80 -62 -126.5t-129 -46.5zM198 619q0 29 19.5 47.5t47.5 18.5
q29 0 48 -18.5t19 -47.5q0 -28 -19 -46.5t-48 -18.5q-28 0 -47.5 18.5t-19.5 46.5z" />
    <glyph glyph-name="Ccaron" unicode="&#x10c;" horiz-adv-x="612" 
d="M361 845l151 72l1 -1l-151 -174h-2l-151 174l1 1zM31 349q0 166 87.5 265t244.5 99q103 0 198 -21v-226h-2l-124 210q-7 11 -12.5 14t-19.5 5q-10 1 -29 1q-184 0 -184 -345q0 -344 188 -344q18 0 25 1q21 2 31 17l125 217h2v-235q-85 -17 -188 -17q-172 0 -257 96
t-85 263z" />
    <glyph glyph-name="ccaron" unicode="&#x10d;" horiz-adv-x="454" 
d="M266 634l151 72l1 -1l-151 -174h-2l-151 174l1 1zM242 -8q-90 0 -153 63.5t-63 184.5q0 132 72.5 195t175.5 63q77 0 156 -28l-54 -158h-2l-67 157q-7 13 -19 13h-10q-59 0 -89.5 -52t-30.5 -151q0 -110 39.5 -161.5t100.5 -51.5q88 0 133 99h2q-14 -80 -62 -126.5
t-129 -46.5z" />
    <glyph glyph-name="Dcaron" unicode="&#x10e;" horiz-adv-x="694" 
d="M326 845l151 72l1 -1l-151 -174h-2l-151 174l1 1zM17 0v2l77 54q11 8 11 22v547q0 14 -11 22l-77 54v2h310q165 0 251 -90t86 -249q0 -170 -90 -267t-256 -97h-301zM268 19h21q108 0 162.5 80.5t54.5 255.5q0 329 -202 329h-44q-9 0 -12.5 -3.5t-3.5 -15.5v-624
q0 -15 4 -18.5t20 -3.5z" />
    <glyph glyph-name="dcaron" unicode="&#x10f;" horiz-adv-x="583" 
d="M538 510l9 193h102l-109 -193h-2zM486 726v-651q0 -15 10 -23l60 -50v-2h-196v98q-42 -106 -145 -106q-83 0 -135 68t-52 182q0 115 58 185.5t145 70.5q90 0 129 -84v221q0 15 -10 23l-59 43v2zM275 53q46 0 85 54v297q-33 46 -82 46q-50 0 -82.5 -49t-32.5 -150
q0 -100 31.5 -149t80.5 -49z" />
    <glyph glyph-name="Dcroat" unicode="&#x110;" horiz-adv-x="700" 
d="M23 348v18h89v256q0 18 -11 26l-79 53v2h312q166 0 251.5 -89.5t85.5 -248.5q0 -168 -90 -266.5t-256 -98.5h-303v2l79 53q11 8 11 27v266h-89zM310 684h-41q-10 0 -14 -3.5t-4 -15.5v-299h117v-18h-117v-307q0 -15 4 -18.5t20 -3.5h21q216 0 216 336q0 329 -202 329z
" />
    <glyph glyph-name="dcroat" unicode="&#x111;" horiz-adv-x="567" 
d="M486 726v-145h73v-17h-73v-489q0 -15 10 -23l60 -50v-2h-196v98q-42 -106 -145 -106q-83 0 -135 68t-52 182q0 115 58 185.5t145 70.5q90 0 129 -84v150h-130v17h130v54q0 15 -10 23l-59 43v2zM275 53q46 0 85 54v297q-33 46 -82 46q-50 0 -82.5 -49t-32.5 -150
q0 -100 31.5 -149t80.5 -49z" />
    <glyph glyph-name="Emacron" unicode="&#x112;" horiz-adv-x="599" 
d="M549 0h-532v2l77 54q11 8 11 22v547q0 14 -11 22l-77 54v2h523v-228h-2l-105 192q-9 17 -28 17h-145q-10 0 -13 -4t-3 -17v-298h98q15 1 27 17l76 96h2v-244h-2l-76 97q-13 16 -28 16h-97v-307q0 -13 3 -17t13 -4h150q24 0 32 13l105 196h2v-228zM442 804h-262v18h262
v-18z" />
    <glyph glyph-name="emacron" unicode="&#x113;" horiz-adv-x="486" 
d="M456 278h-300v-16q0 -96 40.5 -146.5t103.5 -50.5q108 0 155 109h2q-34 -182 -206 -182q-95 0 -159.5 63.5t-64.5 185.5q0 68 19.5 119t53 80.5t73 43.5t83.5 14q85 0 143.5 -48t58.5 -147q0 -9 -2 -25zM254 482q-90 0 -98 -186h179q1 8 1 19q0 167 -82 167zM386 592
h-262v18h262v-18z" />
    <glyph glyph-name="Ebreve" unicode="&#x114;" horiz-adv-x="599" 
d="M549 0h-532v2l77 54q11 8 11 22v547q0 14 -11 22l-77 54v2h523v-228h-2l-105 192q-9 17 -28 17h-145q-10 0 -13 -4t-3 -17v-298h98q15 1 27 17l76 96h2v-244h-2l-76 97q-13 16 -28 16h-97v-307q0 -13 3 -17t13 -4h150q24 0 32 13l105 196h2v-228zM434 878
q0 -62 -36.5 -93.5t-88.5 -31.5q-51 0 -87.5 31.5t-36.5 93.5q0 20 4 40h2q2 -46 34.5 -71.5t83.5 -25.5t84 25.5t35 71.5h2q4 -20 4 -40z" />
    <glyph glyph-name="ebreve" unicode="&#x115;" horiz-adv-x="486" 
d="M456 278h-300v-16q0 -96 40.5 -146.5t103.5 -50.5q108 0 155 109h2q-34 -182 -206 -182q-95 0 -159.5 63.5t-64.5 185.5q0 68 19.5 119t53 80.5t73 43.5t83.5 14q85 0 143.5 -48t58.5 -147q0 -9 -2 -25zM254 482q-90 0 -98 -186h179q1 8 1 19q0 167 -82 167zM378 666
q0 -62 -36.5 -93.5t-88.5 -31.5q-51 0 -87.5 31.5t-36.5 93.5q0 20 4 40h2q2 -46 34.5 -71.5t83.5 -25.5t84 25.5t35 71.5h2q4 -20 4 -40z" />
    <glyph glyph-name="Edotaccent" unicode="&#x116;" horiz-adv-x="599" 
d="M549 0h-532v2l77 54q11 8 11 22v547q0 14 -11 22l-77 54v2h523v-228h-2l-105 192q-9 17 -28 17h-145q-10 0 -13 -4t-3 -17v-298h98q15 1 27 17l76 96h2v-244h-2l-76 97q-13 16 -28 16h-97v-307q0 -13 3 -17t13 -4h150q24 0 32 13l105 196h2v-228zM246 831q0 29 19.5 47.5
t47.5 18.5q29 0 48 -18.5t19 -47.5q0 -28 -19 -46.5t-48 -18.5q-28 0 -47.5 18.5t-19.5 46.5z" />
    <glyph glyph-name="edotaccent" unicode="&#x117;" horiz-adv-x="486" 
d="M456 278h-300v-16q0 -96 40.5 -146.5t103.5 -50.5q108 0 155 109h2q-34 -182 -206 -182q-95 0 -159.5 63.5t-64.5 185.5q0 68 19.5 119t53 80.5t73 43.5t83.5 14q85 0 143.5 -48t58.5 -147q0 -9 -2 -25zM254 482q-90 0 -98 -186h179q1 8 1 19q0 167 -82 167zM190 619
q0 29 19.5 47.5t47.5 18.5q29 0 48 -18.5t19 -47.5q0 -28 -19 -46.5t-48 -18.5q-28 0 -47.5 18.5t-19.5 46.5z" />
    <glyph glyph-name="Eogonek" unicode="&#x118;" horiz-adv-x="599" 
d="M405 -236q-41 0 -72.5 27.5t-31.5 74.5q0 44 36 80.5t98 53.5h-418v2l77 54q11 8 11 22v547q0 14 -11 22l-77 54v2h523v-228h-2l-105 192q-9 17 -28 17h-145q-10 0 -13 -4t-3 -17v-298h98q15 1 27 17l76 96h2v-244h-2l-76 97q-13 16 -28 16h-97v-307q0 -13 3 -17t13 -4
h150q24 0 32 13l105 196h2v-228h-106q-72 -35 -72 -106q0 -37 21 -57t53 -20q48 0 75 40l2 -1q-35 -92 -117 -92z" />
    <glyph glyph-name="eogonek" unicode="&#x119;" horiz-adv-x="486" 
d="M263 -236q-41 0 -72.5 27.5t-31.5 74.5q0 42 33 77t90 51q-20 -2 -31 -2q-95 0 -159.5 63.5t-64.5 185.5q0 68 19.5 119t53 80.5t73 43.5t83.5 14q85 0 143.5 -48t58.5 -147q0 -11 -1 -25h-301v-16q0 -96 40.5 -146.5t103.5 -50.5q108 0 155 109h2q-28 -152 -154 -177
q-35 -13 -54.5 -41t-19.5 -62q0 -37 20.5 -57t52.5 -20q47 0 76 40l2 -1q-35 -92 -117 -92zM254 482q-90 0 -98 -186h179q1 8 1 19q0 167 -82 167z" />
    <glyph glyph-name="Ecaron" unicode="&#x11a;" horiz-adv-x="599" 
d="M313 845l151 72l1 -1l-151 -174h-2l-151 174l1 1zM549 0h-532v2l77 54q11 8 11 22v547q0 14 -11 22l-77 54v2h523v-228h-2l-105 192q-9 17 -28 17h-145q-10 0 -13 -4t-3 -17v-298h98q15 1 27 17l76 96h2v-244h-2l-76 97q-13 16 -28 16h-97v-307q0 -13 3 -17t13 -4h150
q24 0 32 13l105 196h2v-228z" />
    <glyph glyph-name="ecaron" unicode="&#x11b;" horiz-adv-x="486" 
d="M257 634l151 72l1 -1l-151 -174h-2l-151 174l1 1zM456 278h-300v-16q0 -96 40.5 -146.5t103.5 -50.5q108 0 155 109h2q-34 -182 -206 -182q-95 0 -159.5 63.5t-64.5 185.5q0 68 19.5 119t53 80.5t73 43.5t83.5 14q85 0 143.5 -48t58.5 -147q0 -9 -2 -25zM254 482
q-90 0 -98 -186h179q1 8 1 19q0 167 -82 167z" />
    <glyph glyph-name="Gcircumflex" unicode="&#x11c;" horiz-adv-x="666" 
d="M509 750l-1 -2l-151 72l-151 -72l-1 2l151 173h2zM342 -10q-151 0 -231 96.5t-80 263.5q0 164 88.5 263.5t244.5 99.5q112 0 209 -22v-227h-2l-125 211q-7 12 -11.5 15.5t-17.5 4.5q-14 1 -35 1q-191 0 -191 -340q0 -178 41.5 -262.5t129.5 -84.5q33 0 66 12q12 5 12 19
v188q0 16 -10 25l-68 56v2h296v-2l-68 -55q-11 -9 -11 -26v-238l-121 23q-60 -23 -116 -23z" />
    <glyph glyph-name="gcircumflex" unicode="&#x11d;" horiz-adv-x="501" 
d="M396 538l-1 -2l-151 72l-151 -72l-1 2l151 173h2zM40 335q0 78 56 120.5t142 42.5q74 0 124 -30q10 -6 19 4l100 121h2v-151h-93q54 -43 54 -112q0 -76 -57.5 -116.5t-145.5 -40.5q-38 0 -67 7q-47 -13 -47 -46q0 -21 24 -33.5t69 -12.5h86q86 0 132.5 -35t46.5 -102
q0 -86 -74.5 -136.5t-182.5 -50.5q-82 0 -143 29t-61 82q0 36 29.5 62.5t86.5 37.5q-45 10 -69.5 36t-24.5 62q0 39 30.5 68.5t83.5 42.5q-55 16 -87.5 54t-32.5 97zM176 -29l-25 2q-51 -25 -51 -78t46 -82.5t109 -29.5q61 0 104.5 27.5t43.5 77.5q0 75 -111 79zM165 336
q0 -147 77 -147t77 147t-77 147t-77 -147z" />
    <glyph glyph-name="Gbreve" unicode="&#x11e;" horiz-adv-x="666" 
d="M342 -10q-151 0 -231 96.5t-80 263.5q0 164 88.5 263.5t244.5 99.5q112 0 209 -22v-227h-2l-125 211q-7 12 -11.5 15.5t-17.5 4.5q-14 1 -35 1q-191 0 -191 -340q0 -178 41.5 -262.5t129.5 -84.5q33 0 66 12q12 5 12 19v188q0 16 -10 25l-68 56v2h296v-2l-68 -55
q-11 -9 -11 -26v-238l-121 23q-60 -23 -116 -23zM478 878q0 -62 -36.5 -93.5t-88.5 -31.5q-51 0 -87.5 31.5t-36.5 93.5q0 20 4 40h2q2 -46 34.5 -71.5t83.5 -25.5t84 25.5t35 71.5h2q4 -20 4 -40z" />
    <glyph glyph-name="gbreve" unicode="&#x11f;" horiz-adv-x="501" 
d="M40 335q0 78 56 120.5t142 42.5q74 0 124 -30q10 -6 19 4l100 121h2v-151h-93q54 -43 54 -112q0 -76 -57.5 -116.5t-145.5 -40.5q-38 0 -67 7q-47 -13 -47 -46q0 -21 24 -33.5t69 -12.5h86q86 0 132.5 -35t46.5 -102q0 -86 -74.5 -136.5t-182.5 -50.5q-82 0 -143 29
t-61 82q0 36 29.5 62.5t86.5 37.5q-45 10 -69.5 36t-24.5 62q0 39 30.5 68.5t83.5 42.5q-55 16 -87.5 54t-32.5 97zM176 -29l-25 2q-51 -25 -51 -78t46 -82.5t109 -29.5q61 0 104.5 27.5t43.5 77.5q0 75 -111 79zM165 336q0 -147 77 -147t77 147t-77 147t-77 -147zM365 666
q0 -62 -36.5 -93.5t-88.5 -31.5q-51 0 -87.5 31.5t-36.5 93.5q0 20 4 40h2q2 -46 34.5 -71.5t83.5 -25.5t84 25.5t35 71.5h2q4 -20 4 -40z" />
    <glyph glyph-name="Gdotaccent" unicode="&#x120;" horiz-adv-x="666" 
d="M342 -10q-151 0 -231 96.5t-80 263.5q0 164 88.5 263.5t244.5 99.5q112 0 209 -22v-227h-2l-125 211q-7 12 -11.5 15.5t-17.5 4.5q-14 1 -35 1q-191 0 -191 -340q0 -178 41.5 -262.5t129.5 -84.5q33 0 66 12q12 5 12 19v188q0 16 -10 25l-68 56v2h296v-2l-68 -55
q-11 -9 -11 -26v-238l-121 23q-60 -23 -116 -23zM290 831q0 29 19.5 47.5t47.5 18.5q29 0 48 -18.5t19 -47.5q0 -28 -19 -46.5t-48 -18.5q-28 0 -47.5 18.5t-19.5 46.5z" />
    <glyph glyph-name="gdotaccent" unicode="&#x121;" horiz-adv-x="501" 
d="M40 335q0 78 56 120.5t142 42.5q74 0 124 -30q10 -6 19 4l100 121h2v-151h-93q54 -43 54 -112q0 -76 -57.5 -116.5t-145.5 -40.5q-38 0 -67 7q-47 -13 -47 -46q0 -21 24 -33.5t69 -12.5h86q86 0 132.5 -35t46.5 -102q0 -86 -74.5 -136.5t-182.5 -50.5q-82 0 -143 29
t-61 82q0 36 29.5 62.5t86.5 37.5q-45 10 -69.5 36t-24.5 62q0 39 30.5 68.5t83.5 42.5q-55 16 -87.5 54t-32.5 97zM176 -29l-25 2q-51 -25 -51 -78t46 -82.5t109 -29.5q61 0 104.5 27.5t43.5 77.5q0 75 -111 79zM165 336q0 -147 77 -147t77 147t-77 147t-77 -147zM177 619
q0 29 19.5 47.5t47.5 18.5q29 0 48 -18.5t19 -47.5q0 -28 -19 -46.5t-48 -18.5q-28 0 -47.5 18.5t-19.5 46.5z" />
    <glyph glyph-name="Gcommaaccent" unicode="&#x122;" horiz-adv-x="666" 
d="M299 -245l-1 2q52 33 55 83q0 10 -9 10q-21 0 -34.5 16.5t-13.5 40.5t16.5 41t41.5 17q27 0 44 -19t17 -51q0 -47 -33.5 -87t-82.5 -53zM342 -10q-151 0 -231 96.5t-80 263.5q0 164 88.5 263.5t244.5 99.5q112 0 209 -22v-227h-2l-125 211q-7 12 -11.5 15.5t-17.5 4.5
q-14 1 -35 1q-191 0 -191 -340q0 -178 41.5 -262.5t129.5 -84.5q33 0 66 12q12 5 12 19v188q0 16 -10 25l-68 56v2h296v-2l-68 -55q-11 -9 -11 -26v-238l-121 23q-60 -23 -116 -23z" />
    <glyph glyph-name="gcommaaccent" unicode="&#x123;" horiz-adv-x="501" 
d="M40 335q0 78 56 120.5t142 42.5q74 0 124 -30q10 -6 19 4l100 121h2v-151h-93q54 -43 54 -112q0 -76 -57.5 -116.5t-145.5 -40.5q-38 0 -67 7q-47 -13 -47 -46q0 -21 24 -33.5t69 -12.5h86q86 0 132.5 -35t46.5 -102q0 -86 -74.5 -136.5t-182.5 -50.5q-82 0 -143 29
t-61 82q0 36 29.5 62.5t86.5 37.5q-45 10 -69.5 36t-24.5 62q0 39 30.5 68.5t83.5 42.5q-55 16 -87.5 54t-32.5 97zM176 -29l-25 2q-51 -25 -51 -78t46 -82.5t109 -29.5q61 0 104.5 27.5t43.5 77.5q0 75 -111 79zM165 336q0 -147 77 -147t77 147t-77 147t-77 -147zM305 752
l1 -2q-48 -31 -54 -83q-1 -8 9 -10q22 -3 35 -18t13 -38q0 -25 -16.5 -42t-41.5 -17q-27 0 -44.5 19t-17.5 51q0 47 33.5 87t82.5 53z" />
    <glyph glyph-name="Hcircumflex" unicode="&#x124;" horiz-adv-x="757" 
d="M530 750l-1 -2l-151 72l-151 -72l-1 2l151 173h2zM652 625v-547q0 -14 12 -22l77 -54v-2h-316v2l77 54q11 9 11 22v273h-269v-273q0 -14 12 -22l77 -54v-2h-316v2l77 54q11 8 11 22v547q0 14 -11 22l-77 54v2h316v-2l-77 -54q-12 -9 -12 -22v-255h269v255q0 14 -11 22
l-77 54v2h316v-2l-77 -54q-12 -9 -12 -22z" />
    <glyph glyph-name="hcircumflex" unicode="&#x125;" horiz-adv-x="572" 
d="M292 750l-1 -2l-151 72l-151 -72l-1 2l151 173h2zM500 67q0 -13 11 -22l60 -43v-2h-266v2l57 43q11 9 11 21q0 1 1.5 87.5t1.5 112.5q0 84 -18.5 123.5t-63.5 39.5q-55 0 -91 -61v-301q0 -13 11 -22l59 -43v-2h-265v2l59 43q10 8 10 22v568q0 15 -10 23l-59 43v2l195 23
v-350q37 122 153 122q146 0 146 -204q0 -67 -2 -227z" />
    <glyph glyph-name="Hbar" unicode="&#x126;" horiz-adv-x="757" 
d="M105 476h-83v18h83v131q0 16 -11 23l-79 53v2h320v-2l-79 -53q-12 -8 -12 -23v-131h269v131q0 15 -11 23l-80 53v2h321v-2l-79 -53q-12 -8 -12 -23v-131h83v-18h-83v-398q0 -15 12 -23l79 -53v-2h-321v2l80 53q11 8 11 23v223h-269v-223q0 -15 12 -23l79 -53v-2h-320v2
l79 53q11 8 11 23v398zM244 476v-155h269v155h-269z" />
    <glyph glyph-name="hbar" unicode="&#x127;" horiz-adv-x="572" 
d="M500 67q0 -13 11 -22l60 -43v-2h-266v2l57 43q11 9 11 21q0 1 1.5 87.5t1.5 112.5q0 84 -18.5 123.5t-63.5 39.5q-55 0 -91 -61v-301q0 -13 11 -22l59 -43v-2h-265v2l59 43q10 8 10 22v497h-71v17h71v54q0 15 -10 23l-59 43v2l195 23v-145h135v-17h-135v-188
q37 122 153 122q146 0 146 -204q0 -67 -2 -227z" />
    <glyph glyph-name="Itilde" unicode="&#x128;" horiz-adv-x="350" 
d="M244 625v-547q0 -14 12 -22l77 -54v-2h-316v2l77 54q11 8 11 22v547q0 14 -11 22l-77 54v2h316v-2l-77 -54q-12 -9 -12 -22zM237 774q-24 0 -69.5 23.5t-66.5 23.5q-43 0 -62 -48h-2q0 10 2 30q5 41 25 64.5t52 23.5q24 0 69 -24t66 -24q45 0 63 48h2q0 -12 -2 -32
q-5 -39 -25 -62t-52 -23z" />
    <glyph glyph-name="itilde" unicode="&#x129;" horiz-adv-x="297" 
d="M218 490v-423q0 -14 11 -22l59 -43v-2h-265v2l59 43q10 7 10 22v348q0 15 -10 23l-59 50v2h195zM202 562q-24 0 -69.5 23.5t-66.5 23.5q-43 0 -62 -48h-2q0 10 2 30q5 41 25 64.5t52 23.5q24 0 69 -24t66 -24q45 0 63 48h2q0 -12 -2 -32q-5 -39 -25 -62t-52 -23z" />
    <glyph glyph-name="Imacron" unicode="&#x12a;" horiz-adv-x="350" 
d="M244 625v-547q0 -14 12 -22l77 -54v-2h-316v2l77 54q11 8 11 22v547q0 14 -11 22l-77 54v2h316v-2l-77 -54q-12 -9 -12 -22zM304 804h-262v18h262v-18z" />
    <glyph glyph-name="imacron" unicode="&#x12b;" horiz-adv-x="297" 
d="M218 490v-423q0 -14 11 -22l59 -43v-2h-265v2l59 43q10 7 10 22v348q0 15 -10 23l-59 50v2h195zM268 592h-262v18h262v-18z" />
    <glyph glyph-name="Ibreve" unicode="&#x12c;" horiz-adv-x="350" 
d="M244 625v-547q0 -14 12 -22l77 -54v-2h-316v2l77 54q11 8 11 22v547q0 14 -11 22l-77 54v2h316v-2l-77 -54q-12 -9 -12 -22zM296 878q0 -62 -36.5 -93.5t-88.5 -31.5q-51 0 -87.5 31.5t-36.5 93.5q0 20 4 40h2q2 -46 34.5 -71.5t83.5 -25.5t84 25.5t35 71.5h2
q4 -20 4 -40z" />
    <glyph glyph-name="ibreve" unicode="&#x12d;" horiz-adv-x="297" 
d="M218 490v-423q0 -14 11 -22l59 -43v-2h-265v2l59 43q10 7 10 22v348q0 15 -10 23l-59 50v2h195zM261 666q0 -62 -36.5 -93.5t-88.5 -31.5q-51 0 -87.5 31.5t-36.5 93.5q0 20 4 40h2q2 -46 34.5 -71.5t83.5 -25.5t84 25.5t35 71.5h2q4 -20 4 -40z" />
    <glyph glyph-name="Iogonek" unicode="&#x12e;" horiz-adv-x="350" 
d="M174 -236q-41 0 -72.5 27.5t-31.5 74.5q0 45 35.5 82t95.5 52h-184v2l77 54q11 8 11 22v547q0 14 -11 22l-77 54v2h316v-2l-77 -54q-12 -9 -12 -22v-547q0 -14 12 -22l77 -54v-2h-122q-71 -31 -71 -106q0 -37 20.5 -57t52.5 -20q47 0 76 40l2 -1q-35 -92 -117 -92z" />
    <glyph glyph-name="iogonek" unicode="&#x12f;" horiz-adv-x="297" 
d="M156 -236q-41 0 -72.5 27.5t-31.5 74.5q0 45 35.5 82t95.5 52h-161v2l59 43q10 8 10 22v348q0 15 -10 23l-59 50v2h195v-423q0 -13 11 -22l59 -43v-2h-94q-71 -31 -71 -106q0 -37 20.5 -57t52.5 -20q47 0 76 40l2 -1q-35 -92 -117 -92zM149 556q-29 0 -49 19t-20 47
q0 30 20 49.5t49 19.5q30 0 50 -19.5t20 -49.5q0 -28 -20.5 -47t-49.5 -19z" />
    <glyph glyph-name="Idotaccent" unicode="&#x130;" horiz-adv-x="350" 
d="M244 625v-547q0 -14 12 -22l77 -54v-2h-316v2l77 54q11 8 11 22v547q0 14 -11 22l-77 54v2h316v-2l-77 -54q-12 -9 -12 -22zM106 831q0 29 19.5 47.5t47.5 18.5q29 0 48 -18.5t19 -47.5q0 -28 -19 -46.5t-48 -18.5q-28 0 -47.5 18.5t-19.5 46.5z" />
    <glyph glyph-name="dotlessi" unicode="&#x131;" horiz-adv-x="297" 
d="M218 490v-423q0 -14 11 -22l59 -43v-2h-265v2l59 43q10 7 10 22v348q0 15 -10 23l-59 50v2h195z" />
    <glyph glyph-name="IJ" unicode="&#x132;" horiz-adv-x="670" 
d="M244 625v-547q0 -14 12 -22l77 -54v-2h-316v2l77 54q11 8 11 22v547q0 14 -11 22l-77 54v2h316v-2l-77 -54q-12 -9 -12 -22zM440 40v585q0 14 -12 22l-77 54v2h316v-2l-77 -54q-12 -9 -12 -22v-557q0 -124 -70 -196t-193 -83l-1 2q126 63 126 249z" />
    <glyph glyph-name="ij" unicode="&#x133;" horiz-adv-x="570" 
d="M149 556q-29 0 -49 19t-20 47q0 30 20 49.5t49 19.5q30 0 50 -19.5t20 -49.5q0 -28 -20.5 -47t-49.5 -19zM22 490h195v-423q0 -13 11 -22l59 -43v-2h-265v2l59 43q10 8 10 22v348q0 15 -10 23l-59 50v2zM312 490h195v-462q0 -112 -55.5 -179.5t-161.5 -67.5q-9 0 -27 2v2
q59 8 88.5 56.5t29.5 147.5v426q0 15 -10 23l-59 50v2zM370 622q0 30 20 49.5t49 19.5q30 0 49.5 -19.5t19.5 -49.5q0 -28 -20 -47t-49 -19t-49 19t-20 47z" />
    <glyph glyph-name="Jcircumflex" unicode="&#x134;" horiz-adv-x="320" 
d="M313 750l-1 -2l-151 72l-151 -72l-1 2l151 173h2zM91 40v585q0 14 -12 22l-77 54v2h316v-2l-77 -54q-12 -9 -12 -22v-557q0 -124 -70 -196t-193 -83l-1 2q126 63 126 249z" />
    <glyph glyph-name="jcircumflex" unicode="&#x135;" horiz-adv-x="273" 
d="M-5 -219q-19 0 -29 2v2q59 8 88.5 56.5t29.5 147.5v426q0 14 -10 23l-59 50v2h195v-462q0 -112 -55 -179.5t-160 -67.5zM289 538l-1 -2l-151 72l-151 -72l-1 2l151 173h2z" />
    <glyph glyph-name="Kcommaaccent" unicode="&#x136;" horiz-adv-x="675" 
d="M320 -245l-1 2q52 33 55 83q0 10 -9 10q-21 0 -34.5 16.5t-13.5 40.5t16.5 41t41.5 17q27 0 44 -19t17 -51q0 -47 -33.5 -87t-82.5 -53zM244 625v-547q0 -14 12 -22l77 -54v-2h-316v2l77 54q11 8 11 22v547q0 14 -11 22l-77 54v2h316v-2l-77 -54q-12 -9 -12 -22zM507 587
l-147 -153l233 -342q15 -22 30 -34l65 -56v-2h-198l-237 348l236 248q8 10 7 14t-10 13l-81 78v2h283v-2l-135 -80q-29 -17 -46 -34z" />
    <glyph glyph-name="kcommaaccent" unicode="&#x137;" horiz-adv-x="535" 
d="M238 -245l-1 2q52 33 55 83q0 10 -9 10q-21 0 -34.5 16.5t-13.5 40.5t16.5 41t41.5 17q27 0 44 -19t17 -51q0 -47 -33.5 -87t-82.5 -53zM473 70q9 -18 23 -29l50 -39v-2h-181l-121 242q-8 15 -21 15q-10 0 -20 -7v-183q0 -13 11 -22l59 -43v-2h-265v2l59 43q10 8 10 22
v568q0 15 -10 23l-59 43v2l195 23v-467l180 136q10 7 1 17l-72 76v2h221v-2l-190 -143q-11 -8 -6 -17z" />
    <glyph glyph-name="kgreenlandic" unicode="&#x138;" horiz-adv-x="549" 
d="M560 0h-181l-121 242q-8 15 -20 15q-10 0 -21 -7v-183q0 -13 11 -22l59 -43v-2h-265v2l59 43q10 8 10 22v348q0 15 -10 23l-59 50v2h195v-231l180 136q10 7 1 17l-72 76v2h221v-2l-190 -143q-11 -8 -6 -17l136 -258q9 -18 23 -29l50 -39v-2z" />
    <glyph glyph-name="Lacute" unicode="&#x139;" horiz-adv-x="567" 
d="M196 915h138v-2l-221 -163l-2 2zM537 0h-520v2l77 54q11 8 11 22v547q0 14 -11 22l-77 54v2h316v-2l-77 -54q-12 -9 -12 -22v-585q0 -13 3 -17t13 -4h129q25 0 32 13l114 208h2v-240z" />
    <glyph glyph-name="lacute" unicode="&#x13a;" horiz-adv-x="281" 
d="M162 915h138v-2l-221 -163l-2 2zM203 726v-659q0 -13 11 -22l59 -43v-2h-265v2l59 43q10 8 10 22v568q0 15 -10 23l-59 43v2z" />
    <glyph glyph-name="Lcommaaccent" unicode="&#x13b;" horiz-adv-x="567" 
d="M252 -245l-1 2q52 33 55 83q0 10 -9 10q-21 0 -34.5 16.5t-13.5 40.5t16.5 41t41.5 17q27 0 44 -19t17 -51q0 -47 -33.5 -87t-82.5 -53zM537 0h-520v2l77 54q11 8 11 22v547q0 14 -11 22l-77 54v2h316v-2l-77 -54q-12 -9 -12 -22v-585q0 -13 3 -17t13 -4h129q25 0 32 13
l114 208h2v-240z" />
    <glyph glyph-name="lcommaaccent" unicode="&#x13c;" horiz-adv-x="281" 
d="M86 -245l-1 2q52 33 55 83q0 10 -9 10q-21 0 -34.5 16.5t-13.5 40.5t16.5 41t41.5 17q27 0 44 -19t17 -51q0 -47 -33.5 -87t-82.5 -53zM203 726v-659q0 -13 11 -22l59 -43v-2h-265v2l59 43q10 8 10 22v568q0 15 -10 23l-59 43v2z" />
    <glyph glyph-name="Lcaron" unicode="&#x13d;" horiz-adv-x="565" 
d="M390 510l9 193h102l-109 -193h-2zM537 0h-520v2l77 54q11 8 11 22v547q0 14 -11 22l-77 54v2h316v-2l-77 -54q-12 -9 -12 -22v-585q0 -13 3 -17t13 -4h129q25 0 32 13l114 208h2v-240z" />
    <glyph glyph-name="lcaron" unicode="&#x13e;" horiz-adv-x="301" 
d="M256 510l9 193h102l-109 -193h-2zM203 726v-659q0 -13 11 -22l59 -43v-2h-265v2l59 43q10 8 10 22v568q0 15 -10 23l-59 43v2z" />
    <glyph glyph-name="Ldot" unicode="&#x13f;" horiz-adv-x="572" 
d="M538 0h-520v2l77 54q11 8 11 22v547q0 14 -11 22l-77 54v2h316v-2l-77 -54q-12 -9 -12 -22v-585q0 -13 3 -17t13 -4h129q25 0 32 13l114 208h2v-240zM361 386q0 29 19.5 47.5t47.5 18.5q29 0 48 -18.5t19 -47.5q0 -28 -19 -46.5t-48 -18.5q-28 0 -47.5 18.5t-19.5 46.5z
" />
    <glyph glyph-name="ldot" unicode="&#x140;" horiz-adv-x="383" 
d="M203 726v-659q0 -13 11 -22l59 -43v-2h-265v2l59 43q10 8 10 22v568q0 15 -10 23l-59 43v2zM250 355q0 29 19.5 47.5t47.5 18.5q29 0 48 -18.5t19 -47.5q0 -28 -19 -46.5t-48 -18.5q-28 0 -47.5 18.5t-19.5 46.5z" />
    <glyph glyph-name="Lslash" unicode="&#x141;" horiz-adv-x="573" 
d="M250 38q0 -13 3.5 -16t14.5 -3h127q25 0 32 13l114 208h2v-240h-520v2l77 54q11 8 11 22v217l-80 -33l-7 16l87 36v311q0 14 -11 22l-77 54v2h316v-2l-77 -54q-12 -9 -12 -22v-253l126 53l7 -17l-133 -56v-314z" />
    <glyph glyph-name="lslash" unicode="&#x142;" horiz-adv-x="310" 
d="M216 67q0 -13 11 -22l59 -43v-2h-265v2l59 43q10 8 10 22v234l-94 -39l-7 16l101 42v315q0 15 -10 23l-59 43v2l195 23v-353l108 45l7 -16l-115 -48v-287z" />
    <glyph glyph-name="Nacute" unicode="&#x143;" horiz-adv-x="693" 
d="M372 915h138v-2l-221 -163l-2 2zM18 703h202l350 -560v429q0 17 -14 31l-98 98v2h244v-2l-97 -98q-15 -16 -15 -31v-572h-93l-357 570v-439q0 -17 15 -31l98 -98v-2h-245v2l98 98q14 14 14 31v449q0 21 -11 33l-91 88v2z" />
    <glyph glyph-name="nacute" unicode="&#x144;" horiz-adv-x="587" 
d="M319 703h138v-2l-221 -163l-2 2zM390 266q0 84 -18.5 123.5t-63.5 39.5q-55 0 -91 -61v-301q0 -13 11 -22l59 -43v-2h-265v2l59 43q10 8 10 22v348q0 15 -10 23l-59 50v2h195v-114q37 122 153 122q146 0 146 -204q0 -67 -2 -227q0 -13 11 -22l59 -43v-2h-265v2l56 43
q12 8 12 21q0 1 1.5 87.5t1.5 112.5z" />
    <glyph glyph-name="Ncommaaccent" unicode="&#x145;" horiz-adv-x="693" 
d="M297 -245l-1 2q52 33 55 83q0 10 -9 10q-21 0 -34.5 16.5t-13.5 40.5t16.5 41t41.5 17q27 0 44 -19t17 -51q0 -47 -33.5 -87t-82.5 -53zM18 703h202l350 -560v429q0 17 -14 31l-98 98v2h244v-2l-97 -98q-15 -16 -15 -31v-572h-93l-357 570v-439q0 -17 15 -31l98 -98v-2
h-245v2l98 98q14 14 14 31v449q0 21 -11 33l-91 88v2z" />
    <glyph glyph-name="ncommaaccent" unicode="&#x146;" horiz-adv-x="587" 
d="M249 -245l-1 2q52 33 55 83q0 10 -9 10q-21 0 -34.5 16.5t-13.5 40.5t16.5 41t41.5 17q27 0 44 -19t17 -51q0 -47 -33.5 -87t-82.5 -53zM390 266q0 84 -18.5 123.5t-63.5 39.5q-55 0 -91 -61v-301q0 -13 11 -22l59 -43v-2h-265v2l59 43q10 8 10 22v348q0 15 -10 23
l-59 50v2h195v-114q37 122 153 122q146 0 146 -204q0 -67 -2 -227q0 -13 11 -22l59 -43v-2h-265v2l56 43q12 8 12 21q0 1 1.5 87.5t1.5 112.5z" />
    <glyph glyph-name="Ncaron" unicode="&#x147;" horiz-adv-x="693" 
d="M350 845l151 72l1 -1l-151 -174h-2l-151 174l1 1zM18 703h202l350 -560v429q0 17 -14 31l-98 98v2h244v-2l-97 -98q-15 -16 -15 -31v-572h-93l-357 570v-439q0 -17 15 -31l98 -98v-2h-245v2l98 98q14 14 14 31v449q0 21 -11 33l-91 88v2z" />
    <glyph glyph-name="ncaron" unicode="&#x148;" horiz-adv-x="587" 
d="M297 634l151 72l1 -1l-151 -174h-2l-151 174l1 1zM390 266q0 84 -18.5 123.5t-63.5 39.5q-55 0 -91 -61v-301q0 -13 11 -22l59 -43v-2h-265v2l59 43q10 8 10 22v348q0 15 -10 23l-59 50v2h195v-114q37 122 153 122q146 0 146 -204q0 -67 -2 -227q0 -13 11 -22l59 -43v-2
h-265v2l56 43q12 8 12 21q0 1 1.5 87.5t1.5 112.5z" />
    <glyph glyph-name="napostrophe" unicode="&#x149;" horiz-adv-x="630" 
d="M-27 480l-1 2q52 33 55 83q0 10 -9 10q-21 0 -34.5 16.5t-13.5 40.5t16.5 41t41.5 17q27 0 44 -19t17 -51q0 -47 -33.5 -87t-82.5 -53zM433 266q0 84 -18.5 123.5t-63.5 39.5q-55 0 -91 -61v-301q0 -13 11 -22l59 -43v-2h-265v2l59 43q10 8 10 22v348q0 15 -10 23l-59 50
v2h195v-114q37 122 153 122q146 0 146 -204q0 -67 -2 -227q0 -13 11 -22l59 -43v-2h-265v2l56 43q12 8 12 21q0 1 1.5 87.5t1.5 112.5z" />
    <glyph glyph-name="Eng" unicode="&#x14a;" horiz-adv-x="661" 
d="M611 507v-451q0 -123 -66.5 -192.5t-180.5 -69.5v2q115 26 115 197v493q0 157 -121 157q-31 0 -65 -18t-49 -44v-503q0 -14 12 -22l77 -54v-2h-316v2l77 54q11 8 11 22v547q0 14 -11 22l-77 54v2h227v-114q18 58 66.5 90.5t109.5 32.5q84 0 137.5 -53t53.5 -152z" />
    <glyph glyph-name="eng" unicode="&#x14b;" horiz-adv-x="572" 
d="M390 -18v284q0 84 -18.5 123.5t-63.5 39.5q-55 0 -91 -61v-301q0 -13 11 -22l59 -43v-2h-265v2l59 43q10 8 10 22v348q0 15 -10 23l-59 50v2h195v-114q37 122 153 122q146 0 146 -204v-249q0 -124 -65 -193t-179 -69v2q118 27 118 197z" />
    <glyph glyph-name="Omacron" unicode="&#x14c;" horiz-adv-x="708" 
d="M482 804h-262v18h262v-18zM355 7q163 0 163 345q0 344 -163 344q-164 0 -164 -344q0 -343 164 -345zM355 713q153 0 237 -94.5t84 -266.5q0 -173 -84 -267.5t-237 -94.5t-238 94.5t-85 267.5q0 172 85 266.5t238 94.5z" />
    <glyph glyph-name="omacron" unicode="&#x14d;" horiz-adv-x="536" 
d="M396 592h-262v18h262v-18zM268 482q-48 0 -73 -53t-25 -183q0 -131 25 -184.5t73 -53.5t73.5 53.5t25.5 183.5t-25.5 183.5t-73.5 53.5zM268 -8q-111 0 -176 66t-65 188q0 121 65 186.5t176 65.5q112 0 176.5 -65.5t64.5 -187.5q0 -121 -65 -187t-176 -66z" />
    <glyph glyph-name="Obreve" unicode="&#x14e;" horiz-adv-x="708" 
d="M355 7q163 0 163 345q0 344 -163 344q-164 0 -164 -344q0 -343 164 -345zM355 713q153 0 237 -94.5t84 -266.5q0 -173 -84 -267.5t-237 -94.5t-238 94.5t-85 267.5q0 172 85 266.5t238 94.5zM474 878q0 -62 -36.5 -93.5t-88.5 -31.5q-51 0 -87.5 31.5t-36.5 93.5
q0 20 4 40h2q2 -46 34.5 -71.5t83.5 -25.5t84 25.5t35 71.5h2q4 -20 4 -40z" />
    <glyph glyph-name="obreve" unicode="&#x14f;" horiz-adv-x="536" 
d="M268 482q-48 0 -73 -53t-25 -183q0 -131 25 -184.5t73 -53.5t73.5 53.5t25.5 183.5t-25.5 183.5t-73.5 53.5zM268 -8q-111 0 -176 66t-65 188q0 121 65 186.5t176 65.5q112 0 176.5 -65.5t64.5 -187.5q0 -121 -65 -187t-176 -66zM388 666q0 -62 -36.5 -93.5t-88.5 -31.5
q-51 0 -87.5 31.5t-36.5 93.5q0 20 4 40h2q2 -46 34.5 -71.5t83.5 -25.5t84 25.5t35 71.5h2q4 -20 4 -40z" />
    <glyph glyph-name="Ohungarumlaut" unicode="&#x150;" horiz-adv-x="708" 
d="M308 915h115v-2l-174 -170h-2zM459 915h114v-2l-173 -170h-2zM355 7q163 0 163 345q0 344 -163 344q-164 0 -164 -344q0 -343 164 -345zM355 713q153 0 237 -94.5t84 -266.5q0 -173 -84 -267.5t-237 -94.5t-238 94.5t-85 267.5q0 172 85 266.5t238 94.5z" />
    <glyph glyph-name="ohungarumlaut" unicode="&#x151;" horiz-adv-x="536" 
d="M222 703h115v-2l-174 -170h-2zM373 703h114v-2l-173 -170h-2zM268 482q-48 0 -73 -53t-25 -183q0 -131 25 -184.5t73 -53.5t73.5 53.5t25.5 183.5t-25.5 183.5t-73.5 53.5zM268 -8q-111 0 -176 66t-65 188q0 121 65 186.5t176 65.5q112 0 176.5 -65.5t64.5 -187.5
q0 -121 -65 -187t-176 -66z" />
    <glyph glyph-name="OE" unicode="&#x152;" horiz-adv-x="975" 
d="M820 233l-69 96q-11 16 -28 16h-104v-304q0 -15 4 -18.5t23 -3.5h139q25 0 32 13l105 189h3v-221h-422q-61 -10 -126 -10q-171 0 -258 96t-87 266q0 166 89 263.5t247 97.5q76 0 131 -10h411v-221h-2l-106 185q-10 17 -29 17h-138q-10 0 -13 -4t-3 -17v-300h105
q16 1 27 17l69 96h2v-243h-2zM480 72v555q0 27 -16 39q-42 30 -96 30q-177 0 -177 -343q0 -173 44.5 -259.5t141.5 -86.5q51 0 88 31q15 14 15 34z" />
    <glyph glyph-name="oe" unicode="&#x153;" horiz-adv-x="835" 
d="M268 -8q-111 0 -176 66t-65 188q0 121 65 186.5t176 65.5q117 0 175 -75q58 75 163 75q84 0 142.5 -48t58.5 -147q0 -14 -1 -25h-301v-27q0 -90 41 -138t103 -48q108 0 156 109h2q-34 -182 -207 -182q-104 0 -159 74q-59 -74 -173 -74zM268 482q-48 0 -73 -53t-25 -183
t25 -183.5t73 -53.5t73.5 53t25.5 183t-25.5 183.5t-73.5 53.5zM506 296h179v3q0 97 -19.5 140t-61.5 43q-91 0 -98 -186z" />
    <glyph glyph-name="Racute" unicode="&#x154;" horiz-adv-x="664" 
d="M336 915h138v-2l-221 -163l-2 2zM287 323h-43v-246q0 -14 12 -22l79 -53v-2h-318v2l77 54q11 8 11 22v547q0 14 -11 22l-77 54v2h340q102 0 167 -46.5t65 -139.5q0 -71 -50.5 -120t-137.5 -63v-2l74 -39l123 -212q11 -20 30 -37l48 -42v-2h-192l-171 308q-9 15 -26 15z
M244 664v-322h50q144 0 144 167q0 94 -35 134.5t-101 40.5h-39q-11 0 -15 -4t-4 -16z" />
    <glyph glyph-name="racute" unicode="&#x155;" horiz-adv-x="412" 
d="M245 703h138v-2l-221 -163l-2 2zM217 338v-263q0 -15 14 -23l103 -50v-2h-312v2l59 43q10 8 10 22v348q0 15 -10 23l-59 50v2h195v-141q13 60 50.5 104.5t94.5 44.5q34 0 58 -21l-53 -152h-2l-63 103q-5 6 -13 3q-17 -7 -32 -25t-20 -28z" />
    <glyph glyph-name="Rcommaaccent" unicode="&#x156;" horiz-adv-x="664" 
d="M311 -245l-1 2q52 33 55 83q0 10 -9 10q-21 0 -34.5 16.5t-13.5 40.5t16.5 41t41.5 17q27 0 44 -19t17 -51q0 -47 -33.5 -87t-82.5 -53zM287 323h-43v-246q0 -14 12 -22l79 -53v-2h-318v2l77 54q11 8 11 22v547q0 14 -11 22l-77 54v2h340q102 0 167 -46.5t65 -139.5
q0 -71 -50.5 -120t-137.5 -63v-2l74 -39l123 -212q11 -20 30 -37l48 -42v-2h-192l-171 308q-9 15 -26 15zM244 664v-322h50q144 0 144 167q0 94 -35 134.5t-101 40.5h-39q-11 0 -15 -4t-4 -16z" />
    <glyph glyph-name="rcommaaccent" unicode="&#x157;" horiz-adv-x="412" 
d="M99 -245l-1 2q52 33 55 83q0 10 -9 10q-21 0 -34.5 16.5t-13.5 40.5t16.5 41t41.5 17q27 0 44 -19t17 -51q0 -47 -33.5 -87t-82.5 -53zM217 338v-263q0 -15 14 -23l103 -50v-2h-312v2l59 43q10 8 10 22v348q0 15 -10 23l-59 50v2h195v-141q13 60 50.5 104.5t94.5 44.5
q34 0 58 -21l-53 -152h-2l-63 103q-5 6 -13 3q-17 -7 -32 -25t-20 -28z" />
    <glyph glyph-name="Rcaron" unicode="&#x158;" horiz-adv-x="664" 
d="M315 845l151 72l1 -1l-151 -174h-2l-151 174l1 1zM287 323h-43v-246q0 -14 12 -22l79 -53v-2h-318v2l77 54q11 8 11 22v547q0 14 -11 22l-77 54v2h340q102 0 167 -46.5t65 -139.5q0 -71 -50.5 -120t-137.5 -63v-2l74 -39l123 -212q11 -20 30 -37l48 -42v-2h-192l-171 308
q-9 15 -26 15zM244 664v-322h50q144 0 144 167q0 94 -35 134.5t-101 40.5h-39q-11 0 -15 -4t-4 -16z" />
    <glyph glyph-name="rcaron" unicode="&#x159;" horiz-adv-x="412" 
d="M223 634l151 72l1 -1l-151 -174h-2l-151 174l1 1zM217 338v-263q0 -15 14 -23l103 -50v-2h-312v2l59 43q10 8 10 22v348q0 15 -10 23l-59 50v2h195v-141q13 60 50.5 104.5t94.5 44.5q34 0 58 -21l-53 -152h-2l-63 103q-5 6 -13 3q-17 -7 -32 -25t-20 -28z" />
    <glyph glyph-name="Sacute" unicode="&#x15a;" horiz-adv-x="538" 
d="M291 915h138v-2l-221 -163l-2 2zM254 -10q-102 0 -194 27v223h2l109 -211q9 -16 22 -18q34 -4 51 -4q67 0 109 32.5t42 94.5q0 48 -31 78.5t-101 64.5l-61 29q-159 74 -159 208q0 89 65 144t171 55q88 0 181 -23v-215h-2l-113 202q-9 17 -22 18q-12 1 -35 1
q-61 0 -98 -34t-37 -92q0 -46 28.5 -75.5t83.5 -55.5l74 -35q86 -41 129 -84t43 -114q0 -94 -70.5 -155t-186.5 -61z" />
    <glyph glyph-name="sacute" unicode="&#x15b;" horiz-adv-x="434" 
d="M244 703h138v-2l-221 -163l-2 2zM405 150q0 -75 -57.5 -116.5t-146.5 -41.5t-170 31l48 146h2l67 -146q5 -10 18 -12q17 -3 34 -3q46 0 72 24t26 60q0 33 -21.5 51.5t-72.5 41.5l-64 29q-96 44 -96 137q0 67 52.5 107t131.5 40q84 0 162 -25l-46 -136h-2l-70 130
q-8 15 -31 15h-12q-37 0 -61.5 -21t-24.5 -59q0 -32 21 -51.5t63 -37.5l66 -28q54 -23 83 -53t29 -82z" />
    <glyph glyph-name="Scircumflex" unicode="&#x15c;" horiz-adv-x="538" 
d="M421 750l-1 -2l-151 72l-151 -72l-1 2l151 173h2zM254 -10q-102 0 -194 27v223h2l109 -211q9 -16 22 -18q34 -4 51 -4q67 0 109 32.5t42 94.5q0 48 -31 78.5t-101 64.5l-61 29q-159 74 -159 208q0 89 65 144t171 55q88 0 181 -23v-215h-2l-113 202q-9 17 -22 18
q-12 1 -35 1q-61 0 -98 -34t-37 -92q0 -46 28.5 -75.5t83.5 -55.5l74 -35q86 -41 129 -84t43 -114q0 -94 -70.5 -155t-186.5 -61z" />
    <glyph glyph-name="scircumflex" unicode="&#x15d;" horiz-adv-x="434" 
d="M375 538l-1 -2l-151 72l-151 -72l-1 2l151 173h2zM405 150q0 -75 -57.5 -116.5t-146.5 -41.5t-170 31l48 146h2l67 -146q5 -10 18 -12q17 -3 34 -3q46 0 72 24t26 60q0 33 -21.5 51.5t-72.5 41.5l-64 29q-96 44 -96 137q0 67 52.5 107t131.5 40q84 0 162 -25l-46 -136h-2
l-70 130q-8 15 -31 15h-12q-37 0 -61.5 -21t-24.5 -59q0 -32 21 -51.5t63 -37.5l66 -28q54 -23 83 -53t29 -82z" />
    <glyph glyph-name="Scedilla" unicode="&#x15e;" horiz-adv-x="538" 
d="M268 -236q-47 0 -80 25.5t-37 63.5l2 1q8 -27 31.5 -41.5t48.5 -14.5q28 0 46.5 15.5t18.5 41.5t-17.5 42t-45.5 17q-19 0 -39 -7l-1 2l66 81h-7q-102 0 -194 27v223h2l109 -211q9 -16 22 -18q34 -4 51 -4q67 0 109 32.5t42 94.5q0 48 -31 78.5t-101 64.5l-61 29
q-159 74 -159 208q0 89 65 144t171 55q88 0 181 -23v-215h-2l-113 202q-9 17 -25 18q-12 1 -32 1q-61 0 -98 -34t-37 -92q0 -46 28.5 -75.5t83.5 -55.5l74 -35q86 -41 129 -84t43 -114q0 -92 -67 -152t-179 -64l-7 -52q50 10 86.5 -14.5t36.5 -65.5t-30 -67.5t-83 -26.5z
" />
    <glyph glyph-name="scedilla" unicode="&#x15f;" horiz-adv-x="434" 
d="M205 -236q-48 0 -81 25.5t-36 63.5l2 1q8 -27 31.5 -41.5t48.5 -14.5q27 0 46 15.5t19 41.5q0 27 -18.5 42.5t-47.5 15.5q-21 0 -37 -6l-1 2l64 83q-91 2 -164 31l48 146h2l67 -146q5 -10 18 -12q17 -3 34 -3q46 0 72 24t26 60q0 33 -21.5 51.5t-72.5 41.5l-64 29
q-96 44 -96 137q0 67 52.5 107t131.5 40q84 0 162 -25l-46 -136h-2l-70 130q-8 15 -31 15h-12q-37 0 -61.5 -21t-24.5 -59q0 -32 21 -51.5t63 -37.5l66 -28q54 -23 83 -53t29 -82q0 -75 -57.5 -116t-145.5 -42l-8 -54q50 10 86.5 -14.5t36.5 -65.5t-30 -67.5t-82 -26.5z" />
    <glyph glyph-name="Scaron" unicode="&#x160;" horiz-adv-x="538" 
d="M269 845l151 72l1 -1l-151 -174h-2l-151 174l1 1zM254 -10q-102 0 -194 27v223h2l109 -211q9 -16 22 -18q34 -4 51 -4q67 0 109 32.5t42 94.5q0 48 -31 78.5t-101 64.5l-61 29q-159 74 -159 208q0 89 65 144t171 55q88 0 181 -23v-215h-2l-113 202q-9 17 -22 18
q-12 1 -35 1q-61 0 -98 -34t-37 -92q0 -46 28.5 -75.5t83.5 -55.5l74 -35q86 -41 129 -84t43 -114q0 -94 -70.5 -155t-186.5 -61z" />
    <glyph glyph-name="scaron" unicode="&#x161;" horiz-adv-x="434" 
d="M223 634l151 72l1 -1l-151 -174h-2l-151 174l1 1zM405 150q0 -75 -57.5 -116.5t-146.5 -41.5t-170 31l48 146h2l67 -146q5 -10 18 -12q17 -3 34 -3q46 0 72 24t26 60q0 33 -21.5 51.5t-72.5 41.5l-64 29q-96 44 -96 137q0 67 52.5 107t131.5 40q84 0 162 -25l-46 -136h-2
l-70 130q-8 15 -31 15h-12q-37 0 -61.5 -21t-24.5 -59q0 -32 21 -51.5t63 -37.5l66 -28q54 -23 83 -53t29 -82z" />
    <glyph glyph-name="Tcommaaccent" unicode="&#x162;" horiz-adv-x="617" 
d="M251 -252l-1 2q52 33 55 83q0 10 -9 10q-21 0 -34.5 16.5t-13.5 40.5t16.5 41t41.5 17q27 0 44 -19t17 -51q0 -47 -33.5 -87t-82.5 -53zM378 81q0 -14 11 -22l84 -57v-2h-329v2l83 57q12 8 12 22v603h-88q-12 0 -16.5 -3t-9.5 -15l-104 -210h-2v247h578v-247h-2l-103 210
q-5 12 -9.5 15t-16.5 3h-88v-603z" />
    <glyph glyph-name="tcommaaccent" unicode="&#x163;" horiz-adv-x="322" 
d="M127 -245l-1 2q52 33 55 83q0 10 -9 10q-21 0 -34.5 16.5t-13.5 40.5t16.5 41t41.5 17q27 0 44 -19t17 -51q0 -47 -33.5 -87t-82.5 -53zM194 472v-345q0 -34 14.5 -52.5t40.5 -18.5q23 0 41.5 14t27.5 35l2 -1q-8 -48 -41.5 -80t-93.5 -32q-117 0 -117 124v356h-63v18h51
q16 0 27 13l109 152h2v-165h133v-18h-133z" />
    <glyph glyph-name="Tcaron" unicode="&#x164;" horiz-adv-x="617" 
d="M308 845l151 72l1 -1l-151 -174h-2l-151 174l1 1zM378 81q0 -14 11 -22l84 -57v-2h-329v2l83 57q12 8 12 22v603h-88q-12 0 -16.5 -3t-9.5 -15l-104 -210h-2v247h578v-247h-2l-103 210q-5 12 -9.5 15t-16.5 3h-88v-603z" />
    <glyph glyph-name="tcaron" unicode="&#x165;" horiz-adv-x="322" 
d="M238 510l9 193h102l-109 -193h-2zM194 472v-345q0 -34 14.5 -52.5t40.5 -18.5q23 0 41.5 14t27.5 35l2 -1q-8 -48 -41.5 -80t-93.5 -32q-117 0 -117 124v356h-63v18h51q16 0 27 13l109 152h2v-165h133v-18h-133z" />
    <glyph glyph-name="Tbar" unicode="&#x166;" horiz-adv-x="621" 
d="M516 334h-136v-253q0 -14 11 -22l84 -57v-2h-329v2l83 57q12 8 12 22v253h-136v18h136v332h-88q-12 0 -16.5 -3t-9.5 -15l-104 -210h-2v247h578v-247h-2l-103 210q-5 12 -9.5 15t-16.5 3h-88v-332h136v-18z" />
    <glyph glyph-name="tbar" unicode="&#x167;" horiz-adv-x="333" 
d="M10 333v18h63v121h-63v18h51q16 0 27 13l109 152h2v-165h133v-18h-133v-121h133v-18h-133v-206q0 -34 14.5 -52.5t40.5 -18.5q23 0 41.5 14t27.5 35l2 -1q-8 -48 -41.5 -80t-93.5 -32q-117 0 -117 124v217h-63z" />
    <glyph glyph-name="Utilde" unicode="&#x168;" horiz-adv-x="662" 
d="M342 -10q-135 0 -194.5 57.5t-59.5 172.5v403q0 13 -12 22l-70 56v2h307v-2l-75 -56q-11 -8 -11 -22v-386q0 -215 161 -215q76 0 118 58.5t42 169.5v322q0 18 -15 31l-97 98v2h243v-2l-97 -98q-14 -13 -14 -31v-321q0 -261 -226 -261zM430 774q-24 0 -69.5 23.5
t-66.5 23.5q-43 0 -62 -48h-2q0 10 2 30q5 41 25 64.5t52 23.5q24 0 69 -24t66 -24q45 0 63 48h2q0 -12 -2 -32q-5 -39 -25 -62t-52 -23z" />
    <glyph glyph-name="utilde" unicode="&#x169;" horiz-adv-x="565" 
d="M487 490v-415q0 -15 10 -23l59 -50v-2h-196v111q-42 -119 -148 -119q-143 0 -143 203q0 60 2 220q0 15 -10 24l-60 49v2h196q0 -1 -0.5 -62t-1 -126t-0.5 -77q0 -83 18 -123.5t61 -40.5q50 0 86 61v293q0 15 -10 23l-59 50v2h196zM329 562q-24 0 -69.5 23.5t-66.5 23.5
q-43 0 -62 -48h-2q0 10 2 30q5 41 25 64.5t52 23.5q24 0 69 -24t66 -24q45 0 63 48h2q0 -12 -2 -32q-5 -39 -25 -62t-52 -23z" />
    <glyph glyph-name="Umacron" unicode="&#x16a;" horiz-adv-x="662" 
d="M342 -10q-135 0 -194.5 57.5t-59.5 172.5v403q0 13 -12 22l-70 56v2h307v-2l-75 -56q-11 -8 -11 -22v-386q0 -215 161 -215q76 0 118 58.5t42 169.5v322q0 18 -15 31l-97 98v2h243v-2l-97 -98q-14 -13 -14 -31v-321q0 -261 -226 -261zM497 804h-262v18h262v-18z" />
    <glyph glyph-name="umacron" unicode="&#x16b;" horiz-adv-x="565" 
d="M487 490v-415q0 -15 10 -23l59 -50v-2h-196v111q-42 -119 -148 -119q-143 0 -143 203q0 60 2 220q0 15 -10 24l-60 49v2h196q0 -1 -0.5 -62t-1 -126t-0.5 -77q0 -83 18 -123.5t61 -40.5q50 0 86 61v293q0 15 -10 23l-59 50v2h196zM396 592h-262v18h262v-18z" />
    <glyph glyph-name="Ubreve" unicode="&#x16c;" horiz-adv-x="662" 
d="M342 -10q-135 0 -194.5 57.5t-59.5 172.5v403q0 13 -12 22l-70 56v2h307v-2l-75 -56q-11 -8 -11 -22v-386q0 -215 161 -215q76 0 118 58.5t42 169.5v322q0 18 -15 31l-97 98v2h243v-2l-97 -98q-14 -13 -14 -31v-321q0 -261 -226 -261zM489 878q0 -62 -36.5 -93.5
t-88.5 -31.5q-51 0 -87.5 31.5t-36.5 93.5q0 20 4 40h2q2 -46 34.5 -71.5t83.5 -25.5t84 25.5t35 71.5h2q4 -20 4 -40z" />
    <glyph glyph-name="ubreve" unicode="&#x16d;" horiz-adv-x="565" 
d="M487 490v-415q0 -15 10 -23l59 -50v-2h-196v111q-42 -119 -148 -119q-143 0 -143 203q0 60 2 220q0 15 -10 24l-60 49v2h196q0 -1 -0.5 -62t-1 -126t-0.5 -77q0 -83 18 -123.5t61 -40.5q50 0 86 61v293q0 15 -10 23l-59 50v2h196zM388 666q0 -62 -36.5 -93.5t-88.5 -31.5
q-51 0 -87.5 31.5t-36.5 93.5q0 20 4 40h2q2 -46 34.5 -71.5t83.5 -25.5t84 25.5t35 71.5h2q4 -20 4 -40z" />
    <glyph glyph-name="Uring" unicode="&#x16e;" horiz-adv-x="662" 
d="M456 838q0 -37 -25.5 -61.5t-62.5 -24.5q-36 0 -61.5 25t-25.5 61q0 37 25 62t62 25t62.5 -25t25.5 -62zM436 838q0 29 -19.5 48.5t-48.5 19.5t-48 -19.5t-19 -48.5q0 -28 19.5 -47.5t47.5 -19.5q29 0 48.5 19t19.5 48zM342 -10q-135 0 -194.5 57.5t-59.5 172.5v403
q0 13 -12 22l-70 56v2h307v-2l-75 -56q-11 -8 -11 -22v-386q0 -215 161 -215q76 0 118 58.5t42 169.5v322q0 18 -15 31l-97 98v2h243v-2l-97 -98q-14 -13 -14 -31v-321q0 -261 -226 -261z" />
    <glyph glyph-name="uring" unicode="&#x16f;" horiz-adv-x="565" 
d="M355 626q0 -37 -25.5 -61.5t-62.5 -24.5q-36 0 -61.5 25t-25.5 61q0 37 25 62t62 25t62.5 -25t25.5 -62zM335 626q0 29 -19.5 48.5t-48.5 19.5t-48 -19.5t-19 -48.5q0 -28 19.5 -47.5t47.5 -19.5q29 0 48.5 19t19.5 48zM487 490v-415q0 -15 10 -23l59 -50v-2h-196v111
q-42 -119 -148 -119q-143 0 -143 203q0 60 2 220q0 15 -10 24l-60 49v2h196q0 -1 -0.5 -62t-1 -126t-0.5 -77q0 -83 18 -123.5t61 -40.5q50 0 86 61v293q0 15 -10 23l-59 50v2h196z" />
    <glyph glyph-name="Uhungarumlaut" unicode="&#x170;" horiz-adv-x="662" 
d="M342 -10q-135 0 -194.5 57.5t-59.5 172.5v403q0 13 -12 22l-70 56v2h307v-2l-75 -56q-11 -8 -11 -22v-386q0 -215 161 -215q76 0 118 58.5t42 169.5v322q0 18 -15 31l-97 98v2h243v-2l-97 -98q-14 -13 -14 -31v-321q0 -261 -226 -261zM323 915h115v-2l-174 -170h-2z
M474 915h114v-2l-173 -170h-2z" />
    <glyph glyph-name="uhungarumlaut" unicode="&#x171;" horiz-adv-x="565" 
d="M487 490v-415q0 -15 10 -23l59 -50v-2h-196v111q-42 -119 -148 -119q-143 0 -143 203q0 60 2 220q0 15 -10 24l-60 49v2h196q0 -1 -0.5 -62t-1 -126t-0.5 -77q0 -83 18 -123.5t61 -40.5q50 0 86 61v293q0 15 -10 23l-59 50v2h196zM222 703h115v-2l-174 -170h-2zM373 703
h114v-2l-173 -170h-2z" />
    <glyph glyph-name="Uogonek" unicode="&#x172;" horiz-adv-x="662" 
d="M325 -236q-41 0 -72.5 27t-31.5 74q0 40 30 73.5t82 51.5q-130 2 -187.5 59.5t-57.5 170.5v403q0 13 -12 22l-70 56v2h307v-2l-75 -56q-11 -8 -11 -22v-386q0 -215 161 -215q76 0 118 58.5t42 169.5v322q0 18 -15 31l-97 98v2h243v-2l-97 -98q-14 -13 -14 -31v-321
q0 -257 -220 -261q-57 -34 -57 -96q0 -37 20.5 -57t52.5 -20q47 0 76 40l2 -1q-35 -92 -117 -92z" />
    <glyph glyph-name="uogonek" unicode="&#x173;" horiz-adv-x="565" 
d="M195 225q0 -83 18 -123.5t61 -40.5q50 0 86 61v293q0 15 -10 23l-59 50v2h196v-415q0 -15 10 -23l59 -50v-2h-183q-63 -28 -63 -106q0 -37 21 -57t53 -20q47 0 76 40l2 -1q-35 -92 -117 -92q-42 0 -73.5 27.5t-31.5 74.5q0 45 33.5 83t86.5 51v111q-42 -119 -148 -119
q-143 0 -143 203q0 60 2 220q0 15 -10 24l-60 49v2h196q0 -1 -0.5 -62t-1 -126t-0.5 -77z" />
    <glyph glyph-name="Wcircumflex" unicode="&#x174;" horiz-adv-x="985" 
d="M661 750l-1 -2l-151 72l-151 -72l-1 2l151 173h2zM728 0h-96l-141 443l-142 -443h-96l-199 608q-8 24 -22 40l-42 53v2h270v-2l-60 -60q-9 -9 -4 -25l166 -510l119 369l-42 133q-5 18 -20 39l-38 54v2h265v-2l-60 -60q-9 -9 -4 -24l159 -508l147 459q3 14 1 19t-12 17
l-88 97v2h230v-2l-84 -93q-20 -21 -26 -41z" />
    <glyph glyph-name="wcircumflex" unicode="&#x175;" horiz-adv-x="734" 
d="M537 538l-1 -2l-151 72l-151 -72l-1 2l151 173h2zM752 488l-63 -90q-12 -18 -19 -37l-127 -361h-77l-104 291l-105 -291h-77l-143 401q-7 22 -17 39l-31 48v2h222v-2l-42 -50q-8 -9 -3 -25l108 -311l78 216l-29 83q-8 25 -17 39l-31 48v2h221v-2l-41 -50q-9 -12 -4 -25
l109 -310l91 260q7 18 -4 34l-58 91v2h163v-2z" />
    <glyph glyph-name="Ycircumflex" unicode="&#x176;" horiz-adv-x="616" 
d="M382 278v-197q0 -10 2 -13.5t10 -8.5l83 -57v-2h-329v2l84 57q11 8 11 22v183q0 16 -7 28l-171 317q-9 17 -27 37l-51 55v2h294v-2l-62 -59q-10 -10 -4 -21l157 -298l131 256q8 15 -3 27l-86 95v2h238v-2l-100 -93q-19 -17 -31 -38l-131 -255q-8 -15 -8 -37zM491 750
l-1 -2l-151 72l-151 -72l-1 2l151 173h2z" />
    <glyph glyph-name="ycircumflex" unicode="&#x177;" horiz-adv-x="454" 
d="M56 -236q-23 0 -45 10l36 162h2l76 -99q7 -10 13 -10q5 0 12 10q27 37 63 119l-180 459q-5 13 -18 34l-25 39v2h225v-2l-44 -49q-9 -10 -3 -24l111 -296l95 242q7 18 -2 32l-60 95v2h162v-2l-60 -88q-12 -18 -22 -42l-150 -385q-28 -71 -67 -132q-48 -77 -119 -77z
M404 538l-1 -2l-151 72l-151 -72l-1 2l151 173h2z" />
    <glyph glyph-name="Ydieresis" unicode="&#x178;" horiz-adv-x="616" 
d="M382 278v-197q0 -10 2 -13.5t10 -8.5l83 -57v-2h-329v2l84 57q11 8 11 22v183q0 16 -7 28l-171 317q-9 17 -27 37l-51 55v2h294v-2l-62 -59q-10 -10 -4 -21l157 -298l131 256q8 15 -3 27l-86 95v2h238v-2l-100 -93q-19 -17 -31 -38l-131 -255q-8 -15 -8 -37zM189 834
q0 25 17.5 42.5t42.5 17.5q24 0 41.5 -17.5t17.5 -42.5q0 -24 -17.5 -41t-41.5 -17q-25 0 -42.5 17t-17.5 41zM369 834q0 25 17 42.5t41 17.5q26 0 43.5 -17.5t17.5 -42.5q0 -24 -18 -41t-43 -17q-24 0 -41 17t-17 41z" />
    <glyph glyph-name="Zacute" unicode="&#x179;" horiz-adv-x="599" 
d="M329 915h138v-2l-221 -163l-2 2zM551 246v-246h-538v2l399 682h-204q-23 0 -31 -13l-119 -217h-2v249h520v-2l-400 -682h220q24 0 31 13l122 214h2z" />
    <glyph glyph-name="zacute" unicode="&#x17a;" horiz-adv-x="452" 
d="M258 703h138v-2l-221 -163l-2 2zM310 33l110 167h3l-15 -200h-394v2l278 471h-121q-13 0 -16.5 -2t-10.5 -13l-103 -158h-3v190h398v-2l-275 -470h121q13 0 17 2t11 13z" />
    <glyph glyph-name="Zdotaccent" unicode="&#x17b;" horiz-adv-x="599" 
d="M551 246v-246h-538v2l399 682h-204q-23 0 -31 -13l-119 -217h-2v249h520v-2l-400 -682h220q24 0 31 13l122 214h2zM240 831q0 29 19.5 47.5t47.5 18.5q29 0 48 -18.5t19 -47.5q0 -28 -19 -46.5t-48 -18.5q-28 0 -47.5 18.5t-19.5 46.5z" />
    <glyph glyph-name="zdotaccent" unicode="&#x17c;" horiz-adv-x="452" 
d="M310 33l110 167h3l-15 -200h-394v2l278 471h-121q-13 0 -16.5 -2t-10.5 -13l-103 -158h-3v190h398v-2l-275 -470h121q13 0 17 2t11 13zM169 619q0 29 19.5 47.5t47.5 18.5q29 0 48 -18.5t19 -47.5q0 -28 -19 -46.5t-48 -18.5q-28 0 -47.5 18.5t-19.5 46.5z" />
    <glyph glyph-name="Zcaron" unicode="&#x17d;" horiz-adv-x="599" 
d="M307 845l151 72l1 -1l-151 -174h-2l-151 174l1 1zM551 246v-246h-538v2l399 682h-204q-23 0 -31 -13l-119 -217h-2v249h520v-2l-400 -682h220q24 0 31 13l122 214h2z" />
    <glyph glyph-name="zcaron" unicode="&#x17e;" horiz-adv-x="452" 
d="M236 634l151 72l1 -1l-151 -174h-2l-151 174l1 1zM310 33l110 167h3l-15 -200h-394v2l278 471h-121q-13 0 -16.5 -2t-10.5 -13l-103 -158h-3v190h398v-2l-275 -470h121q13 0 17 2t11 13z" />
    <glyph glyph-name="florin" unicode="&#x192;" horiz-adv-x="440" 
d="M56 292v18h94v199q0 108 43.5 156t131.5 48q71 0 141 -24l-56 -135h-2l-59 130q-4 9 -7 11t-14 2q-28 0 -40 -25t-12 -79v-283h108v-18h-108v-290q0 -124 -43 -181t-129 -57q-70 0 -144 24l56 135h2l58 -129q6 -15 22 -15q18 0 29 7t15.5 23t6 31t1.5 41v411h-94z" />
    <glyph glyph-name="uni01B5" unicode="&#x1b5;" horiz-adv-x="599" 
d="M516 346h-148l-192 -327h220q24 0 31 13l122 214h2v-246h-538v2l201 344h-147v18h158l187 320h-204q-23 0 -31 -13l-119 -217h-2v249h520v-2l-198 -337h138v-18z" />
    <glyph glyph-name="uni01B6" unicode="&#x1b6;" horiz-adv-x="455" 
d="M52 242v18h115l126 213h-121q-13 0 -16.5 -2t-10.5 -13l-103 -158h-3v190h398v-2l-133 -228h103v-18h-114l-131 -224h121q13 0 17 2t11 13l110 167h3l-15 -200h-394v2l141 240h-104z" />
    <glyph glyph-name="Aringacute" unicode="&#x1fa;" horiz-adv-x="637" 
d="M299 979h132v-2l-152 -97q-37 -24 -44 -35q28 26 67 26q36 0 62 -18t26 -49q0 -30 -25.5 -47.5t-61.5 -17.5q-35 0 -61.5 18t-26.5 47q0 17 12 38zM370 805q0 23 -19.5 35.5t-47.5 12.5t-48 -13t-20 -35t20.5 -35t47.5 -13q28 0 47.5 12.5t19.5 35.5zM575 95
q8 -24 22 -40l42 -53v-2h-270v2l60 60q9 9 4 26l-52 158h-229l-38 -115q-5 -16 8 -30l91 -99v-2h-230v2l87 95q19 21 25 39l154 465q5 15 3.5 20.5t-10.5 15.5l-57 64v2h191zM268 594l-110 -329h217z" />
    <glyph glyph-name="aringacute" unicode="&#x1fb;" horiz-adv-x="487" 
d="M233 764h132v-2l-152 -97q-34 -20 -45 -35q28 26 68 26q36 0 62 -18t26 -48t-26 -48t-62 -18q-34 0 -60.5 18.5t-26.5 47.5q0 15 11 37zM304 590q0 23 -20 35.5t-48 12.5t-47.5 -13t-19.5 -35t20 -35t47 -13q28 0 48 12.5t20 35.5zM297 246l2 107v4q0 57 -23 90.5
t-69 33.5q-16 0 -20.5 -2t-9.5 -11l-70 -141h-2l-53 136q89 35 183 35q98 0 140 -41q47 -49 47 -161v-18l-6 -159q-2 -63 33 -63q22 0 30 24h2q1 -16 -7 -34q-10 -24 -32.5 -39t-53.5 -15q-40 0 -66 26.5t-27 75.5q-15 -47 -51 -74.5t-84 -27.5q-56 0 -94.5 36t-38.5 99
q0 70 49.5 109.5t115.5 39.5q65 0 105 -30zM248 247q-45 0 -71 -30t-26 -75q0 -40 19.5 -63t49.5 -23q46 0 75 47l2 136q-21 8 -49 8z" />
    <glyph glyph-name="AEacute" unicode="&#x1fc;" horiz-adv-x="927" 
d="M604 917h138v-2l-221 -163l-2 2zM669 365q15 1 27 17l77 96h2v-244h-2l-77 97q-13 16 -27 16h-98v-307q0 -13 3 -17t14 -4h149q24 0 32 13l105 196h3v-228h-533v2l77 54q12 8 12 22v167h-235l-66 -109q-10 -16 -10 -23t10 -19l77 -92v-2h-235v2l92 86q33 31 40 42
l288 472q8 15 7.5 19.5t-8.5 13.5l-65 66v2h539v-228h-2l-105 192q-9 17 -28 17h-144q-11 0 -14 -4t-3 -17v-298h98zM433 264v365l-223 -365h223z" />
    <glyph glyph-name="aeacute" unicode="&#x1fd;" horiz-adv-x="756" 
d="M418 703h138v-2l-221 -163l-2 2zM188 276q65 0 109 -30q0 3 1 54t1 55q0 58 -23.5 91.5t-69.5 33.5q-15 0 -20 -2.5t-9 -10.5l-70 -139h-2l-56 139q90 31 186 31q85 0 127 -41l15 -19q60 60 149 60q85 0 143.5 -48t58.5 -147q0 -15 -1 -25h-302v-17q0 -95 41 -145.5
t104 -50.5q108 0 155 109h2q-34 -182 -206 -182q-61 0 -112 27.5t-81 81.5q-14 -46 -56 -77.5t-103 -31.5t-101.5 37t-40.5 102q0 68 49.5 106.5t111.5 38.5zM524 482q-92 0 -99 -186h180q1 98 -18.5 142t-62.5 44zM230 55q59 0 95 52q-28 54 -28 132q-26 8 -48 8
q-46 0 -72 -29t-26 -73q0 -41 21.5 -65.5t57.5 -24.5z" />
    <glyph glyph-name="Oslashacute" unicode="&#x1fe;" horiz-adv-x="708" 
d="M355 713q81 0 143 -27l42 94l17 -8l-42 -94q161 -84 161 -326q0 -173 -84 -267.5t-237 -94.5q-73 0 -133 23l-42 -95l-17 8l41 94q-172 79 -172 332q0 172 85 266.5t238 94.5zM191 352q0 -177 44 -263l235 533q-42 74 -115 74q-164 0 -164 -344zM355 7q163 0 163 345
q0 160 -37 248l-235 -531q40 -62 109 -62zM395 915h138v-2l-221 -163l-2 2z" />
    <glyph glyph-name="oslashacute" unicode="&#x1ff;" horiz-adv-x="536" 
d="M416 555l-35 -78q129 -55 129 -232q0 -125 -64.5 -189t-177.5 -64q-50 0 -94 14l-39 -88l-18 9l38 86q-128 54 -128 233q0 125 64.5 188.5t176.5 63.5q51 0 95 -14l35 78zM268 482q-49 0 -73.5 -52.5t-24.5 -183.5q0 -110 16 -162l154 348q-24 50 -72 50zM366 245
q0 102 -16 160l-154 -348q23 -48 72 -48t73.5 52.5t24.5 183.5zM289 703h138v-2l-221 -163l-2 2z" />
    <glyph glyph-name="Scommaaccent" unicode="&#x218;" horiz-adv-x="538" 
d="M211 -245l-1 2q52 33 55 83q0 10 -9 10q-21 0 -34.5 16.5t-13.5 40.5t16.5 41t41.5 17q27 0 44 -19t17 -51q0 -47 -33.5 -87t-82.5 -53zM254 -10q-102 0 -194 27v223h2l109 -211q9 -16 22 -18q34 -4 51 -4q67 0 109 32.5t42 94.5q0 48 -31 78.5t-101 64.5l-61 29
q-159 74 -159 208q0 89 65 144t171 55q88 0 181 -23v-215h-2l-113 202q-9 17 -22 18q-12 1 -35 1q-61 0 -98 -34t-37 -92q0 -46 28.5 -75.5t83.5 -55.5l74 -35q86 -41 129 -84t43 -114q0 -94 -70.5 -155t-186.5 -61z" />
    <glyph glyph-name="scommaaccent" unicode="&#x219;" horiz-adv-x="434" 
d="M166 -252l-1 2q52 33 55 83q0 10 -9 10q-21 0 -34.5 16.5t-13.5 40.5t16.5 41t41.5 17q27 0 44 -19t17 -51q0 -47 -33.5 -87t-82.5 -53zM405 150q0 -75 -57.5 -116.5t-146.5 -41.5t-170 31l48 146h2l67 -146q5 -10 18 -12q17 -3 34 -3q46 0 72 24t26 60q0 33 -21.5 51.5
t-72.5 41.5l-64 29q-96 44 -96 137q0 67 52.5 107t131.5 40q84 0 162 -25l-46 -136h-2l-70 130q-8 15 -31 15h-12q-37 0 -61.5 -21t-24.5 -59q0 -32 21 -51.5t63 -37.5l66 -28q54 -23 83 -53t29 -82z" />
    <glyph glyph-name="uni021A" unicode="&#x21a;" horiz-adv-x="617" 
d="M251 -252l-1 2q52 33 55 83q0 10 -9 10q-21 0 -34.5 16.5t-13.5 40.5t16.5 41t41.5 17q27 0 44 -19t17 -51q0 -47 -33.5 -87t-82.5 -53zM378 81q0 -14 11 -22l84 -57v-2h-329v2l83 57q12 8 12 22v603h-88q-12 0 -16.5 -3t-9.5 -15l-104 -210h-2v247h578v-247h-2l-103 210
q-5 12 -9.5 15t-16.5 3h-88v-603z" />
    <glyph glyph-name="uni021B" unicode="&#x21b;" horiz-adv-x="322" 
d="M127 -245l-1 2q52 33 55 83q0 10 -9 10q-21 0 -34.5 16.5t-13.5 40.5t16.5 41t41.5 17q27 0 44 -19t17 -51q0 -47 -33.5 -87t-82.5 -53zM194 472v-345q0 -34 14.5 -52.5t40.5 -18.5q23 0 41.5 14t27.5 35l2 -1q-8 -48 -41.5 -80t-93.5 -32q-117 0 -117 124v356h-63v18h51
q16 0 27 13l109 152h2v-165h133v-18h-133z" />
    <glyph glyph-name="dotlessj" unicode="&#x237;" horiz-adv-x="272" 
d="M-5 -219q-19 0 -29 2v2q59 8 88.5 56.5t29.5 147.5v426q0 14 -10 23l-59 50v2h195v-462q0 -112 -55 -179.5t-160 -67.5z" />
    <glyph glyph-name="circumflex" unicode="&#x2c6;" horiz-adv-x="404" 
d="M354 538l-1 -2l-151 72l-151 -72l-1 2l151 173h2z" />
    <glyph glyph-name="caron" unicode="&#x2c7;" horiz-adv-x="404" 
d="M202 639l151 72l1 -1l-151 -174h-2l-151 174l1 1z" />
    <glyph glyph-name="uni02C9" unicode="&#x2c9;" horiz-adv-x="372" 
d="M314 592h-261v18h261v-18z" />
    <glyph glyph-name="breve" unicode="&#x2d8;" horiz-adv-x="349" 
d="M299 666q0 -62 -36.5 -93.5t-88.5 -31.5q-51 0 -87.5 31.5t-36.5 93.5q0 20 4 40h2q2 -46 34.5 -71.5t83.5 -25.5t84 25.5t35 71.5h2q4 -20 4 -40z" />
    <glyph glyph-name="dotaccent" unicode="&#x2d9;" horiz-adv-x="234" 
d="M50 619q0 29 19.5 47.5t47.5 18.5q29 0 48 -18.5t19 -47.5q0 -28 -19 -46.5t-48 -18.5q-28 0 -47.5 18.5t-19.5 46.5z" />
    <glyph glyph-name="ring" unicode="&#x2da;" horiz-adv-x="275" 
d="M225 626q0 -37 -25.5 -61.5t-62.5 -24.5q-36 0 -61.5 25t-25.5 61q0 37 25 62t62 25t62.5 -25t25.5 -62zM205 626q0 29 -19.5 48.5t-48.5 19.5t-48 -19.5t-19 -48.5q0 -28 19.5 -47.5t47.5 -19.5q29 0 48.5 19t19.5 48z" />
    <glyph glyph-name="ogonek" unicode="&#x2db;" horiz-adv-x="321" 
d="M269 -143l2 -1q-35 -92 -117 -92q-41 0 -72.5 27.5t-31.5 74.5q0 44 38 81t102 54l2 -1q-72 -35 -72 -106q0 -37 21 -57t53 -20q48 0 75 40z" />
    <glyph glyph-name="tilde" unicode="&#x2dc;" horiz-adv-x="379" 
d="M250 562q-24 0 -69.5 23.5t-66.5 23.5q-43 0 -62 -48h-2q0 10 2 30q5 41 25 64.5t52 23.5q24 0 69 -24t66 -24q45 0 63 48h2q0 -12 -2 -32q-5 -39 -25 -62t-52 -23z" />
    <glyph glyph-name="hungarumlaut" unicode="&#x2dd;" horiz-adv-x="426" 
d="M111 703h115v-2l-174 -170h-2zM262 703h114v-2l-173 -170h-2z" />
    <glyph glyph-name="uni0394" unicode="&#x394;" horiz-adv-x="652" 
d="M30 0l234 598q6 16 4.5 24t-12.5 20l-57 59v2h192l243 -703h-604zM483 19l-200 572l-225 -572h425z" />
    <glyph glyph-name="uni03A9" unicode="&#x3a9;" horiz-adv-x="722" 
d="M361 696q-77 0 -121 -77.5t-44 -238.5q0 -237 133 -283v-97h-288l-8 217h2l109 -183q6 -10 13 -12.5t24 -2.5h129v64q-116 20 -194.5 104.5t-78.5 207.5q0 142 85 230t239 88t239 -88t85 -230q0 -123 -78.5 -207.5t-194.5 -104.5v-64h129q18 0 24.5 2t12.5 13l109 183h2
l-8 -217h-288v97q133 47 133 283q0 161 -44 238.5t-121 77.5z" />
    <glyph glyph-name="uni03BC" unicode="&#x3bc;" horiz-adv-x="566" 
d="M488 72q0 -16 10 -24l59 -46v-2h-196v112q-16 -52 -52 -83t-82 -31q-15 0 -31 4v-154q0 -16 14 -24l83 -50v-2h-293v2l61 43q10 7 10 22v580q0 15 -10 23l-59 46v2h194v-285q0 -81 18 -113.5t60 -32.5q52 0 87 63v296q0 15 -10 24l-59 46v2h196v-418z" />
    <glyph glyph-name="pi" unicode="&#x3c0;" horiz-adv-x="606" 
d="M514 415v-348q0 -15 10 -22l60 -43v-2h-265v2l58 43q11 8 11 22v405h-171v-405q0 -13 11 -22l59 -43v-2h-265v2l59 43q10 8 10 22v348q0 15 -10 23l-59 50v2h562v-2l-60 -50q-10 -8 -10 -23z" />
    <glyph glyph-name="Wgrave" unicode="&#x1e80;" horiz-adv-x="985" 
d="M728 0h-96l-141 443l-142 -443h-96l-199 608q-8 24 -22 40l-42 53v2h270v-2l-60 -60q-9 -9 -4 -25l166 -510l119 369l-42 133q-5 18 -20 39l-38 54v2h265v-2l-60 -60q-9 -9 -4 -24l159 -508l147 459q3 14 1 19t-12 17l-88 97v2h230v-2l-84 -93q-20 -21 -26 -41zM351 915
h139l84 -163l-2 -2l-221 163v2z" />
    <glyph glyph-name="wgrave" unicode="&#x1e81;" horiz-adv-x="734" 
d="M752 488l-63 -90q-12 -18 -19 -37l-127 -361h-77l-104 291l-105 -291h-77l-143 401q-7 22 -17 39l-31 48v2h222v-2l-42 -50q-8 -9 -3 -25l108 -311l78 216l-29 83q-8 25 -17 39l-31 48v2h221v-2l-41 -50q-9 -12 -4 -25l109 -310l91 260q7 18 -4 34l-58 91v2h163v-2z
M227 703h139l84 -163l-2 -2l-221 163v2z" />
    <glyph glyph-name="Wacute" unicode="&#x1e82;" horiz-adv-x="985" 
d="M531 915h138v-2l-221 -163l-2 2zM728 0h-96l-141 443l-142 -443h-96l-199 608q-8 24 -22 40l-42 53v2h270v-2l-60 -60q-9 -9 -4 -25l166 -510l119 369l-42 133q-5 18 -20 39l-38 54v2h265v-2l-60 -60q-9 -9 -4 -24l159 -508l147 459q3 14 1 19t-12 17l-88 97v2h230v-2
l-84 -93q-20 -21 -26 -41z" />
    <glyph glyph-name="wacute" unicode="&#x1e83;" horiz-adv-x="734" 
d="M407 703h138v-2l-221 -163l-2 2zM752 488l-63 -90q-12 -18 -19 -37l-127 -361h-77l-104 291l-105 -291h-77l-143 401q-7 22 -17 39l-31 48v2h222v-2l-42 -50q-8 -9 -3 -25l108 -311l78 216l-29 83q-8 25 -17 39l-31 48v2h221v-2l-41 -50q-9 -12 -4 -25l109 -310l91 260
q7 18 -4 34l-58 91v2h163v-2z" />
    <glyph glyph-name="Wdieresis" unicode="&#x1e84;" horiz-adv-x="985" 
d="M360 834q0 25 17.5 42.5t42.5 17.5q24 0 41.5 -17.5t17.5 -42.5q0 -24 -17.5 -41t-41.5 -17q-25 0 -42.5 17t-17.5 41zM540 834q0 25 17 42.5t41 17.5q26 0 43.5 -17.5t17.5 -42.5q0 -24 -18 -41t-43 -17q-24 0 -41 17t-17 41zM728 0h-96l-141 443l-142 -443h-96
l-199 608q-8 24 -22 40l-42 53v2h270v-2l-60 -60q-9 -9 -4 -25l166 -510l119 369l-42 133q-5 18 -20 39l-38 54v2h265v-2l-60 -60q-9 -9 -4 -24l159 -508l147 459q3 14 1 19t-12 17l-88 97v2h230v-2l-84 -93q-20 -21 -26 -41z" />
    <glyph glyph-name="wdieresis" unicode="&#x1e85;" horiz-adv-x="734" 
d="M236 622q0 25 17.5 42.5t42.5 17.5q24 0 41.5 -17.5t17.5 -42.5q0 -24 -17.5 -41t-41.5 -17q-25 0 -42.5 17t-17.5 41zM416 622q0 25 17 42.5t41 17.5q26 0 43.5 -17.5t17.5 -42.5q0 -24 -18 -41t-43 -17q-24 0 -41 17t-17 41zM752 488l-63 -90q-12 -18 -19 -37
l-127 -361h-77l-104 291l-105 -291h-77l-143 401q-7 22 -17 39l-31 48v2h222v-2l-42 -50q-8 -9 -3 -25l108 -311l78 216l-29 83q-8 25 -17 39l-31 48v2h221v-2l-41 -50q-9 -12 -4 -25l109 -310l91 260q7 18 -4 34l-58 91v2h163v-2z" />
    <glyph glyph-name="uni1E8A" unicode="&#x1e8a;" horiz-adv-x="680" 
d="M627 57l60 -55v-2h-301v2l53 50q13 12 3 26l-142 223l-129 -184q-13 -17 -2 -28l86 -87v-2h-261v2l113 81q29 20 45 42l136 194l-186 293q-10 15 -31 34l-61 55v2h302v-2l-54 -50q-8 -7 -8 -12t6 -14l124 -196l110 157q13 17 2 28l-86 87v2h261v-2l-113 -81
q-29 -20 -45 -42l-117 -167l204 -320q10 -15 31 -34zM300 831q0 29 19.5 47.5t47.5 18.5q29 0 48 -18.5t19 -47.5q0 -28 -19 -46.5t-48 -18.5q-28 0 -47.5 18.5t-19.5 46.5z" />
    <glyph glyph-name="uni1E8B" unicode="&#x1e8b;" horiz-adv-x="489" 
d="M199 210l-138 203q-14 21 -32 38l-40 37v2h255v-2l-50 -41q-10 -8 0 -23l84 -124l73 95q7 10 7.5 14t-6.5 13l-54 66v2h192v-2l-93 -73q-19 -14 -36 -36l-73 -94l142 -208q12 -17 31 -36l40 -39v-2h-255v2l51 42q10 8 -1 23l-87 128l-76 -99q-8 -10 -8 -14.5t7 -13.5
l54 -66v-2h-192v2l93 73q16 13 36 37zM196 619q0 29 19.5 47.5t47.5 18.5q29 0 48 -18.5t19 -47.5q0 -28 -19 -46.5t-48 -18.5q-28 0 -47.5 18.5t-19.5 46.5z" />
    <glyph glyph-name="Ygrave" unicode="&#x1ef2;" horiz-adv-x="616" 
d="M382 278v-197q0 -10 2 -13.5t10 -8.5l83 -57v-2h-329v2l84 57q11 8 11 22v183q0 16 -7 28l-171 317q-9 17 -27 37l-51 55v2h294v-2l-62 -59q-10 -10 -4 -21l157 -298l131 256q8 15 -3 27l-86 95v2h238v-2l-100 -93q-19 -17 -31 -38l-131 -255q-8 -15 -8 -37zM181 915h139
l84 -163l-2 -2l-221 163v2z" />
    <glyph glyph-name="ygrave" unicode="&#x1ef3;" horiz-adv-x="454" 
d="M56 -236q-23 0 -45 10l36 162h2l76 -99q7 -10 13 -10q5 0 12 10q27 37 63 119l-180 459q-5 13 -18 34l-25 39v2h225v-2l-44 -49q-9 -10 -3 -24l111 -296l95 242q7 18 -2 32l-60 95v2h162v-2l-60 -88q-12 -18 -22 -42l-150 -385q-28 -71 -67 -132q-48 -77 -119 -77z
M94 703h139l84 -163l-2 -2l-221 163v2z" />
    <glyph glyph-name="endash" unicode="&#x2013;" horiz-adv-x="500" 
d="M495 235h-490v18h490v-18z" />
    <glyph glyph-name="emdash" unicode="&#x2014;" horiz-adv-x="1000" 
d="M995 235h-990v18h990v-18z" />
    <glyph glyph-name="quoteleft" unicode="&#x2018;" horiz-adv-x="203" 
d="M168 719l1 -2q-28 -16 -45 -45t-17 -59q0 -10 11 -11q22 -3 36.5 -20.5t14.5 -41.5q0 -26 -18 -44t-45 -18q-29 0 -48.5 20t-19.5 54q0 54 36.5 103t93.5 64z" />
    <glyph glyph-name="quoteright" unicode="&#x2019;" horiz-adv-x="203" 
d="M38 472l-1 2q28 16 45 44.5t17 59.5q0 8 -12 11q-22 4 -36.5 20.5t-14.5 40.5q0 26 18 44.5t45 18.5q30 0 49 -20t19 -54q0 -54 -36 -103t-93 -64z" />
    <glyph glyph-name="quotesinglbase" unicode="&#x201a;" horiz-adv-x="203" 
d="M37 -104l-1 2q28 16 45.5 45t17.5 59q0 10 -12 11q-22 3 -36.5 20.5t-14.5 41.5q0 26 18 44t45 18q30 0 49 -20t19 -54q0 -54 -36.5 -103t-93.5 -64z" />
    <glyph glyph-name="quotedblleft" unicode="&#x201c;" horiz-adv-x="375" 
d="M340 719l1 -2q-28 -16 -45 -45t-17 -59q0 -10 11 -11q22 -3 36.5 -20.5t14.5 -41.5q0 -26 -17.5 -44t-44.5 -18q-30 0 -49 20t-19 54q0 54 36 103t93 64zM168 719l1 -2q-28 -16 -45 -45t-17 -59q0 -10 11 -11q22 -3 36.5 -20.5t14.5 -41.5q0 -26 -18 -44t-45 -18
q-29 0 -48.5 20t-19.5 54q0 54 36.5 103t93.5 64z" />
    <glyph glyph-name="quotedblright" unicode="&#x201d;" horiz-adv-x="376" 
d="M38 472l-1 2q28 16 45 44.5t17 59.5q0 8 -12 11q-23 5 -37 21t-14 40q0 26 18 44.5t45 18.5q30 0 49 -20t19 -54q0 -54 -36 -103t-93 -64zM210 472l-1 2q28 16 45 44.5t17 59.5q0 9 -11 11q-23 5 -37 21t-14 40q0 26 18 44.5t45 18.5q29 0 48.5 -20t19.5 -54
q0 -54 -36 -103t-94 -64z" />
    <glyph glyph-name="quotedblbase" unicode="&#x201e;" horiz-adv-x="375" 
d="M209 -104l-1 2q28 16 45.5 45t17.5 59q0 10 -12 11q-22 3 -36.5 20.5t-14.5 41.5q0 26 18 44t45 18q30 0 49 -20t19 -54q0 -54 -36.5 -103t-93.5 -64zM37 -104l-1 2q28 16 45.5 45t17.5 59q0 10 -12 11q-22 3 -36.5 20.5t-14.5 41.5q0 26 18 44t45 18q30 0 49 -20t19 -54
q0 -54 -36.5 -103t-93.5 -64z" />
    <glyph glyph-name="dagger" unicode="&#x2020;" horiz-adv-x="430" 
d="M375 514h-151v-384h-19v384h-150v18h150v171h19v-171h151v-18z" />
    <glyph glyph-name="daggerdbl" unicode="&#x2021;" horiz-adv-x="430" 
d="M55 514v18h150v171h19v-171h151v-18h-151v-195h151v-18h-151v-171h-19v171h-150v18h150v195h-150z" />
    <glyph glyph-name="bullet" unicode="&#x2022;" horiz-adv-x="346" 
d="M70 354q0 44 30 72.5t73 28.5t73 -28.5t30 -72.5q0 -43 -29.5 -70t-73.5 -27q-43 0 -73 27t-30 70z" />
    <glyph glyph-name="ellipsis" unicode="&#x2026;" horiz-adv-x="651" 
d="M48 60q0 30 20 50t50 20t50.5 -20t20.5 -50q0 -29 -20.5 -49t-50.5 -20q-29 0 -49.5 20t-20.5 49zM255 60q0 30 20.5 50t49.5 20q30 0 50.5 -20t20.5 -50q0 -29 -20.5 -49t-50.5 -20q-29 0 -49.5 20t-20.5 49zM463 60q0 30 20 50t50 20t50 -20t20 -50q0 -29 -20.5 -49
t-49.5 -20t-49.5 20t-20.5 49z" />
    <glyph glyph-name="perthousand" unicode="&#x2030;" horiz-adv-x="934" 
d="M776 274q-30 0 -39.5 -30.5t-9.5 -104.5q0 -73 9.5 -103.5t39.5 -30.5t39.5 30t9.5 104t-9.5 104.5t-39.5 30.5zM776 288q66 0 99.5 -40t33.5 -109q0 -68 -33.5 -108t-99.5 -40q-65 0 -98.5 40t-33.5 108t33.5 108.5t98.5 40.5zM192 699q-30 0 -39.5 -30.5t-9.5 -104.5
q0 -73 9.5 -103.5t39.5 -30.5t39.5 30t9.5 104t-9.5 104.5t-39.5 30.5zM192 713q66 0 99.5 -40t33.5 -109q0 -68 -33.5 -108t-99.5 -40q-65 0 -98.5 40t-33.5 108t33.5 108.5t98.5 40.5zM463 274q-30 0 -39.5 -30.5t-9.5 -104.5q0 -73 9.5 -103.5t39.5 -30.5t39.5 30
t9.5 104t-9.5 104.5t-39.5 30.5zM463 288q66 0 99.5 -40t33.5 -109q0 -68 -33.5 -108t-99.5 -40q-65 0 -98.5 40t-33.5 108t33.5 108.5t98.5 40.5zM588 701l-503 -711l-16 13l503 710z" />
    <glyph glyph-name="guilsinglleft" unicode="&#x2039;" horiz-adv-x="271" 
d="M29 252l212 213l1 -1l-96 -213l96 -213l-1 -1l-212 213v2z" />
    <glyph glyph-name="guilsinglright" unicode="&#x203a;" horiz-adv-x="271" 
d="M242 250l-212 -213l-1 1l95 213l-95 213l1 1l212 -213v-2z" />
    <glyph glyph-name="fraction" unicode="&#x2044;" horiz-adv-x="48" 
d="M293 701l-503 -711l-16 13l503 710z" />
    <glyph glyph-name="Euro" unicode="&#x20ac;" horiz-adv-x="680" 
d="M476 283h-216q17 -276 186 -276q13 0 22 1q25 3 33 17l125 217h2v-235q-85 -17 -188 -17q-154 0 -238 77.5t-100 215.5h-71v18h70q-2 30 -2 48q0 32 2 48h-70v18h72q17 138 102 218t226 80q103 0 197 -21v-226h-2l-124 211q-6 10 -12.5 13t-21.5 5q-10 1 -32 1
q-159 0 -176 -281h216v-18h-217q-1 -15 -1 -46q0 -34 1 -50h217v-18z" />
    <glyph glyph-name="trademark" unicode="&#x2122;" horiz-adv-x="830" 
d="M432 428q0 -15 10 -23l45 -40v-2h-127v2l46 40q8 7 8 23v229q0 9 -5 14l-39 30v2h121l93 -217l87 217h119v-2l-39 -27q-6 -4 -6 -11v-262q0 -6 7 -11l38 -25v-2h-168v2l38 25q6 4 6 11v215q0 22 1 32l-113 -289h-1l-110 253l-11 30v-214zM224 404q0 -8 5 -12l37 -27v-2
h-166v2l38 27q6 4 6 12v282h-40q-9 0 -14 -9l-55 -94h-2l7 120h288l6 -120h-2l-54 94q-6 9 -15 9h-39v-282z" />
    <glyph glyph-name="Omega" unicode="&#x2126;" horiz-adv-x="722" 
d="M361 696q-77 0 -121 -77.5t-44 -238.5q0 -237 133 -283v-97h-288l-8 217h2l109 -183q6 -10 13 -12.5t24 -2.5h129v64q-116 20 -194.5 104.5t-78.5 207.5q0 142 85 230t239 88t239 -88t85 -230q0 -123 -78.5 -207.5t-194.5 -104.5v-64h129q18 0 24.5 2t12.5 13l109 183h2
l-8 -217h-288v97q133 47 133 283q0 161 -44 238.5t-121 77.5z" />
    <glyph glyph-name="estimated" unicode="&#x212e;" horiz-adv-x="664" 
d="M599 235h-508q3 -101 72.5 -163.5t170.5 -62.5q81 0 144 43t87 116l21 -7q-26 -79 -94.5 -125t-157.5 -46q-112 0 -188 70t-76 184q0 115 75.5 184.5t188.5 69.5t189 -69.5t76 -184.5v-9zM334 480q-100 0 -169.5 -62.5t-73.5 -163.5h487q-4 101 -74 163.5t-170 62.5z" />
    <glyph glyph-name="uni2153" unicode="&#x2153;" horiz-adv-x="485" 
d="M60 343v18h365v-18h-365zM285 464q0 -8 7 -11l65 -32v-1h-221v1l65 32q7 3 7 11v186q0 7 -7 9l-71 22v2l155 33v-252zM370 82q0 -37 -36.5 -61.5t-101.5 -24.5q-68 0 -117 18l50 97h2l28 -91q3 -7 10 -8q8 -1 23 -1q27 0 44.5 18.5t17.5 51.5q0 63 -82 67v2q73 12 73 75
q0 53 -46 53h-18q-7 0 -12 -8l-41 -90h-2l-40 91q56 22 120 22q117 0 117 -70q0 -53 -79 -69v-2q43 -2 66.5 -20.5t23.5 -49.5z" />
    <glyph glyph-name="uni2154" unicode="&#x2154;" horiz-adv-x="485" 
d="M60 343v18h365v-18h-365zM370 82q0 -37 -36.5 -61.5t-101.5 -24.5q-68 0 -117 18l50 97h2l28 -91q3 -7 10 -8q8 -1 23 -1q27 0 44.5 18.5t17.5 51.5q0 63 -82 67v2q73 12 73 75q0 53 -46 53h-18q-7 0 -12 -8l-41 -90h-2l-40 91q56 22 120 22q117 0 117 -70q0 -53 -79 -69
v-2q43 -2 66.5 -20.5t23.5 -49.5zM366 522l-14 -102h-240v2q54 48 96 90q73 71 73 123q0 63 -54 63h-12q-9 0 -12 -8l-41 -92h-2l-40 93q59 22 118 22t92 -21.5t33 -60.5q0 -45 -38.5 -76t-130.5 -73v-2h105q21 0 29 8l36 34h2z" />
    <glyph glyph-name="uni2155" unicode="&#x2155;" horiz-adv-x="485" 
d="M60 343v18h365v-18h-365zM285 716v-252q0 -8 7 -11l65 -32v-1h-221v1l65 32q7 3 7 11v186q0 7 -7 9l-71 22v2zM367 92q0 -96 -134 -96q-71 0 -118 19l50 94h1l28 -87q4 -10 14 -11q8 -1 20 -1q27 0 44 20t17 53q0 31 -20 49.5t-59 18.5q-33 0 -66 -15l-2 1l8 153
q75 -3 106 -3q25 0 41 1q38 2 48 13l7 8h2l-4 -38q-4 -43 -46 -43h-53q-38 0 -89 3l-5 -77q51 28 100 28q52 0 81 -25.5t29 -64.5z" />
    <glyph glyph-name="uni2156" unicode="&#x2156;" horiz-adv-x="485" 
d="M60 361v-18h365v18h-365zM367 92q0 -96 -134 -96q-71 0 -118 19l50 94h1l28 -87q4 -10 14 -11q8 -1 20 -1q27 0 44 20t17 53q0 31 -20 49.5t-59 18.5q-33 0 -66 -15l-2 1l8 153q49 -3 106 -3q25 0 41 1q38 2 48 13l7 8h2l-4 -38q-4 -43 -46 -43h-53q-38 0 -89 3l-5 -77
q51 28 100 28q52 0 81 -25.5t29 -64.5zM366 522l-14 -102h-240v2q54 48 96 90q73 71 73 123q0 63 -54 63h-12q-9 0 -12 -8l-41 -92h-2l-40 93q59 22 118 22t92 -21.5t33 -60.5q0 -45 -38.5 -76t-130.5 -73v-2h105q21 0 29 8l36 34h2z" />
    <glyph glyph-name="uni2157" unicode="&#x2157;" horiz-adv-x="485" 
d="M60 343v18h365v-18h-365zM367 92q0 -96 -134 -96q-71 0 -118 19l50 94h1l28 -87q4 -10 14 -11q8 -1 20 -1q27 0 44 20t17 53q0 31 -20 49.5t-59 18.5q-33 0 -66 -15l-2 1l8 153q51 -3 106 -3q25 0 41 1q38 2 48 13l7 8h2l-4 -38q-4 -43 -46 -43h-53q-38 0 -89 3l-5 -77
q51 28 100 28q52 0 81 -25.5t29 -64.5zM370 502q0 -37 -36.5 -61.5t-101.5 -24.5q-68 0 -117 18l50 97h2l28 -91q3 -7 10 -8q8 -1 23 -1q27 0 44.5 18.5t17.5 51.5q0 63 -82 67v2q73 12 73 75q0 53 -46 53h-18q-7 0 -12 -8l-41 -90h-2l-40 91q56 22 120 22q117 0 117 -70
q0 -53 -79 -69v-2q43 -2 66.5 -20.5t23.5 -49.5z" />
    <glyph glyph-name="uni2158" unicode="&#x2158;" horiz-adv-x="485" 
d="M60 343v18h365v-18h-365zM308 709v-202h15q10 0 15 8l47 82h2l-7 -105h-72v-33q0 -6 7 -11l42 -27v-1h-173v1l45 27q6 4 6 11v33h-143v2l158 215h58zM122 507h113v154zM162 231l-5 -77q51 28 100 28q52 0 81 -25.5t29 -64.5q0 -96 -134 -96q-71 0 -118 19l50 94h1l28 -87
q4 -10 14 -11q8 -1 20 -1q27 0 44 20t17 53q0 31 -20 49.5t-59 18.5q-33 0 -66 -15l-2 1l8 153q60 -3 106 -3q25 0 41 1q38 2 48 13l7 8h2l-4 -38q-4 -43 -46 -43h-53q-38 0 -89 3z" />
    <glyph glyph-name="uni2159" unicode="&#x2159;" horiz-adv-x="485" 
d="M60 343v18h365v-18h-365zM285 716v-252q0 -8 7 -11l65 -32v-1h-221v1l65 32q7 3 7 11v186q0 7 -7 9l-71 22v2zM274 182q43 0 69.5 -24t26.5 -64q0 -43 -33 -70.5t-90 -27.5q-69 0 -102.5 39.5t-33.5 108.5t37 109t107 40q54 0 104 -14l-35 -82h-2l-45 75q-5 6 -12 6h-12
q-35 0 -47 -31.5t-12 -99.5q35 35 80 35zM244 159q-24 0 -50 -23q0 -70 11.5 -98t42.5 -28q43 0 43 79q0 70 -47 70z" />
    <glyph glyph-name="uni215A" unicode="&#x215a;" horiz-adv-x="485" 
d="M60 343v18h365v-18h-365zM233 416q-71 0 -118 19l50 94h1l28 -87q4 -10 14 -11q8 -1 20 -1q27 0 44 20t17 53q0 31 -20 49.5t-59 18.5q-33 0 -66 -15l-2 1l8 153q48 -3 106 -3q25 0 41 1q38 2 48 13l7 8h2l-4 -38q-4 -43 -46 -43h-53q-38 0 -89 3l-5 -77q51 28 100 28
q52 0 81 -25.5t29 -64.5q0 -96 -134 -96zM274 182q43 0 69.5 -24t26.5 -64q0 -43 -33 -70.5t-90 -27.5q-69 0 -102.5 39.5t-33.5 108.5t37 109t107 40q54 0 104 -14l-35 -82h-2l-45 75q-5 6 -12 6h-12q-35 0 -47 -31.5t-12 -99.5q35 35 80 35zM244 159q-24 0 -50 -23
q0 -70 11.5 -98t42.5 -28q43 0 43 79q0 70 -47 70z" />
    <glyph glyph-name="uni215B" unicode="&#x215b;" horiz-adv-x="485" 
d="M60 343v18h365v-18h-365zM239 -4q-52 0 -86.5 21t-34.5 51q0 48 75 62q-62 24 -62 82q0 35 30 58t81 23q48 0 79 -20t31 -47q0 -50 -74 -58l27 -11q65 -26 65 -75q0 -38 -34 -62t-97 -24zM259 105l-58 22q-21 -19 -21 -55q0 -25 18 -43.5t47 -18.5t44 13t15 32
q0 33 -45 50zM193 234q0 -31 52 -53l25 -10q23 19 23 52q0 23 -14.5 39.5t-37.5 16.5q-22 0 -35 -14t-13 -31zM357 421v-1h-221v1l65 32q7 3 7 11v186q0 7 -7 9l-71 22v2l155 33v-252q0 -8 7 -11z" />
    <glyph glyph-name="uni215C" unicode="&#x215c;" horiz-adv-x="485" 
d="M425 361v-18h-365v18h365zM239 -4q-52 0 -86.5 21t-34.5 51q0 48 75 62q-62 24 -62 82q0 35 30 58t81 23q48 0 79 -20t31 -47q0 -50 -74 -58l27 -11q65 -26 65 -75q0 -38 -34 -62t-97 -24zM259 105l-58 22q-21 -19 -21 -55q0 -25 18 -43.5t47 -18.5t44 13t15 32
q0 33 -45 50zM193 234q0 -33 52 -53l25 -10q23 19 23 52q0 23 -14.5 39.5t-37.5 16.5q-22 0 -35 -14t-13 -31zM370 502q0 -37 -36.5 -61.5t-101.5 -24.5q-68 0 -117 18l50 97h2l28 -91q3 -7 10 -8q8 -1 23 -1q27 0 44.5 18.5t17.5 51.5q0 63 -82 67v2q73 12 73 75
q0 53 -46 53h-18q-7 0 -12 -8l-41 -90h-2l-40 91q56 22 120 22q117 0 117 -70q0 -53 -79 -69v-2q43 -2 66.5 -20.5t23.5 -49.5z" />
    <glyph glyph-name="uni215D" unicode="&#x215d;" horiz-adv-x="485" 
d="M60 343v18h365v-18h-365zM239 -4q-52 0 -86.5 21t-34.5 51q0 48 75 62q-62 24 -62 82q0 35 30 58t81 23q48 0 79 -20t31 -47q0 -50 -74 -58l27 -11q65 -25 65 -75q0 -38 -34 -62t-97 -24zM259 105l-58 22q-21 -19 -21 -55q0 -25 18 -43.5t47 -18.5t44 13t15 32
q0 32 -45 50zM193 234q0 -33 52 -53l25 -10q23 19 23 52q0 23 -14.5 39.5t-37.5 16.5q-22 0 -35 -14t-13 -31zM367 512q0 -96 -134 -96q-71 0 -118 19l50 94h1l28 -87q4 -10 14 -11q8 -1 20 -1q27 0 44 20t17 53q0 31 -20 49.5t-59 18.5q-33 0 -66 -15l-2 1l8 153
q56 -3 106 -3q25 0 41 1q38 2 48 13l7 8h2l-4 -38q-4 -43 -46 -43h-53q-38 0 -89 3l-5 -77q51 28 100 28q52 0 81 -25.5t29 -64.5z" />
    <glyph glyph-name="uni215E" unicode="&#x215e;" horiz-adv-x="485" 
d="M424 361v-18h-364v18h364zM239 -4q-52 0 -86.5 21t-34.5 51q0 48 75 62q-62 24 -62 82q0 35 30 58t81 23q48 0 79 -20t31 -47q0 -50 -74 -58l27 -11q65 -25 65 -75q0 -38 -34 -62t-97 -24zM259 105l-58 22q-21 -19 -21 -55q0 -25 18 -43.5t47 -18.5t44 13t15 32
q0 32 -45 50zM193 234q0 -33 52 -53l25 -10q23 19 23 52q0 23 -14.5 39.5t-37.5 16.5q-22 0 -35 -14t-13 -31zM268 420h-98q80 138 159 234h-147q-17 0 -26 -9l-26 -27h-1l12 91h249l-34 -39q-8 -8 -11 -15q-35 -83 -77 -235z" />
    <glyph glyph-name="uni2190" unicode="&#x2190;" horiz-adv-x="706" 
d="M651 241h-562l229 -229l-12 -14l-251 251l251 251l13 -13l-230 -229h562v-17z" />
    <glyph glyph-name="uni2191" unicode="&#x2191;" horiz-adv-x="612" 
d="M314 -49h-18v562l-228 -230l-13 13l251 251l251 -251l-13 -13l-230 230v-562z" />
    <glyph glyph-name="uni2192" unicode="&#x2192;" horiz-adv-x="706" 
d="M55 258h562l-230 229l13 13l251 -251l-251 -251l-12 14l229 229h-562v17z" />
    <glyph glyph-name="uni2193" unicode="&#x2193;" horiz-adv-x="612" 
d="M296 530h18v-562l230 230l13 -13l-251 -251l-251 251l13 13l228 -230v562z" />
    <glyph glyph-name="uni2196" unicode="&#x2196;" horiz-adv-x="539" 
d="M474 32l-396 396v-325h-18v356h354v-17h-324l398 -397z" />
    <glyph glyph-name="uni2197" unicode="&#x2197;" horiz-adv-x="539" 
d="M479 103h-18v325l-396 -396l-14 13l398 397h-324v17h354v-356z" />
    <glyph glyph-name="uni2198" unicode="&#x2198;" horiz-adv-x="539" 
d="M51 445l14 13l396 -396v325h18v-356h-354v17h324z" />
    <glyph glyph-name="uni2199" unicode="&#x2199;" horiz-adv-x="539" 
d="M474 458l14 -13l-398 -397h324v-17h-354v356h18v-325z" />
    <glyph glyph-name="partialdiff" unicode="&#x2202;" horiz-adv-x="528" 
d="M258 -8q-99 0 -164.5 66.5t-65.5 180.5q0 115 59.5 183.5t144.5 68.5q81 0 120 -63q-45 220 -226 283v2q2 0 9 -0.5t9 -1.5q175 -30 265 -147t90 -283q0 -289 -241 -289zM367 266q0 79 -12 145q-34 43 -82 43q-52 0 -78.5 -63.5t-26.5 -157.5q0 -101 24.5 -162.5
t68.5 -61.5q106 0 106 257z" />
    <glyph glyph-name="Delta" unicode="&#x2206;" horiz-adv-x="663" 
d="M30 0l234 598q6 16 4.5 24t-12.5 20l-57 59v2h192l243 -703h-604zM483 19l-200 572l-225 -572h425z" />
    <glyph glyph-name="product" unicode="&#x220f;" horiz-adv-x="757" 
d="M652 625v-547q0 -14 12 -22l77 -54v-2h-316v2l77 54q11 8 11 22v606h-269v-606q0 -14 12 -22l77 -54v-2h-316v2l77 54q11 8 11 22v547q0 14 -11 22l-77 54v2h724v-2l-77 -54q-12 -8 -12 -22z" />
    <glyph glyph-name="summation" unicode="&#x2211;" horiz-adv-x="598" 
d="M532 703l8 -221h-2l-113 185q-9 17 -28 17h-183l189 -329l-346 -336h352q23 0 32 13l105 189h2v-221h-535v2l285 280l-199 349q-8 13 -26 25l-67 45v2h526z" />
    <glyph glyph-name="minus" unicode="&#x2212;" horiz-adv-x="540" 
d="M50 314v18h440v-18h-440z" />
    <glyph glyph-name="uni2215" unicode="&#x2215;" horiz-adv-x="48" 
d="M293 701l-503 -711l-16 13l503 710z" />
    <glyph glyph-name="uni2219" unicode="&#x2219;" horiz-adv-x="235" 
d="M47 424q0 30 20.5 50.5t49.5 20.5q30 0 50.5 -20t20.5 -51q0 -29 -20.5 -49t-50.5 -20q-29 0 -49.5 20t-20.5 49z" />
    <glyph glyph-name="radical" unicode="&#x221a;" horiz-adv-x="540" 
d="M484 750l-263 -750h-2l-158 444l18 7l141 -397l246 701z" />
    <glyph glyph-name="infinity" unicode="&#x221e;" horiz-adv-x="765" 
d="M51 325q0 55 37.5 98t94.5 43q23 0 44 -6t43.5 -22.5t34.5 -26.5t39.5 -37.5t37.5 -36.5q10 10 37 36.5t39.5 37t35 27t43 22.5t44.5 6q57 0 94.5 -43t37.5 -98t-37.5 -98t-94.5 -43q-24 0 -44.5 6t-43 22.5t-35 27t-39.5 37t-37 36.5q-10 -9 -37.5 -36.5t-39.5 -37.5
t-34.5 -26.5t-43.5 -22.5t-44 -6q-57 0 -94.5 43t-37.5 98zM581 202q51 0 82.5 37t31.5 86t-31.5 86t-82.5 37q-22 0 -40.5 -5.5t-39.5 -21t-32.5 -25t-37.5 -36t-36 -35.5q10 -9 36 -35.5t37.5 -36t32.5 -25t39.5 -21t40.5 -5.5zM70 325q0 -49 31.5 -86t81.5 -37
q21 0 40 5.5t40 21t32 24.5t38 36l36 36l-36 36t-38 36t-32 24.5t-40 21t-40 5.5q-50 0 -81.5 -37t-31.5 -86z" />
    <glyph glyph-name="integral" unicode="&#x222b;" horiz-adv-x="440" 
d="M276 593v-591q0 -124 -43 -181t-129 -57q-70 0 -144 24l56 135h2l58 -129q7 -16 22 -16q18 0 29 7t15.5 23t6 31.5t1.5 41.5v628q0 108 43.5 156t131.5 48q71 0 141 -24l-56 -135h-2l-59 130q-4 9 -7 11t-14 2q-28 0 -40 -25t-12 -79z" />
    <glyph glyph-name="approxequal" unicode="&#x2248;" horiz-adv-x="540" 
d="M383 369q-46 0 -116.5 33t-110.5 33q-60 0 -96 -58l-16 9q40 67 112 67q46 0 116.5 -33t110.5 -33q62 0 98 59l15 -10q-40 -67 -113 -67zM383 191q-46 0 -116.5 33t-110.5 33q-60 0 -96 -58l-16 9q40 67 112 67q46 0 116.5 -33t110.5 -33q62 0 98 59l15 -10
q-40 -67 -113 -67z" />
    <glyph glyph-name="notequal" unicode="&#x2260;" horiz-adv-x="540" 
d="M50 404v18h263l57 102l17 -9l-52 -93h155v-18h-165l-89 -161h254v-18h-264l-59 -106l-17 9l54 97h-154v18h164l89 161h-253z" />
    <glyph glyph-name="lessequal" unicode="&#x2264;" horiz-adv-x="540" 
d="M50 104v18h440v-18h-440zM71 374l388 128l6 -18l-343 -111l343 -111l-6 -18l-388 128v2z" />
    <glyph glyph-name="greaterequal" unicode="&#x2265;" horiz-adv-x="540" 
d="M490 122v-18h-440v18h440zM81 502l388 -128v-2l-388 -128l-6 18l343 111l-343 111z" />
    <glyph glyph-name="lozenge" unicode="&#x25ca;" horiz-adv-x="540" 
d="M271 -81h-2l-219 405l219 405h2l219 -405zM270 690l-198 -366l198 -366l198 366z" />
    <glyph glyph-name="commaaccent" unicode="&#xf6c3;" horiz-adv-x="220" 
d="M54 -252l-1 2q52 33 55 83q0 10 -9 10q-21 0 -34.5 16.5t-13.5 40.5t16.5 41t41.5 17q27 0 44 -19t17 -51q0 -47 -33.5 -87t-82.5 -53z" />
    <glyph glyph-name="apple" unicode="&#xf8ff;" horiz-adv-x="1254" 
d="M666 341q-11 0 -41 1.5t-39 1.5q-54 0 -83.5 -24t-52.5 -76q-26 -57 -63.5 -88.5t-101.5 -31.5q-13 0 -42.5 2t-40.5 2q-57 0 -92.5 -30.5t-35.5 -75.5q0 -16 1 -22h-19q-1 7 -1 22q0 54 41.5 89.5t106.5 35.5q12 0 42.5 -2t40.5 -2q102 0 147 109q46 111 153 111
q11 0 41 -1.5t39 -1.5q52 0 83 25t54 75q26 57 63 88t101 31q13 0 42.5 -2t40.5 -2q57 0 93.5 31.5t36.5 74.5q0 16 -1 22h19q1 -7 1 -22q0 -53 -42.5 -89t-107.5 -36q-12 0 -42.5 2t-40.5 2q-55 0 -89 -27t-57 -80q-48 -112 -154 -112z" />
    <glyph glyph-name="Iacute_Jacute" horiz-adv-x="670" 
d="M244 625v-547q0 -14 12 -22l77 -54v-2h-316v2l77 54q11 8 11 22v547q0 14 -11 22l-77 54v2h316v-2l-77 -54q-12 -9 -12 -22zM196 915h138v-2l-221 -163l-2 2zM528 915h138v-2l-221 -163l-2 2zM440 40v585q0 14 -12 22l-77 54v2h316v-2l-77 -54q-12 -9 -12 -22v-557
q0 -124 -70 -196t-193 -83l-1 2q126 63 126 249z" />
    <glyph glyph-name="Jacute" horiz-adv-x="320" 
d="M179 915h138v-2l-221 -163l-2 2zM91 40v585q0 14 -12 22l-77 54v2h316v-2l-77 -54q-12 -9 -12 -22v-557q0 -124 -70 -196t-193 -83l-1 2q126 63 126 249z" />
    <glyph glyph-name="caronslovak" horiz-adv-x="243" 
d="M82 510l9 193h102l-109 -193h-2z" />
    <glyph glyph-name="commatop" horiz-adv-x="235" 
d="M170 759l1 -2q-48 -31 -54 -83q-1 -8 9 -10q22 -3 35 -18t13 -38q0 -25 -16.5 -42t-41.5 -17q-27 0 -44.5 19t-17.5 51q0 47 33.5 87t82.5 53z" />
    <glyph glyph-name="jacute" horiz-adv-x="273" 
d="M-5 -219q-19 0 -29 2v2q59 8 88.5 56.5t29.5 147.5v426q0 14 -10 23l-59 50v2h195v-462q0 -112 -55 -179.5t-160 -67.5zM155 703h138v-2l-221 -163l-2 2z" />
    <glyph glyph-name="smiley" horiz-adv-x="818" 
d="M409 713q157 0 258 -100.5t101 -260.5q0 -155 -99.5 -258.5t-259.5 -103.5q-162 0 -260.5 103.5t-98.5 258.5q0 153 104.5 257t254.5 104zM68 352q0 -148 93.5 -246.5t247.5 -98.5q152 0 246.5 98.5t94.5 246.5q0 152 -96 248t-245 96q-143 0 -242 -99t-99 -245zM683 309
l2 -1q-10 -38 -42 -36q-6 -83 -70.5 -137t-163.5 -54t-163.5 54t-71.5 137q-32 -2 -42 36l2 1q13 -16 39 -16q15 0 29.5 8t19.5 22h2q1 -42 -34 -49q7 -76 66 -126t153 -50q93 0 151 49.5t67 125.5q-37 7 -34 50h2q11 -30 49 -30q26 0 39 16zM465 456q0 49 3.5 86t9 55.5
t12.5 18.5q26 0 26 -160q0 -154 -26 -154q-7 0 -12.5 18t-9 53.5t-3.5 82.5zM328 616q7 0 12.5 -18.5t9 -55.5t3.5 -86q0 -47 -3.5 -82.5t-9 -53.5t-12.5 -18q-26 0 -26 154q0 160 26 160z" />
    <glyph glyph-name="backslash.case" horiz-adv-x="380" 
d="M329 -94l-297 885l18 6l298 -885z" />
    <glyph glyph-name="bar.case" horiz-adv-x="219" 
d="M119 -186h-19v1000h19v-1000z" />
    <glyph glyph-name="braceleft.case" horiz-adv-x="352" 
d="M217 238l-16 -174q-5 -55 30 -101.5t111 -42.5v-2q-34 -8 -65 -8q-74 0 -128.5 48.5t-46.5 130.5l17 175q3 31 -20.5 53.5t-63.5 26.5v2q41 5 64 27t20 53l-17 175q-8 82 47 130.5t128 48.5q31 0 65 -8v-2q-76 4 -111 -43t-30 -102l16 -173q4 -40 -21 -68.5t-65 -37.5v-2
q40 -9 65 -38t21 -68z" />
    <glyph glyph-name="braceright.case" horiz-adv-x="352" 
d="M151 64l-16 174q-4 39 21 68t65 38v2q-40 9 -65 37.5t-21 68.5l16 173q5 55 -30 102t-111 43v2q34 8 65 8q73 0 128 -48.5t47 -130.5l-17 -175q-3 -31 20 -53t64 -27v-2q-40 -4 -63.5 -26.5t-20.5 -53.5l17 -175q8 -82 -46.5 -130.5t-128.5 -48.5q-31 0 -65 8v2
q76 -4 111 42.5t30 101.5z" />
    <glyph glyph-name="bracketleft.case" horiz-adv-x="351" 
d="M172 697v-705q0 -15 12 -19l157 -47v-2l-261 -14v869l261 -14v-2l-157 -47q-12 -3 -12 -19z" />
    <glyph glyph-name="bracketright.case" horiz-adv-x="351" 
d="M179 -8v705q0 15 -12 19l-157 47v2l261 14v-869l-261 14v2l157 47q12 4 12 19z" />
    <glyph glyph-name="emdash.case" horiz-adv-x="1000" 
d="M995 335h-990v18h990v-18z" />
    <glyph glyph-name="endash.case" horiz-adv-x="500" 
d="M495 335h-490v18h490v-18z" />
    <glyph glyph-name="exclamdown.case" horiz-adv-x="264" 
d="M43 0l86 487h2l90 -487h-178zM61 643q0 29 20.5 48.5t49.5 19.5q30 0 50.5 -19.5t20.5 -48.5q0 -31 -20.5 -51t-50.5 -20q-29 0 -49.5 20.5t-20.5 50.5z" />
    <glyph glyph-name="guillemotleft.case" horiz-adv-x="448" 
d="M241 127l-212 213v2l212 213l1 -1l-95 -213l95 -213zM418 127l-212 213v2l212 213l1 -1l-95 -213l95 -213z" />
    <glyph glyph-name="guillemotright.case" horiz-adv-x="448" 
d="M242 340l-212 -213l-1 1l95 213l-95 213l1 1l212 -213v-2zM419 340l-212 -213l-1 1l95 213l-95 213l1 1l212 -213v-2z" />
    <glyph glyph-name="guilsinglleft.case" horiz-adv-x="271" 
d="M29 342l212 213l1 -1l-96 -213l96 -213l-1 -1l-212 213v2z" />
    <glyph glyph-name="guilsinglright.case" horiz-adv-x="271" 
d="M242 340l-212 -213l-1 1l95 213l-95 213l1 1l212 -213v-2z" />
    <glyph glyph-name="hyphen.case" horiz-adv-x="351" 
d="M46 335v19h260v-19h-260z" />
    <glyph glyph-name="parenleft.case" horiz-adv-x="328" 
d="M54 344q0 250 146 378q49 45 116 68l2 -2q-50 -42 -81 -100q-76 -138 -76 -344t76 -344q31 -58 81 -100l-2 -2q-67 23 -116 68q-146 128 -146 378z" />
    <glyph glyph-name="parenright.case" horiz-adv-x="328" 
d="M275 344q0 -249 -147 -378q-49 -45 -116 -68l-2 2q49 41 82 100q75 139 75 344t-75 344q-33 59 -82 100l2 2q67 -23 116 -68q147 -129 147 -378z" />
    <glyph glyph-name="questiondown.case" horiz-adv-x="461" 
d="M246 485q72 -30 72 -92q0 -44 -61 -107q-42 -42 -57 -60q-48 -54 -48 -110q0 -47 29 -76.5t73 -29.5q15 0 29 2t17.5 4.5t7.5 12.5l75 177h2l64 -163q-104 -51 -218 -51q-95 0 -151.5 41t-56.5 112q0 75 75 138l97 83q52 42 52 95q0 7 -2 23zM328 645q0 -30 -20.5 -50.5
t-49.5 -20.5q-30 0 -50.5 20t-20.5 51q0 29 20.5 48.5t50.5 19.5q29 0 49.5 -19.5t20.5 -48.5z" />
    <glyph glyph-name="slash.case" horiz-adv-x="380" 
d="M348 791l-297 -885l-19 6l298 885z" />
    <glyph glyph-name="braceleft.salt" horiz-adv-x="245" 
d="M142 219q0 -15 -7 -39l-44 -155q-10 -33 -10 -60q0 -88 99 -88q25 0 52 6l3 -17q-31 -7 -53 -7q-55 0 -88 26.5t-33 80.5q0 24 12 65l44 149q7 23 7 39q0 65 -89 65v18q89 0 89 64q0 16 -7 39l-44 149q-12 41 -12 65q0 55 32.5 81t88.5 26q26 0 53 -6l-3 -17q-27 6 -52 6
q-100 0 -100 -89q0 -24 11 -60l44 -155q7 -24 7 -39q0 -62 -61 -73v-1q61 -11 61 -73z" />
    <glyph glyph-name="braceright.salt" horiz-adv-x="245" 
d="M103 219q0 62 61 73v1q-61 11 -61 73q0 14 7 39l44 155q11 36 11 60q0 89 -100 89q-25 0 -52 -6l-3 17q27 6 53 6q56 0 88.5 -26t32.5 -81q0 -24 -12 -65l-44 -149q-7 -23 -7 -39q0 -64 89 -64v-18q-89 0 -89 -65q0 -16 7 -39l44 -149q12 -41 12 -65q0 -54 -33 -80.5
t-88 -26.5q-21 0 -53 7l3 17q27 -6 52 -6q99 0 99 88q0 27 -10 60l-44 155q-7 24 -7 39z" />
    <glyph glyph-name="bracketleft.salt" horiz-adv-x="257" 
d="M247 -120v-18h-167v859h167v-18h-148v-823h148z" />
    <glyph glyph-name="bracketright.salt" horiz-adv-x="257" 
d="M10 -138v18h148v823h-148v18h167v-859h-167z" />
    <glyph glyph-name="guillemotleft.salt" horiz-adv-x="428" 
d="M29 252l196 213l14 -13l-185 -200l185 -201l-14 -12zM189 252l196 213l14 -13l-185 -200l185 -201l-14 -12z" />
    <glyph glyph-name="guillemotright.salt" horiz-adv-x="428" 
d="M398 252l-196 -213l-14 13l185 200l-185 201l14 12zM238 252l-196 -213l-14 13l185 200l-185 201l14 12z" />
    <glyph glyph-name="guilsinglleft.salt" horiz-adv-x="268" 
d="M29 252l196 213l14 -13l-185 -200l185 -201l-14 -12z" />
    <glyph glyph-name="guilsinglright.salt" horiz-adv-x="268" 
d="M42 465l196 -213l-196 -213l-14 12l185 201l-185 200z" />
    <glyph glyph-name="parenleft.salt" horiz-adv-x="276" 
d="M54 291q0 129 52.5 252.5t150.5 192.5l9 -14q-93 -68 -143.5 -186.5t-50.5 -244.5t50.5 -244.5t143.5 -186.5l-9 -14q-98 69 -150.5 192.5t-52.5 252.5z" />
    <glyph glyph-name="parenright.salt" horiz-adv-x="276" 
d="M222 291q0 -129 -52.5 -252.5t-150.5 -192.5l-9 14q93 68 143.5 186.5t50.5 244.5t-50.5 244.5t-143.5 186.5l9 14q98 -69 150.5 -192.5t52.5 -252.5z" />
    <glyph glyph-name="braceleft.salt.case" horiz-adv-x="245" 
d="M35 336v18q89 0 89 64q0 16 -7 39l-44 149q-12 41 -12 65q0 55 32.5 81t88.5 26q26 0 53 -6l-3 -17q-27 6 -52 6q-100 0 -100 -89q0 -24 11 -60l44 -155q7 -25 7 -39q0 -62 -61 -73v-1q61 -11 61 -73q0 -15 -7 -39l-44 -155q-10 -33 -10 -60q0 -88 99 -88q25 0 52 6
l3 -17q-25 -7 -53 -7q-55 0 -88 26.5t-33 80.5q0 24 12 65l44 149q7 23 7 39q0 65 -89 65z" />
    <glyph glyph-name="braceright.salt.case" horiz-adv-x="245" 
d="M210 354v-18q-89 0 -89 -65q0 -16 7 -39l44 -149q12 -41 12 -65q0 -54 -33 -80.5t-88 -26.5q-28 0 -53 7l3 17q27 -6 52 -6q99 0 99 88q0 27 -10 60l-44 155q-7 24 -7 39q0 62 61 73v1q-61 11 -61 73q0 14 7 39l44 155q11 36 11 60q0 89 -100 89q-25 0 -52 -6l-3 17
q27 6 53 6q56 0 88.5 -26t32.5 -81q0 -24 -12 -65l-44 -149q-7 -23 -7 -39q0 -64 89 -64z" />
    <glyph glyph-name="bracketleft.salt.case" horiz-adv-x="257" 
d="M247 -69v-18h-167v859h167v-18h-148v-823h148z" />
    <glyph glyph-name="bracketright.salt.case" horiz-adv-x="257" 
d="M10 -87v18h148v823h-148v18h167v-859h-167z" />
    <glyph glyph-name="guillemotleft.salt.case" horiz-adv-x="428" 
d="M29 342l196 213l14 -13l-185 -200l185 -201l-14 -12zM189 342l196 213l14 -13l-185 -200l185 -201l-14 -12z" />
    <glyph glyph-name="guillemotright.salt.case" horiz-adv-x="428" 
d="M398 342l-196 -213l-14 13l185 200l-185 201l14 12zM238 342l-196 -213l-14 13l185 200l-185 201l14 12z" />
    <glyph glyph-name="guilsinglleft.salt.case" horiz-adv-x="268" 
d="M29 342l196 213l14 -13l-185 -200l185 -201l-14 -12z" />
    <glyph glyph-name="guilsinglright.salt.case" horiz-adv-x="268" 
d="M42 555l196 -213l-196 -213l-14 12l185 201l-185 200z" />
    <glyph glyph-name="parenleft.salt.case" horiz-adv-x="276" 
d="M54 343q0 129 52.5 252.5t150.5 192.5l9 -14q-93 -68 -143.5 -186.5t-50.5 -244.5t50.5 -244.5t143.5 -186.5l-9 -14q-98 69 -150.5 192.5t-52.5 252.5z" />
    <glyph glyph-name="parenright.salt.case" horiz-adv-x="276" 
d="M222 343q0 -129 -52.5 -252.5t-150.5 -192.5l-9 14q93 68 143.5 186.5t50.5 244.5t-50.5 244.5t-143.5 186.5l9 14q98 -69 150.5 -192.5t52.5 -252.5z" />
    <glyph glyph-name="eight.subs" 
d="M144 -4q-52 0 -86.5 21t-34.5 51q0 48 75 62q-62 24 -62 82q0 35 30 58t81 23q48 0 79 -20t31 -47q0 -50 -74 -58l27 -11q65 -25 65 -75q0 -38 -34 -62t-97 -24zM164 105l-58 22q-21 -19 -21 -55q0 -25 18 -43.5t47 -18.5t44 13t15 32q0 33 -45 50zM98 234q0 -33 52 -53
l25 -10q23 19 23 52q0 23 -14.5 39.5t-37.5 16.5q-22 0 -35 -14t-13 -31z" />
    <glyph glyph-name="five.subs" 
d="M65 231l-5 -77q51 28 100 28q52 0 81 -25.5t29 -64.5q0 -96 -134 -96q-70 0 -118 19l50 94h1l28 -87q4 -10 14 -11q8 -1 20 -1q27 0 44 20t17 53q0 31 -20 49.5t-59 18.5q-33 0 -66 -15l-2 1l8 153q105 -3 106 -3q25 0 41 1q38 2 48 13l7 8h2l-4 -38q-4 -43 -46 -43h-53
q-38 0 -89 3z" />
    <glyph glyph-name="four.subs" 
d="M214 39q0 -6 7 -11l42 -27v-1h-173v1l45 27q6 4 6 11v33h-143v2l158 215h58v-202h15q10 0 15 8l47 82h2l-7 -105h-72v-33zM28 87h113v154z" />
    <glyph glyph-name="nine.subs" 
d="M115 107q-41 0 -68 24t-27 64q0 43 32.5 70.5t89.5 27.5q136 0 136 -149q0 -68 -36.5 -108t-106.5 -40q-53 0 -104 13l35 83h2l45 -75q5 -7 14 -7h9q35 0 47 31.5t12 99.5q-37 -34 -80 -34zM145 130q25 0 50 21q-1 71 -12 99t-41 28q-44 0 -44 -78q0 -70 47 -70z" />
    <glyph glyph-name="one.subs" horiz-adv-x="252" 
d="M172 296v-252q0 -8 7 -11l65 -32v-1h-221v1l65 32q7 3 7 11v186q0 7 -7 9l-71 22v2z" />
    <glyph glyph-name="parenleft.subs" horiz-adv-x="192" 
d="M107 145q0 -135 75 -206l-1 -2q-75 26 -113 80t-38 128q0 75 38 129t113 80l1 -1q-75 -71 -75 -208z" />
    <glyph glyph-name="parenright.subs" horiz-adv-x="192" 
d="M85 145q0 137 -75 208l1 1q75 -26 113 -80t38 -129q0 -74 -38 -128t-113 -80l-1 2q75 71 75 206z" />
    <glyph glyph-name="seven.subs" 
d="M162 0h-98q80 138 159 234h-147q-17 0 -26 -9l-26 -27h-1l12 91h249l-34 -38q-8 -8 -11 -16q-35 -83 -77 -235z" />
    <glyph glyph-name="six.subs" 
d="M180 182q43 0 69.5 -24t26.5 -64q0 -43 -33 -70.5t-90 -27.5q-69 0 -102.5 39.5t-33.5 108.5t37 109t107 40q54 0 104 -14l-35 -82h-2l-45 75q-5 6 -12 6h-12q-35 0 -47 -31.5t-12 -99.5q35 35 80 35zM150 159q-24 0 -50 -23q0 -70 11.5 -98t42.5 -28q43 0 43 79
q0 70 -47 70z" />
    <glyph glyph-name="three.subs" 
d="M273 82q0 -37 -36.5 -61.5t-101.5 -24.5q-67 0 -117 18l50 97h2l28 -91q3 -7 10 -8t23 -1q27 0 44.5 18.5t17.5 51.5q0 63 -82 67v2q73 12 73 75q0 53 -46 53h-18q-9 0 -12 -8l-41 -90h-2l-40 91q56 22 120 22q117 0 117 -70q0 -53 -79 -69v-2q43 -2 66.5 -20.5
t23.5 -49.5z" />
    <glyph glyph-name="two.subs" 
d="M268 102l-14 -102h-240v2q54 48 96 90q73 71 73 123q0 63 -54 63h-12q-9 0 -12 -8l-41 -92h-2l-40 93q59 22 118 22t92 -21.5t33 -60.5q0 -45 -38.5 -76t-130.5 -73v-2h105q21 0 29 8l36 34h2z" />
    <glyph glyph-name="zero.subs" 
d="M147 279q-30 0 -39.5 -30.5t-9.5 -104.5q0 -73 9.5 -103.5t39.5 -30.5t39.5 30t9.5 104t-9.5 104.5t-39.5 30.5zM147 293q66 0 99.5 -40t33.5 -109q0 -68 -33.5 -108t-99.5 -40q-65 0 -98.5 40t-33.5 108t33.5 108.5t98.5 40.5z" />
    <glyph glyph-name="eight.sups" 
d="M144 416q-52 0 -86.5 21t-34.5 51q0 48 75 62q-62 24 -62 82q0 35 30 58t81 23q48 0 79 -20t31 -47q0 -50 -74 -58l27 -11q65 -25 65 -75q0 -38 -34 -62t-97 -24zM164 525l-58 22q-21 -19 -21 -55q0 -25 18 -43.5t47 -18.5t44 13t15 32q0 33 -45 50zM98 654q0 -33 52 -53
l25 -10q23 19 23 52q0 23 -14.5 39.5t-37.5 16.5q-22 0 -35 -14t-13 -31z" />
    <glyph glyph-name="five.sups" 
d="M65 651l-5 -77q51 28 100 28q52 0 81 -25.5t29 -64.5q0 -96 -134 -96q-70 0 -118 19l50 94h1l28 -87q4 -10 14 -11q8 -1 20 -1q27 0 44 20t17 53q0 31 -20 49.5t-59 18.5q-33 0 -66 -15l-2 1l8 153q105 -3 106 -3q25 0 41 1q38 2 48 13l7 8h2l-4 -38q-4 -43 -46 -43h-53
q-38 0 -89 3z" />
    <glyph glyph-name="four.sups" 
d="M213 459q0 -6 7 -11l42 -27v-1h-173v1l45 27q6 4 6 11v33h-143v2l158 215h58v-202h15q10 0 15 8l47 82h2l-7 -105h-72v-33zM27 507h113v154z" />
    <glyph glyph-name="nine.sups" 
d="M115 527q-41 0 -68 24t-27 64q0 43 32.5 70.5t89.5 27.5q136 0 136 -149q0 -68 -36.5 -108t-106.5 -40q-53 0 -104 13l35 83h2l45 -75q5 -7 14 -7h9q35 0 47 31.5t12 99.5q-37 -34 -80 -34zM145 550q25 0 50 21q-1 71 -12 99t-41 28q-44 0 -44 -78q0 -70 47 -70z" />
    <glyph glyph-name="one.sups" horiz-adv-x="252" 
d="M172 716v-252q0 -8 7 -11l65 -32v-1h-221v1l65 32q7 3 7 11v186q0 7 -7 9l-71 22v2z" />
    <glyph glyph-name="parenleft.sups" horiz-adv-x="192" 
d="M107 558q0 -135 75 -206l-1 -2q-75 26 -113 80t-38 128q0 75 38 129t113 80l1 -1q-75 -71 -75 -208z" />
    <glyph glyph-name="parenright.sups" horiz-adv-x="192" 
d="M85 558q0 137 -75 208l1 1q75 -26 113 -80t38 -129q0 -74 -38 -128t-113 -80l-1 2q75 71 75 206z" />
    <glyph glyph-name="seven.sups" 
d="M162 420h-98q80 138 159 234h-147q-17 0 -26 -9l-26 -27h-1l12 91h249l-34 -38q-8 -8 -11 -16q-35 -83 -77 -235z" />
    <glyph glyph-name="six.sups" 
d="M179 602q43 0 69.5 -24t26.5 -64q0 -43 -33 -70.5t-90 -27.5q-69 0 -102.5 39.5t-33.5 108.5t37 109t107 40q54 0 104 -14l-35 -82h-2l-45 75q-5 6 -12 6h-12q-35 0 -47 -31.5t-12 -99.5q35 35 80 35zM149 579q-24 0 -50 -23q0 -70 11.5 -98t42.5 -28q43 0 43 79
q0 70 -47 70z" />
    <glyph glyph-name="three.sups" 
d="M273 502q0 -37 -36.5 -61.5t-101.5 -24.5q-67 0 -117 18l50 97h2l28 -91q3 -7 10 -8t23 -1q27 0 44.5 18.5t17.5 51.5q0 63 -82 67v2q73 12 73 75q0 53 -46 53h-18q-9 0 -12 -8l-41 -90h-2l-40 91q56 22 120 22q117 0 117 -70q0 -53 -79 -69v-2q43 -2 66.5 -20.5
t23.5 -49.5z" />
    <glyph glyph-name="two.sups" 
d="M268 522l-14 -102h-240v2q54 48 96 90q73 71 73 123q0 63 -54 63h-12q-9 0 -12 -8l-41 -92h-2l-40 93q59 22 118 22t92 -21.5t33 -60.5q0 -45 -38.5 -76t-130.5 -73v-2h105q21 0 29 8l36 34h2z" />
    <glyph glyph-name="zero.sups" 
d="M147 699q-30 0 -39.5 -30.5t-9.5 -104.5q0 -73 9.5 -103.5t39.5 -30.5t39.5 30t9.5 104t-9.5 104.5t-39.5 30.5zM147 713q66 0 99.5 -40t33.5 -109q0 -68 -33.5 -108t-99.5 -40q-65 0 -98.5 40t-33.5 108t33.5 108.5t98.5 40.5z" />
    <glyph glyph-name="i.trk" horiz-adv-x="296" 
d="M149 556q-29 0 -49 19t-20 47q0 30 20 49.5t49 19.5q30 0 50 -19.5t20 -49.5q0 -28 -20.5 -47t-49.5 -19zM287 0h-265v2l59 43q10 8 10 22v348q0 15 -10 23l-59 50v2h195v-423q0 -13 11 -22l59 -43v-2z" />
    </font>
</defs>
</svg>
